<?xml version="1.0" encoding="UTF-8" standalone="no"?><!DOCTYPE svg PUBLIC "-//W3C//DTD SVG 1.1//EN" "http://www.w3.org/Graphics/SVG/1.1/DTD/svg11.dtd"><svg width="100%" height="100%" viewBox="0 0 95 29" version="1.1" xmlns="http://www.w3.org/2000/svg" xmlns:xlink="http://www.w3.org/1999/xlink" xml:space="preserve" xmlns:serif="http://www.serif.com/" style="fill-rule:evenodd;clip-rule:evenodd;stroke-linejoin:round;stroke-miterlimit:2;"><g id="Amazon"><path d="M11.7,16.5c-0.094,0.08 -0.212,0.13 -0.336,0.142c-0.124,0.012 -0.249,-0.014 -0.358,-0.075c-0.823,-0.676 -1.074,-1.046 -1.454,-1.604c-0.069,-0.103 -0.143,-0.211 -0.226,-0.329c-1.608,1.623 -2.746,2.109 -4.827,2.109c-2.469,-0 -4.388,-1.508 -4.388,-4.522c-0.035,-1.013 0.247,-2.012 0.806,-2.861c0.559,-0.849 1.369,-1.507 2.319,-1.883c1.341,-0.583 3.128,-0.764 4.673,-0.92c0.288,-0.029 0.568,-0.058 0.835,-0.088l0,-0.383c0,-0.073 0.001,-0.148 0.001,-0.224c0.006,-0.638 0.012,-1.348 -0.356,-1.882c-0.192,-0.247 -0.442,-0.445 -0.729,-0.576c-0.286,-0.131 -0.6,-0.191 -0.914,-0.177c-1.118,0 -2.111,0.566 -2.366,1.758c-0.015,0.131 -0.073,0.254 -0.164,0.35c-0.092,0.096 -0.213,0.16 -0.344,0.183l-2.838,-0.293c-0.07,-0.009 -0.138,-0.033 -0.198,-0.069c-0.061,-0.035 -0.113,-0.083 -0.154,-0.14c-0.041,-0.057 -0.07,-0.122 -0.085,-0.19c-0.014,-0.068 -0.015,-0.139 -0.001,-0.208c0.651,-3.414 3.761,-4.445 6.552,-4.445c1.425,-0 3.287,0.378 4.411,1.447c1.309,1.211 1.3,2.796 1.29,4.534c-0.001,0.153 -0.001,0.307 -0.001,0.462l-0,4.519c-0,1.216 0.455,1.823 0.934,2.46c0.057,0.076 0.114,0.153 0.171,0.231c0.186,0.263 0.231,0.586 0,0.77c-0.591,0.498 -1.661,1.412 -2.247,1.927l-0.006,-0.023Zm-2.956,-7.076l0,0.158c0.001,1.061 0.003,1.963 -0.547,2.92c-0.464,0.817 -1.206,1.321 -2.028,1.321c-1.123,0 -1.774,-0.849 -1.774,-2.106c0,-2.471 2.241,-2.928 4.358,-2.928l-0.009,0.635Z" style="fill:#808080;"/><path d="M49.769,16.645c0.124,-0.012 0.242,-0.063 0.335,-0.145l0.006,0.023c0.585,-0.515 1.656,-1.429 2.247,-1.927c0.23,-0.184 0.189,-0.507 -0,-0.77c-0.057,-0.078 -0.114,-0.154 -0.171,-0.229l-0.001,-0.002c-0.478,-0.637 -0.934,-1.244 -0.934,-2.46l0,-4.519c0,-0.158 0.001,-0.315 0.002,-0.47c0.01,-1.735 0.02,-3.317 -1.288,-4.526c-1.123,-1.069 -2.989,-1.447 -4.414,-1.447c-2.788,-0 -5.898,1.031 -6.551,4.445c-0.014,0.069 -0.013,0.139 0.002,0.208c0.015,0.068 0.044,0.132 0.085,0.189c0.041,0.057 0.093,0.105 0.153,0.141c0.061,0.036 0.128,0.059 0.197,0.069l2.839,0.293c0.131,-0.023 0.252,-0.087 0.343,-0.183c0.092,-0.096 0.15,-0.219 0.165,-0.35c0.254,-1.192 1.248,-1.758 2.365,-1.758c0.315,-0.015 0.629,0.046 0.915,0.177c0.287,0.131 0.537,0.329 0.729,0.576c0.369,0.537 0.364,1.251 0.359,1.892c-0.001,0.072 -0.001,0.144 -0.001,0.214l-0,0.383c-0.267,0.03 -0.547,0.059 -0.835,0.088c-1.547,0.156 -3.335,0.337 -4.676,0.92c-0.95,0.376 -1.76,1.034 -2.319,1.883c-0.56,0.849 -0.841,1.848 -0.806,2.861c0,3.014 1.922,4.522 4.387,4.522c2.085,-0 3.223,-0.486 4.831,-2.109c0.082,0.118 0.156,0.226 0.225,0.327l0,0.001c0.38,0.559 0.632,0.929 1.454,1.605c0.108,0.063 0.233,0.09 0.357,0.078Zm-2.621,-7.077l-0,-0.144l0.006,-0.635c-2.12,-0 -4.358,0.457 -4.358,2.928c-0,1.257 0.65,2.106 1.774,2.106c0.822,0 1.564,-0.504 2.028,-1.321c0.552,-0.962 0.551,-1.867 0.55,-2.934Z" style="fill:#808080;"/><path d="M19.7,16.538l-2.929,-0c-0.133,-0.007 -0.258,-0.06 -0.354,-0.15c-0.096,-0.09 -0.156,-0.212 -0.17,-0.342l0,-14.895c0.002,-0.072 0.017,-0.143 0.046,-0.209c0.029,-0.066 0.071,-0.126 0.124,-0.176c0.052,-0.05 0.114,-0.089 0.182,-0.115c0.068,-0.026 0.14,-0.038 0.213,-0.036l2.729,0c0.135,0.005 0.264,0.058 0.362,0.15c0.098,0.093 0.159,0.217 0.17,0.351l0,1.942l0.056,-0c0.71,-1.881 2.049,-2.756 3.843,-2.756c1.795,-0 2.98,0.878 3.802,2.756c0.273,-0.708 0.731,-1.331 1.326,-1.807c0.595,-0.475 1.307,-0.786 2.063,-0.9c0.755,-0.115 1.528,-0.029 2.24,0.248c0.711,0.278 1.336,0.737 1.81,1.331c0.795,1.074 0.77,2.562 0.747,3.972c-0.004,0.236 -0.008,0.47 -0.008,0.699l-0,9.401c-0.002,0.072 -0.018,0.143 -0.047,0.209c-0.029,0.065 -0.071,0.125 -0.123,0.175c-0.053,0.049 -0.115,0.088 -0.182,0.115c-0.068,0.026 -0.14,0.038 -0.213,0.037l-2.927,-0c-0.14,-0.006 -0.272,-0.065 -0.37,-0.165c-0.098,-0.099 -0.154,-0.232 -0.156,-0.371l0,-7.907c0,-0.119 0.002,-0.272 0.004,-0.445c0.009,-0.741 0.023,-1.862 -0.087,-2.346c-0.218,-1.002 -0.887,-1.286 -1.723,-1.286c-0.381,0.012 -0.75,0.134 -1.061,0.352c-0.311,0.218 -0.551,0.521 -0.69,0.872c-0.275,0.702 -0.273,1.838 -0.272,2.676l0,0.177l0,7.907c-0.001,0.072 -0.017,0.143 -0.046,0.209c-0.029,0.065 -0.071,0.125 -0.124,0.175c-0.052,0.049 -0.114,0.088 -0.182,0.115c-0.067,0.026 -0.14,0.038 -0.212,0.037l-2.927,-0c-0.14,-0.006 -0.273,-0.065 -0.371,-0.165c-0.097,-0.099 -0.153,-0.232 -0.155,-0.371l-0,-7.907c-0,-0.168 0.003,-0.344 0.005,-0.525c0.026,-1.606 0.057,-3.575 -1.812,-3.575c-2.025,-0 -2.023,2.261 -2.022,3.967l0,8.04c-0.003,0.144 -0.063,0.281 -0.168,0.382c-0.105,0.1 -0.245,0.155 -0.391,0.154Z" style="fill:#808080;fill-rule:nonzero;"/><path d="M54.834,3.242l0,-2.135c-0.002,-0.071 0.01,-0.143 0.037,-0.209c0.026,-0.066 0.066,-0.127 0.117,-0.177c0.051,-0.051 0.112,-0.091 0.179,-0.117c0.067,-0.026 0.139,-0.038 0.211,-0.036l9.626,0c0.073,-0.003 0.145,0.009 0.214,0.035c0.068,0.026 0.129,0.066 0.181,0.116c0.052,0.05 0.094,0.111 0.121,0.178c0.028,0.066 0.041,0.138 0.04,0.21l0,1.825c0,0.292 -0.263,0.705 -0.724,1.338l-4.976,7.064c1.851,-0.044 3.808,0.231 5.493,1.171c0.151,0.082 0.277,0.202 0.366,0.347c0.09,0.146 0.139,0.312 0.143,0.482l-0,2.272c0.002,0.085 -0.017,0.169 -0.056,0.245c-0.038,0.076 -0.095,0.141 -0.166,0.189c-0.07,0.049 -0.152,0.079 -0.237,0.088c-0.086,0.009 -0.172,-0.003 -0.25,-0.035c-1.575,-0.802 -3.32,-1.218 -5.089,-1.215c-1.77,0.003 -3.514,0.425 -5.085,1.232c-0.337,0.179 -0.686,-0.179 -0.686,-0.492l0,-2.158c-0.031,-0.513 0.094,-1.023 0.358,-1.464l5.78,-8.215l-5.026,-0c-0.074,0.005 -0.148,-0.006 -0.218,-0.031c-0.07,-0.025 -0.133,-0.064 -0.187,-0.114c-0.054,-0.051 -0.096,-0.112 -0.125,-0.18c-0.028,-0.068 -0.042,-0.141 -0.041,-0.214Z" style="fill:#808080;fill-rule:nonzero;"/><path d="M80.552,8.701c-0,-4.7 -2.353,-8.399 -6.702,-8.399c-4.233,-0 -6.59,3.637 -6.59,8.244c0,4.606 2.324,8.305 6.59,8.305c4.103,0 6.702,-3.605 6.702,-8.15Zm-8.969,-0.627c-0,-1.818 0.135,-4.732 2.294,-4.732c0.93,-0 1.587,0.401 1.915,1.44c0.385,1.192 0.438,2.698 0.438,3.951c-0,1.912 -0.083,5.046 -2.38,5.046c-2.269,0 -2.268,-3.791 -2.267,-5.636l-0,-0.069Z" style="fill:#808080;"/><path d="M86.19,16.538l-2.918,-0c-0.14,-0.007 -0.272,-0.066 -0.37,-0.165c-0.098,-0.1 -0.154,-0.232 -0.156,-0.371l-0,-14.901c0.016,-0.136 0.083,-0.261 0.188,-0.35c0.104,-0.09 0.239,-0.138 0.377,-0.136l2.716,0c0.121,0.004 0.237,0.046 0.331,0.121c0.094,0.075 0.161,0.179 0.189,0.295l0,2.278l0.057,0c0.819,-2.05 1.969,-3.007 3.991,-3.007c1.313,-0 2.599,0.468 3.421,1.757c0.766,1.192 0.766,3.198 0.766,4.639l-0,9.371c-0.021,0.133 -0.089,0.253 -0.192,0.339c-0.104,0.087 -0.235,0.133 -0.37,0.13l-2.939,-0c-0.128,-0.007 -0.25,-0.057 -0.344,-0.143c-0.096,-0.085 -0.157,-0.2 -0.176,-0.326l-0,-8.089c-0,-0.126 0,-0.258 0.002,-0.392l0,-0.001c0.014,-1.594 0.032,-3.619 -1.836,-3.619c-0.368,0.016 -0.724,0.137 -1.024,0.349c-0.301,0.211 -0.533,0.504 -0.669,0.843c-0.411,0.908 -0.467,1.816 -0.467,2.82l-0,8.022c-0.003,0.073 -0.019,0.144 -0.05,0.21c-0.03,0.067 -0.073,0.126 -0.127,0.176c-0.053,0.05 -0.116,0.089 -0.185,0.114c-0.068,0.026 -0.142,0.038 -0.215,0.036Z" style="fill:#808080;fill-rule:nonzero;"/><path d="M61.128,19.669c-0.703,-0.894 -4.65,-0.425 -6.424,-0.214c-0.535,0.064 -0.621,-0.401 -0.136,-0.738c3.149,-2.191 8.308,-1.558 8.908,-0.823c0.6,0.735 -0.16,5.857 -3.11,8.308c-0.453,0.375 -0.887,0.176 -0.683,-0.322c0.662,-1.637 2.149,-5.318 1.445,-6.211Z" style="fill:#808080;fill-rule:nonzero;"/><path d="M58.84,22.257c-5.502,4.021 -13.475,6.15 -20.34,6.15c-9.174,0.046 -18.035,-3.302 -24.848,-9.389c-0.515,-0.462 -0.057,-1.092 0.564,-0.735c7.569,4.293 16.139,6.549 24.861,6.546c6.514,-0.032 12.959,-1.339 18.962,-3.846c0.934,-0.389 1.709,0.607 0.801,1.274Z" style="fill:#808080;fill-rule:nonzero;"/></g></svg>