<?xml version="1.0" encoding="UTF-8" standalone="no"?><!DOCTYPE svg PUBLIC "-//W3C//DTD SVG 1.1//EN" "http://www.w3.org/Graphics/SVG/1.1/DTD/svg11.dtd"><svg width="100%" height="100%" viewBox="0 0 121 36" version="1.1" xmlns="http://www.w3.org/2000/svg" xmlns:xlink="http://www.w3.org/1999/xlink" xml:space="preserve" xmlns:serif="http://www.serif.com/" style="fill-rule:evenodd;clip-rule:evenodd;stroke-linejoin:round;stroke-miterlimit:2;"><g id="Amazon"><path d="M14.74,20.742c-0.12,0.102 -0.269,0.165 -0.426,0.181c-0.158,0.015 -0.316,-0.018 -0.454,-0.095c-1.043,-0.857 -1.362,-1.326 -1.843,-2.034c-0.088,-0.13 -0.182,-0.267 -0.286,-0.416c-2.039,2.056 -3.482,2.673 -6.12,2.673c-3.129,-0 -5.561,-1.912 -5.561,-5.732c-0.045,-1.285 0.312,-2.551 1.021,-3.627c0.709,-1.077 1.735,-1.91 2.94,-2.387c1.699,-0.739 3.965,-0.968 5.923,-1.167c0.365,-0.037 0.72,-0.073 1.059,-0.11l-0,-0.487c-0,-0.093 0.001,-0.187 0.001,-0.283c0.007,-0.809 0.015,-1.709 -0.451,-2.386c-0.244,-0.313 -0.561,-0.564 -0.924,-0.73c-0.363,-0.166 -0.76,-0.243 -1.16,-0.224c-1.416,-0 -2.675,0.716 -2.998,2.227c-0.019,0.167 -0.092,0.323 -0.209,0.444c-0.116,0.122 -0.269,0.203 -0.435,0.232l-3.598,-0.371c-0.089,-0.012 -0.174,-0.041 -0.251,-0.087c-0.077,-0.045 -0.143,-0.106 -0.195,-0.178c-0.052,-0.072 -0.089,-0.154 -0.107,-0.241c-0.019,-0.086 -0.02,-0.176 -0.002,-0.263c0.825,-4.328 4.767,-5.635 8.305,-5.635c1.806,-0 4.167,0.479 5.592,1.834c1.66,1.535 1.648,3.545 1.636,5.748c-0.001,0.194 -0.002,0.389 -0.002,0.585l-0,5.728c-0,1.543 0.577,2.311 1.184,3.12c0.072,0.096 0.145,0.193 0.217,0.292c0.236,0.334 0.292,0.743 0,0.976c-0.749,0.632 -2.106,1.79 -2.848,2.443l-0.008,-0.03Zm-3.747,-8.969l-0,0.2c0.002,1.345 0.003,2.488 -0.694,3.702c-0.588,1.036 -1.529,1.674 -2.57,1.674c-1.425,0 -2.249,-1.076 -2.249,-2.669c-0,-3.133 2.841,-3.712 5.524,-3.712l-0.011,0.805Z" style="fill:#808080;"/><path d="M62.998,20.926c0.158,-0.015 0.306,-0.079 0.425,-0.184l0.007,0.03c0.742,-0.653 2.099,-1.811 2.848,-2.443c0.293,-0.233 0.24,-0.642 0,-0.976c-0.072,-0.098 -0.144,-0.195 -0.216,-0.29l-0.001,-0.002c-0.607,-0.809 -1.184,-1.577 -1.184,-3.12l-0,-5.728c-0,-0.2 0.001,-0.398 0.002,-0.596c0.013,-2.199 0.025,-4.204 -1.633,-5.737c-1.424,-1.355 -3.788,-1.834 -5.595,-1.834c-3.534,-0 -7.476,1.307 -8.305,5.635c-0.017,0.087 -0.016,0.176 0.003,0.263c0.019,0.086 0.056,0.168 0.107,0.24c0.052,0.072 0.119,0.133 0.195,0.178c0.076,0.046 0.162,0.076 0.25,0.088l3.598,0.371c0.166,-0.029 0.319,-0.11 0.435,-0.232c0.117,-0.121 0.19,-0.277 0.209,-0.444c0.323,-1.511 1.582,-2.227 2.998,-2.227c0.4,-0.019 0.798,0.057 1.161,0.223c0.362,0.167 0.679,0.417 0.923,0.731c0.468,0.68 0.461,1.586 0.455,2.398c-0.001,0.092 -0.001,0.182 -0.001,0.271l-0,0.487c-0.339,0.037 -0.693,0.073 -1.058,0.11c-1.961,0.199 -4.228,0.428 -5.928,1.167c-1.204,0.477 -2.231,1.31 -2.94,2.387c-0.709,1.076 -1.066,2.342 -1.021,3.627c-0,3.82 2.436,5.732 5.561,5.732c2.642,-0 4.085,-0.617 6.124,-2.673c0.104,0.148 0.197,0.285 0.285,0.414l0.001,0.002c0.481,0.707 0.8,1.177 1.843,2.034c0.136,0.079 0.295,0.114 0.452,0.098Zm-3.323,-8.971l-0,-0.182l0.007,-0.805c-2.687,-0 -5.524,0.579 -5.524,3.712c0,1.593 0.825,2.669 2.249,2.669c1.042,0 1.982,-0.638 2.571,-1.674c0.7,-1.219 0.698,-2.367 0.697,-3.72Z" style="fill:#808080;"/><path d="M24.882,20.791l-3.714,-0c-0.168,-0.008 -0.327,-0.076 -0.449,-0.19c-0.122,-0.115 -0.198,-0.269 -0.215,-0.434l0,-18.881c0.002,-0.092 0.022,-0.182 0.058,-0.265c0.037,-0.084 0.09,-0.16 0.157,-0.223c0.067,-0.063 0.145,-0.113 0.231,-0.146c0.086,-0.032 0.178,-0.048 0.27,-0.046l3.459,0c0.172,0.006 0.335,0.074 0.459,0.191c0.125,0.117 0.201,0.275 0.216,0.444l-0,2.462l0.071,-0c0.899,-2.384 2.597,-3.494 4.872,-3.494c2.275,0 3.778,1.114 4.819,3.494c0.347,-0.897 0.926,-1.687 1.681,-2.29c0.754,-0.603 1.656,-0.997 2.614,-1.142c0.958,-0.145 1.938,-0.036 2.84,0.315c0.902,0.352 1.694,0.934 2.295,1.687c1.008,1.361 0.976,3.248 0.946,5.035c-0.005,0.299 -0.01,0.596 -0.01,0.887l0,11.916c-0.001,0.091 -0.022,0.181 -0.059,0.265c-0.037,0.083 -0.09,0.159 -0.156,0.222c-0.067,0.063 -0.145,0.112 -0.231,0.146c-0.086,0.033 -0.177,0.049 -0.269,0.047l-3.711,-0c-0.177,-0.008 -0.345,-0.082 -0.469,-0.209c-0.124,-0.126 -0.195,-0.295 -0.198,-0.471l0,-10.023c0,-0.151 0.003,-0.344 0.006,-0.563c0.011,-0.94 0.029,-2.361 -0.111,-2.975c-0.277,-1.27 -1.124,-1.63 -2.184,-1.63c-0.483,0.015 -0.95,0.17 -1.345,0.446c-0.394,0.276 -0.698,0.661 -0.874,1.106c-0.35,0.89 -0.347,2.329 -0.345,3.392l0,0.224l0,10.023c-0.002,0.091 -0.022,0.181 -0.059,0.265c-0.037,0.083 -0.09,0.159 -0.157,0.222c-0.066,0.063 -0.144,0.112 -0.23,0.146c-0.086,0.033 -0.178,0.049 -0.27,0.047l-3.71,-0c-0.177,-0.008 -0.346,-0.082 -0.47,-0.209c-0.124,-0.126 -0.194,-0.295 -0.197,-0.471l0,-10.023c0,-0.213 0.004,-0.436 0.007,-0.665c0.032,-2.036 0.072,-4.533 -2.297,-4.533c-2.567,0 -2.565,2.867 -2.563,5.03l-0,10.191c-0.004,0.183 -0.081,0.357 -0.213,0.484c-0.133,0.127 -0.311,0.198 -0.495,0.196Z" style="fill:#808080;fill-rule:nonzero;"/><path d="M69.419,3.936l-0,-2.706c-0.003,-0.09 0.012,-0.181 0.046,-0.265c0.033,-0.084 0.084,-0.161 0.149,-0.225c0.064,-0.064 0.142,-0.114 0.227,-0.147c0.085,-0.034 0.176,-0.049 0.267,-0.046l12.203,-0c0.092,-0.004 0.184,0.012 0.271,0.044c0.086,0.033 0.164,0.083 0.23,0.147c0.066,0.064 0.118,0.141 0.153,0.225c0.035,0.085 0.052,0.176 0.051,0.267l-0,2.313c-0,0.371 -0.334,0.895 -0.918,1.696l-6.308,8.955c2.346,-0.056 4.827,0.293 6.963,1.485c0.191,0.104 0.351,0.255 0.464,0.44c0.114,0.184 0.176,0.395 0.181,0.61l-0,2.881c0.003,0.108 -0.021,0.214 -0.07,0.31c-0.049,0.096 -0.121,0.179 -0.211,0.24c-0.089,0.061 -0.193,0.099 -0.301,0.111c-0.108,0.012 -0.217,-0.004 -0.317,-0.045c-1.996,-1.016 -4.208,-1.544 -6.451,-1.54c-2.244,0.004 -4.454,0.54 -6.446,1.563c-0.427,0.226 -0.869,-0.227 -0.869,-0.624l-0,-2.736c-0.039,-0.65 0.119,-1.296 0.453,-1.856l7.327,-10.414l-6.371,0c-0.094,0.007 -0.188,-0.007 -0.276,-0.038c-0.088,-0.032 -0.169,-0.081 -0.237,-0.146c-0.068,-0.064 -0.122,-0.141 -0.158,-0.227c-0.036,-0.086 -0.054,-0.179 -0.052,-0.272Z" style="fill:#808080;fill-rule:nonzero;"/><path d="M102.02,10.856c-0,-5.958 -2.983,-10.647 -8.496,-10.647c-5.366,0 -8.353,4.611 -8.353,10.451c-0,5.839 2.945,10.528 8.353,10.528c5.202,-0 8.496,-4.57 8.496,-10.332Zm-11.37,-0.794c-0,-2.306 0.172,-5.999 2.908,-5.999c1.18,-0 2.012,0.508 2.428,1.826c0.488,1.511 0.555,3.419 0.555,5.008c-0,2.424 -0.105,6.397 -3.017,6.397c-2.876,-0 -2.875,-4.806 -2.874,-7.145l-0,-0.087Z" style="fill:#808080;"/><path d="M109.167,20.791l-3.699,-0c-0.177,-0.009 -0.345,-0.084 -0.469,-0.21c-0.124,-0.126 -0.195,-0.294 -0.198,-0.47l-0,-18.888c0.021,-0.173 0.106,-0.331 0.238,-0.445c0.132,-0.113 0.303,-0.175 0.478,-0.172l3.444,0c0.153,0.005 0.3,0.059 0.419,0.154c0.119,0.095 0.204,0.226 0.24,0.374l-0,2.888l0.072,-0c1.038,-2.599 2.496,-3.813 5.059,-3.813c1.664,0 3.294,0.594 4.336,2.228c0.971,1.511 0.971,4.053 0.971,5.88l-0,11.88c-0.026,0.168 -0.112,0.32 -0.243,0.43c-0.131,0.109 -0.298,0.167 -0.469,0.164l-3.726,-0c-0.162,-0.009 -0.316,-0.073 -0.436,-0.181c-0.121,-0.108 -0.199,-0.254 -0.223,-0.413l-0,-10.254c-0,-0.161 0.001,-0.327 0.003,-0.497l-0,-0.002c0.018,-2.021 0.04,-4.587 -2.327,-4.587c-0.467,0.02 -0.918,0.173 -1.299,0.442c-0.381,0.268 -0.675,0.639 -0.848,1.069c-0.521,1.151 -0.592,2.302 -0.592,3.575l-0,10.168c-0.003,0.092 -0.024,0.183 -0.063,0.267c-0.038,0.084 -0.093,0.16 -0.161,0.223c-0.067,0.063 -0.147,0.112 -0.234,0.145c-0.087,0.032 -0.18,0.048 -0.273,0.045Z" style="fill:#808080;fill-rule:nonzero;"/><path d="M77.397,24.759c-0.891,-1.132 -5.895,-0.538 -8.143,-0.271c-0.679,0.082 -0.787,-0.508 -0.173,-0.935c3.992,-2.777 10.531,-1.975 11.293,-1.043c0.76,0.931 -0.203,7.424 -3.943,10.532c-0.574,0.475 -1.125,0.222 -0.866,-0.409c0.839,-2.075 2.724,-6.741 1.832,-7.874Z" style="fill:#808080;fill-rule:nonzero;"/><path d="M74.497,28.041c-6.975,5.097 -17.082,7.796 -25.784,7.796c-11.63,0.058 -22.863,-4.186 -31.499,-11.902c-0.652,-0.586 -0.071,-1.385 0.716,-0.932c9.594,5.442 20.458,8.302 31.514,8.298c8.258,-0.04 16.427,-1.697 24.037,-4.875c1.184,-0.494 2.166,0.769 1.016,1.615Z" style="fill:#808080;fill-rule:nonzero;"/></g></svg>