<?xml version="1.0" encoding="UTF-8" standalone="no"?><!DOCTYPE svg PUBLIC "-//W3C//DTD SVG 1.1//EN" "http://www.w3.org/Graphics/SVG/1.1/DTD/svg11.dtd"><svg width="100%" height="100%" viewBox="0 0 114 31" version="1.1" xmlns="http://www.w3.org/2000/svg" xmlns:xlink="http://www.w3.org/1999/xlink" xml:space="preserve" xmlns:serif="http://www.serif.com/" style="fill-rule:evenodd;clip-rule:evenodd;stroke-linejoin:round;stroke-miterlimit:2;"><g id="DeRoyal"><path d="M27.648,0.006c0.027,0.086 0.098,0.042 0.148,0.044c0.722,0.027 1.423,0.148 2.103,0.399c0.474,0.177 0.881,0.443 1.193,0.836c0.146,0.185 0.246,0.404 0.298,0.637c0.137,0.613 0.035,1.2 -0.219,1.765c-0.241,0.539 -0.567,1.025 -0.933,1.489c-0.354,0.447 -0.726,0.878 -1.134,1.277c-0.112,0.11 -0.189,0.252 -0.312,0.352c-0.322,0.262 -0.597,0.574 -0.904,0.85c-0.398,0.36 -0.799,0.716 -1.211,1.059c-0.468,0.389 -0.952,0.755 -1.424,1.139c-0.516,0.423 -1.053,0.814 -1.583,1.215c-0.351,0.268 -0.713,0.522 -1.075,0.776c-0.763,0.534 -1.531,1.064 -2.306,1.58c-0.755,0.501 -1.512,1 -2.28,1.487c-0.511,0.322 -1.021,0.647 -1.534,0.963c-0.508,0.312 -1.017,0.622 -1.527,0.93c-0.426,0.257 -0.853,0.515 -1.283,0.767c-0.366,0.214 -0.738,0.416 -1.106,0.626c-0.448,0.256 -0.891,0.516 -1.338,0.769c-0.347,0.196 -0.7,0.383 -1.052,0.574c-0.589,0.321 -1.173,0.645 -1.763,0.959c-0.807,0.428 -1.621,0.844 -2.427,1.273c-1.007,0.536 -2.036,1.033 -3.06,1.539c-0.445,0.22 -0.892,0.436 -1.341,0.651c-0.447,0.212 -0.902,0.413 -1.352,0.624c-0.058,0.027 -0.068,0.018 -0.068,-0.038c-0,-0.175 -0.046,-0.366 0.014,-0.518c0.061,-0.154 0.277,-0.176 0.424,-0.253c0.527,-0.279 1.061,-0.541 1.587,-0.82c0.672,-0.353 1.34,-0.715 2.005,-1.079c0.601,-0.329 1.202,-0.659 1.797,-0.998c0.561,-0.319 1.11,-0.658 1.672,-0.974c0.576,-0.324 1.139,-0.669 1.705,-1.012c0.516,-0.312 1.032,-0.631 1.543,-0.951c0.666,-0.416 1.331,-0.828 1.988,-1.256c0.597,-0.389 1.182,-0.794 1.768,-1.196c0.331,-0.226 0.659,-0.455 0.99,-0.682c0.595,-0.407 1.181,-0.825 1.755,-1.262c0.451,-0.341 0.911,-0.672 1.356,-1.019c0.402,-0.314 0.786,-0.653 1.188,-0.967c0.416,-0.327 0.807,-0.678 1.206,-1.023c0.538,-0.468 1.048,-0.967 1.541,-1.483c0.584,-0.614 1.135,-1.256 1.591,-1.976c0.241,-0.38 0.443,-0.782 0.545,-1.216c0.126,-0.549 0.147,-1.105 -0.129,-1.629c-0.181,-0.343 -0.452,-0.599 -0.776,-0.807c-0.433,-0.278 -0.913,-0.42 -1.404,-0.53c-0.237,-0.054 -0.482,-0.081 -0.724,-0.112c-0.28,-0.038 -0.561,-0.013 -0.838,-0.052c-0.205,-0.029 -0.411,-0.05 -0.613,-0.029c-0.362,0.035 -0.726,0.022 -1.088,0.049c-0.335,0.025 -0.669,0.059 -1,0.102c-0.281,0.038 -0.566,0.057 -0.842,0.129c-0.125,0.034 -0.258,0.031 -0.387,0.052c-0.433,0.069 -0.859,0.169 -1.292,0.244c-0.576,0.099 -1.143,0.241 -1.711,0.374c-0.462,0.11 -0.921,0.245 -1.381,0.37c-0.765,0.208 -1.524,0.437 -2.279,0.676c-0.88,0.279 -1.747,0.595 -2.616,0.903c-0.795,0.282 -1.579,0.59 -2.361,0.904c-0.715,0.287 -1.426,0.583 -2.136,0.888c-0.619,0.269 -1.237,0.537 -1.848,0.826c-0.383,0.181 -0.77,0.353 -1.153,0.532c-0.058,0.027 -0.093,0.027 -0.097,-0.048l-0,-0.025c-0.01,-0.187 0.069,-0.321 0.237,-0.403c0.513,-0.25 1.023,-0.503 1.541,-0.742c0.782,-0.362 1.568,-0.72 2.356,-1.067c0.811,-0.358 1.624,-0.707 2.441,-1.046c0.959,-0.398 1.914,-0.803 2.887,-1.167c0.886,-0.333 1.774,-0.661 2.668,-0.975c0.969,-0.339 1.943,-0.668 2.922,-0.98c0.838,-0.268 1.687,-0.509 2.535,-0.749c0.576,-0.162 1.159,-0.303 1.739,-0.451c0.314,-0.079 0.628,-0.158 0.944,-0.229c0.268,-0.062 0.539,-0.114 0.809,-0.17c0.38,-0.079 0.761,-0.158 1.144,-0.233c0.127,-0.025 0.258,-0.037 0.384,-0.062c0.296,-0.057 0.593,-0.102 0.891,-0.142c0.176,-0.023 0.353,-0.081 0.536,-0.062c0.119,0.012 0.218,-0.061 0.339,-0.052c0.104,0.006 0.216,0.023 0.314,-0.04c0.019,-0.012 0.048,-0.004 0.073,-0.004c0.355,0 0.705,-0.079 1.063,-0.056c0.041,0.002 0.101,0.027 0.122,-0.044l1.547,0l-0.002,0Z" style="fill:#808080;fill-rule:nonzero;"/><path d="M59.924,16.531c0,-1.867 0.007,-3.737 -0.006,-5.605c-0.002,-0.347 -0.031,-0.696 -0.133,-1.039c-0.162,-0.539 -0.528,-0.813 -1.067,-0.917c-0.372,-0.073 -0.742,-0.036 -1.112,-0.044c-0.279,-0.006 -0.273,-0.011 -0.269,-0.279c0.002,-0.247 0.013,-0.262 0.266,-0.264c0.233,-0.002 0.466,0.002 0.699,-0.006c0.395,-0.015 0.793,-0.035 1.186,-0.063c0.27,-0.018 0.542,-0.01 0.813,-0.041c0.387,-0.044 0.778,-0.015 1.16,-0.056c0.58,-0.063 1.159,-0.027 1.737,-0.038c0.582,-0.008 1.164,0.004 1.745,0c0.133,0 0.253,0.061 0.388,0.05c0.129,-0.008 0.258,0 0.389,0.038c0.14,0.037 0.289,0.031 0.437,0.052c0.37,0.056 0.734,0.133 1.096,0.226c0.52,0.133 1.021,0.323 1.495,0.576c0.341,0.183 0.655,0.4 0.951,0.653c0.289,0.25 0.528,0.537 0.738,0.851c0.252,0.374 0.41,0.79 0.52,1.227c0.114,0.462 0.137,0.932 0.089,1.397c-0.062,0.608 -0.241,1.186 -0.561,1.72c-0.258,0.433 -0.58,0.805 -0.957,1.125c-0.507,0.431 -1.094,0.739 -1.726,0.951c-0.039,0.012 -0.077,0.023 -0.114,0.041c-0.094,0.046 -0.094,0.048 -0.013,0.117c0.258,0.218 0.518,0.434 0.774,0.655c1.377,1.189 2.608,2.529 3.903,3.801c0.325,0.321 0.656,0.635 0.996,0.936c0.487,0.429 1.013,0.805 1.577,1.127c0.461,0.265 0.944,0.468 1.453,0.614c0.281,0.081 0.562,0.158 0.855,0.185c0.042,0.004 0.08,0.01 0.119,0.029c0.068,0.031 0.143,0.027 0.216,0.008c-0.033,-0.066 -0.106,-0.072 -0.16,-0.101c-0.418,-0.227 -0.809,-0.493 -1.175,-0.801c-0.493,-0.416 -0.871,-0.917 -1.177,-1.472c-0.25,-0.454 -0.408,-0.949 -0.518,-1.46c-0.12,-0.566 -0.094,-1.132 -0.083,-1.699c0.004,-0.219 0.05,-0.437 0.1,-0.651c0.114,-0.474 0.259,-0.936 0.491,-1.369c0.162,-0.303 0.349,-0.59 0.567,-0.859c0.111,-0.135 0.225,-0.264 0.347,-0.386c0.418,-0.427 0.901,-0.76 1.429,-1.038c0.507,-0.266 1.048,-0.439 1.603,-0.558c0.182,-0.037 0.375,-0.052 0.56,-0.074c0.206,-0.025 0.41,-0.034 0.613,-0.036c0.412,-0.004 0.812,0.069 1.215,0.142c0.921,0.166 1.735,0.567 2.45,1.15c0.478,0.389 0.881,0.859 1.202,1.399c0.293,0.495 0.489,1.028 0.626,1.577c0.073,0.289 0.133,0.59 0.118,0.896c-0.008,0.175 -0.004,0.349 0,0.522c0.017,0.545 -0.091,1.071 -0.255,1.587c-0.152,0.476 -0.364,0.921 -0.645,1.335c-0.308,0.453 -0.676,0.846 -1.102,1.196c-0.551,0.451 -1.171,0.769 -1.847,0.979c-0.279,0.085 -0.564,0.148 -0.855,0.192c-0.197,0.029 -0.393,0.035 -0.588,0.043c-0.056,0.002 -0.113,0 -0.169,0.027c-0.05,0.023 -0.119,0.031 -0.168,0.013c-0.162,-0.061 -0.326,-0.031 -0.491,-0.042c-0.366,-0.023 -0.728,-0.081 -1.082,-0.183c-0.21,-0.06 -0.425,-0.1 -0.621,-0.206c-0.075,-0.039 -0.109,-0.004 -0.118,0.092c-0.009,0.095 0.049,0.222 -0.032,0.28c-0.06,0.044 -0.174,0.023 -0.266,0.017c-0.306,-0.023 -0.607,0.077 -0.911,0.042c-0.378,-0.044 -0.759,-0.021 -1.136,-0.05c-0.38,-0.029 -0.765,-0.071 -1.139,-0.152c-0.481,-0.104 -0.959,-0.233 -1.412,-0.437c-0.535,-0.237 -1.023,-0.543 -1.479,-0.906c-0.219,-0.175 -0.434,-0.354 -0.64,-0.543c-1.152,-1.055 -2.213,-2.201 -3.338,-3.282c-0.41,-0.395 -0.834,-0.776 -1.271,-1.14c-0.254,-0.21 -0.522,-0.399 -0.776,-0.609c-0.162,-0.133 -0.332,-0.197 -0.542,-0.116c-0.05,0.02 -0.115,0.012 -0.171,0.012c-0.715,0 -1.431,0.004 -2.144,0.004c-0.106,0 -0.21,-0.008 -0.314,-0.039c-0.129,-0.04 -0.183,0.016 -0.187,0.149l-0,0.125c-0,1.337 -0.013,2.675 0.008,4.012c0.006,0.387 0.011,0.784 0.139,1.16c0.163,0.47 0.487,0.759 0.972,0.874c0.255,0.06 0.511,0.104 0.775,0.1c0.25,-0.005 0.499,-0 0.749,-0.003c0.075,0 0.106,0.025 0.098,0.1c-0.015,0.129 0.029,0.262 -0.023,0.391c-0.114,0.004 -0.231,0.011 -0.345,0.011l-6.909,-0c-0.235,-0 -0.202,0.018 -0.199,-0.196c-0,-0.095 -0.05,-0.222 0.027,-0.283c0.058,-0.045 0.174,-0.018 0.264,-0.02c0.174,-0.003 0.349,-0 0.524,-0c0.278,-0.005 0.549,-0.059 0.813,-0.144c0.378,-0.125 0.622,-0.378 0.761,-0.742c0.087,-0.229 0.127,-0.466 0.152,-0.712c0.081,-0.752 0.031,-1.505 0.039,-2.256c0.011,-0.755 0,-1.512 0,-2.267l0,-1.62l0.002,-0.002Zm19.726,-1.832c-0.306,-0.033 -0.712,0.089 -1.079,0.274c-0.533,0.267 -0.978,0.651 -1.329,1.144c-0.568,0.797 -0.826,1.689 -0.845,2.654c-0.006,0.351 0.044,0.701 0.085,1.05c0.032,0.268 0.09,0.528 0.146,0.788c0.081,0.364 0.204,0.714 0.349,1.059c0.312,0.74 0.73,1.404 1.348,1.93c0.52,0.443 1.085,0.775 1.786,0.832c0.31,0.108 0.626,0.045 0.923,-0.019c0.483,-0.104 0.916,-0.343 1.29,-0.664c0.474,-0.405 0.832,-0.898 1.088,-1.472c0.262,-0.591 0.359,-1.21 0.405,-1.845c0.019,-0.253 -0.016,-0.507 -0.031,-0.761c-0.023,-0.384 -0.087,-0.765 -0.177,-1.133c-0.143,-0.591 -0.362,-1.156 -0.68,-1.685c-0.357,-0.599 -0.782,-1.129 -1.358,-1.537c-0.542,-0.384 -1.133,-0.598 -1.921,-0.613l-0,-0.002Zm-17.573,-5.715l-0,8.171c-0,0.189 0.01,0.204 0.193,0.237c0.048,0.008 0.1,0.006 0.15,0.004c0.761,-0.014 1.522,0.044 2.283,-0.041c0.26,-0.03 0.524,-0.057 0.772,-0.121c0.576,-0.146 1.127,-0.351 1.616,-0.717c0.416,-0.312 0.74,-0.689 0.981,-1.144c0.317,-0.601 0.47,-1.244 0.487,-1.92c0.015,-0.649 0.027,-1.297 -0.148,-1.934c-0.164,-0.603 -0.438,-1.14 -0.875,-1.587c-0.341,-0.351 -0.755,-0.609 -1.202,-0.792c-0.697,-0.285 -1.437,-0.414 -2.184,-0.455c-0.563,-0.032 -1.129,-0.005 -1.695,-0.011c-0.11,0 -0.206,0.052 -0.314,0.052c-0.054,0 -0.066,0.036 -0.064,0.083c0.002,0.059 -0,0.117 -0,0.175Z" style="fill:#808080;fill-rule:nonzero;"/><path d="M32.937,16.625l-0,-5.929c-0,-0.312 -0.05,-0.616 -0.146,-0.913c-0.151,-0.472 -0.501,-0.703 -0.96,-0.807c-0.385,-0.088 -0.774,-0.05 -1.161,-0.052c-0.276,-0.002 -0.272,-0 -0.274,-0.273c-0.002,-0.307 0.035,-0.276 0.278,-0.27c0.547,0.015 1.09,-0.05 1.635,-0.065c0.495,-0.012 0.994,-0.006 1.485,-0.049c0.53,-0.048 1.06,0.002 1.587,-0.048c0.669,-0.063 1.339,-0.029 2.008,-0.04c0.666,-0.008 1.331,0.002 1.995,-0.002c0.306,-0.002 0.607,0.048 0.911,0.065c0.258,0.012 0.52,0.045 0.775,0.093c0.31,0.058 0.622,0.113 0.932,0.177c0.501,0.106 0.992,0.239 1.47,0.414c0.87,0.318 1.695,0.721 2.423,1.302c0.252,0.201 0.505,0.399 0.724,0.634c0.522,0.559 0.973,1.171 1.291,1.872c0.198,0.436 0.36,0.886 0.475,1.349c0.054,0.219 0.087,0.445 0.124,0.67c0.086,0.505 0.1,1.013 0.094,1.522c-0.004,0.312 -0.054,0.618 -0.092,0.926c-0.068,0.567 -0.216,1.11 -0.405,1.647c-0.204,0.576 -0.472,1.123 -0.788,1.647c-0.46,0.763 -1.053,1.416 -1.716,2.003c-0.453,0.401 -0.955,0.74 -1.491,1.031c-0.524,0.285 -1.067,0.518 -1.633,0.703c-0.453,0.15 -0.917,0.26 -1.389,0.343c-0.378,0.067 -0.759,0.104 -1.14,0.152c-0.521,0.066 -1.041,0.037 -1.561,0.037c-2.577,0.007 -5.154,0.002 -7.732,0.002c-0.175,0 -0.262,-0.086 -0.262,-0.26c-0,-0.173 0.077,-0.252 0.232,-0.239l0.549,0c0.29,0 0.566,-0.054 0.839,-0.149c0.497,-0.171 0.757,-0.539 0.871,-1.034c0.052,-0.229 0.05,-0.457 0.05,-0.686l-0,-5.78l0.002,0.007Zm2.196,-7.572l0,13.95c0,0.148 0.017,0.291 0.038,0.439c0.051,0.374 0.264,0.574 0.607,0.688c0.299,0.098 0.607,0.135 0.915,0.139c0.794,0.013 1.589,0.021 2.383,-0.039c0.229,-0.017 0.46,-0.04 0.686,-0.069c0.327,-0.043 0.657,-0.093 0.98,-0.176c0.41,-0.104 0.811,-0.221 1.198,-0.398c0.495,-0.226 0.948,-0.513 1.362,-0.865c0.399,-0.337 0.773,-0.696 1.102,-1.104c0.595,-0.738 1.013,-1.572 1.302,-2.471c0.11,-0.339 0.189,-0.684 0.26,-1.035c0.06,-0.304 0.12,-0.612 0.131,-0.915c0.029,-0.847 0.044,-1.695 -0.135,-2.533c-0.069,-0.325 -0.14,-0.647 -0.239,-0.965c-0.165,-0.529 -0.375,-1.036 -0.656,-1.516c-0.253,-0.435 -0.54,-0.841 -0.881,-1.209c-0.185,-0.199 -0.387,-0.382 -0.595,-0.561c-0.485,-0.412 -1.027,-0.734 -1.61,-0.973c-0.773,-0.321 -1.58,-0.529 -2.416,-0.622c-0.137,-0.015 -0.281,-0.015 -0.412,-0.048c-0.164,-0.042 -0.326,-0.046 -0.489,-0.04c-0.174,0.007 -0.337,-0.058 -0.513,-0.054c-0.753,0.027 -1.508,-0.043 -2.259,0.046c-0.22,0.025 -0.443,-0.002 -0.663,0.05c-0.071,0.017 -0.102,0.033 -0.096,0.106c0.004,0.058 0,0.116 0,0.175Z" style="fill:#808080;fill-rule:nonzero;"/><path d="M86.879,14.356l2.493,-0c0.138,-0 0.14,0.002 0.142,0.129l-0,0.199c-0.002,0.102 -0.048,0.154 -0.162,0.165c-0.117,0.008 -0.234,-0 -0.35,0.008c-0.22,0.015 -0.434,0.056 -0.636,0.148c-0.325,0.149 -0.41,0.372 -0.361,0.732c0.05,0.357 0.225,0.659 0.367,0.975c0.345,0.763 0.707,1.518 1.06,2.277c0.2,0.427 0.394,0.857 0.593,1.283c0.318,0.687 0.637,1.371 0.955,2.057c0.062,0.133 0.122,0.266 0.178,0.399c0.017,0.042 0.042,0.069 0.08,0.092c0.018,-0.038 0.039,-0.073 0.054,-0.11c0.33,-0.826 0.657,-1.654 0.99,-2.479c0.403,-1.007 0.817,-2.011 1.214,-3.02c0.118,-0.299 0.2,-0.615 0.289,-0.925c0.065,-0.219 0.081,-0.566 0.013,-0.77c-0.056,-0.166 -0.144,-0.322 -0.314,-0.42c-0.271,-0.154 -0.558,-0.222 -0.864,-0.239c-0.066,-0.004 -0.132,-0.002 -0.199,-0.004c-0.208,-0.006 -0.21,-0.008 -0.212,-0.208c-0.003,-0.191 0.092,-0.287 0.285,-0.287l4.015,-0c0.059,-0 0.096,0.017 0.09,0.085c-0.005,0.05 -0,0.1 -0,0.15c-0,0.224 -0.002,0.216 -0.233,0.268c-0.51,0.119 -0.929,0.379 -1.262,0.792c-0.385,0.479 -0.614,1.034 -0.843,1.591c-0.187,0.458 -0.366,0.92 -0.549,1.377c-0.334,0.842 -0.667,1.685 -1.004,2.527c-0.242,0.601 -0.493,1.198 -0.732,1.799c-0.324,0.811 -0.641,1.628 -0.967,2.439c-0.287,0.716 -0.589,1.423 -0.871,2.14c-0.196,0.497 -0.398,0.994 -0.62,1.481c-0.183,0.401 -0.385,0.794 -0.651,1.146c-0.245,0.322 -0.52,0.624 -0.94,0.719c-0.399,0.092 -0.786,0.052 -1.117,-0.214c-0.225,-0.181 -0.302,-0.433 -0.293,-0.724c0.006,-0.274 0.135,-0.47 0.343,-0.619c0.092,-0.067 0.197,-0.121 0.305,-0.152c0.234,-0.067 0.463,-0.148 0.697,-0.214c0.356,-0.1 0.697,-0.242 0.938,-0.545c0.143,-0.179 0.258,-0.377 0.381,-0.57c0.295,-0.464 0.47,-0.98 0.68,-1.481c0.156,-0.372 0.295,-0.753 0.453,-1.125c0.05,-0.116 0.056,-0.21 -0,-0.324c-0.252,-0.518 -0.499,-1.04 -0.744,-1.562c-0.302,-0.641 -0.601,-1.281 -0.903,-1.922c-0.26,-0.551 -0.524,-1.102 -0.784,-1.653c-0.277,-0.589 -0.555,-1.177 -0.827,-1.766c-0.319,-0.686 -0.63,-1.376 -0.982,-2.046c-0.21,-0.399 -0.479,-0.747 -0.907,-0.934c-0.216,-0.093 -0.439,-0.17 -0.682,-0.166c-0.05,-0 -0.1,0.002 -0.15,-0.004c-0.062,-0.009 -0.106,-0.042 -0.11,-0.113l0,-0.049c-0.01,-0.222 0.095,-0.333 0.314,-0.333l2.344,-0l-0.004,-0Z" style="fill:#808080;fill-rule:nonzero;"/><path d="M103.033,19.528c-0,1.152 -0.004,2.115 0.002,3.078c0,0.26 0.04,0.52 0.096,0.775c0.06,0.275 0.226,0.437 0.549,0.452c0.393,0.016 0.717,-0.127 1.021,-0.352c0.052,-0.039 0.109,-0.073 0.161,-0.112c0.149,-0.119 0.149,-0.119 0.212,0.071c0.01,0.031 0.012,0.064 0.029,0.091c0.047,0.081 0.016,0.142 -0.048,0.191c-0.15,0.117 -0.295,0.238 -0.448,0.348c-0.384,0.276 -0.767,0.553 -1.195,0.765c-0.275,0.135 -0.553,0.25 -0.853,0.266c-0.202,0.011 -0.43,-0.014 -0.605,-0.143c-0.206,-0.152 -0.387,-0.335 -0.47,-0.591c-0.081,-0.247 -0.156,-0.497 -0.154,-0.761c0,-0.023 -0.008,-0.054 -0.025,-0.064c-0.031,-0.021 -0.058,0.004 -0.085,0.027c-0.397,0.343 -0.815,0.661 -1.254,0.95c-0.293,0.193 -0.595,0.372 -0.932,0.478c-0.147,0.046 -0.298,0.088 -0.455,0.081c-0.073,-0.002 -0.146,-0.012 -0.216,0.032c-0.03,0.018 -0.086,0.02 -0.121,0.006c-0.21,-0.085 -0.435,-0.029 -0.656,-0.079c-0.249,-0.058 -0.482,-0.135 -0.711,-0.246c-0.552,-0.27 -0.888,-0.725 -1.02,-1.308c-0.128,-0.555 -0.084,-1.017 0.187,-1.543c0.164,-0.32 0.415,-0.563 0.717,-0.757c0.526,-0.339 1.104,-0.54 1.705,-0.699c0.651,-0.17 1.296,-0.355 1.905,-0.65c0.256,-0.125 0.499,-0.275 0.759,-0.394c0.111,-0.049 0.154,-0.126 0.154,-0.251c-0.006,-0.705 -0.002,-1.412 -0.002,-2.117c-0.089,-0.298 0.004,-0.618 -0.135,-0.915c-0.066,-0.14 -0.125,-0.285 -0.214,-0.408c-0.292,-0.399 -0.655,-0.697 -1.14,-0.846c-0.486,-0.15 -0.93,-0.054 -1.352,0.191c-0.228,0.133 -0.414,0.322 -0.565,0.545c-0.179,0.262 -0.246,0.528 -0.1,0.826c0.017,0.035 0.013,0.083 0.033,0.116c0.036,0.056 0.004,0.058 -0.037,0.077c-0.552,0.264 -1.103,0.528 -1.648,0.801c-0.078,0.039 -0.074,-0.009 -0.095,-0.044c-0.144,-0.252 -0.046,-0.487 0.05,-0.722c0.099,-0.245 0.251,-0.459 0.422,-0.657c0.14,-0.162 0.266,-0.337 0.426,-0.482c0.518,-0.472 1.063,-0.905 1.707,-1.188c0.281,-0.122 0.573,-0.214 0.883,-0.268c0.349,-0.06 0.678,-0.011 1.016,0.052c0.508,0.094 0.959,0.301 1.377,0.595c0.425,0.299 0.759,0.671 0.971,1.148c0.063,0.141 0.092,0.291 0.106,0.447c0.11,1.125 0.006,2.252 0.048,3.188Zm-1.751,0.665c0,-0.075 -0.002,-0.149 0,-0.224c0.004,-0.102 -0.045,-0.052 -0.085,-0.034c-0.038,0.017 -0.075,0.034 -0.11,0.052c-0.662,0.352 -1.358,0.622 -2.049,0.907c-0.354,0.146 -0.699,0.316 -1.008,0.543c-0.184,0.133 -0.333,0.302 -0.416,0.512c-0.231,0.586 -0.156,1.297 0.338,1.767c0.481,0.458 1.028,0.578 1.648,0.35c0.135,-0.05 0.26,-0.138 0.385,-0.212c0.413,-0.248 0.817,-0.51 1.208,-0.793c0.074,-0.054 0.089,-0.104 0.089,-0.179l0,-2.689Z" style="fill:#808080;fill-rule:nonzero;"/><path d="M108.873,15.036l-0,7.699c-0,0.239 0.033,0.48 0.11,0.696c0.152,0.423 0.449,0.705 0.915,0.799c0.281,0.056 0.56,0.035 0.838,0.044c0.125,0.004 0.127,0.004 0.129,0.116c0,0.1 -0.002,0.2 0,0.299c0.002,0.067 -0.029,0.088 -0.089,0.084c-0.05,-0.002 -0.1,-0 -0.15,-0l-5.638,-0c-0.039,-0 -0.06,-0.019 -0.06,-0.061l-0,-0.025c0.008,-0.131 -0.052,-0.293 0.025,-0.384c0.07,-0.083 0.235,-0.023 0.355,-0.029c0.302,-0.017 0.602,-0.052 0.888,-0.152c0.52,-0.181 0.803,-0.549 0.884,-1.098c0.052,-0.356 0.042,-0.707 0.042,-1.061c0.002,-4.07 -0,-8.14 -0,-12.209c-0,-0.156 -0.005,-0.308 -0.044,-0.464c-0.081,-0.323 -0.241,-0.479 -0.568,-0.514c-0.333,-0.037 -0.665,-0.098 -1,-0.102c-0.069,0 -0.121,-0.043 -0.189,-0.048c-0.197,-0.01 -0.197,-0.014 -0.197,-0.222c-0,-0.237 -0,-0.239 0.213,-0.31c0.77,-0.252 1.537,-0.507 2.311,-0.747c0.216,-0.066 0.435,-0.129 0.647,-0.208c0.045,-0.016 0.093,-0.025 0.139,-0.037c0.135,-0.037 0.277,-0.027 0.416,-0.006c0.042,0.102 0.021,0.21 0.021,0.316l-0,7.624l0.002,-0Z" style="fill:#808080;fill-rule:nonzero;"/><path d="M54.684,18.095l-3.567,-0c-0.058,-0 -0.116,-0.002 -0.175,-0c-0.101,0.004 -0.135,0.031 -0.139,0.131c-0.014,0.304 -0.079,0.603 -0.06,0.911c0.01,0.183 0.004,0.366 0.006,0.547c0.004,0.27 0.065,0.532 0.125,0.794c0.091,0.397 0.241,0.774 0.432,1.134c0.344,0.644 0.822,1.164 1.433,1.566c0.4,0.262 0.834,0.438 1.298,0.54c0.366,0.081 0.74,0.079 1.11,0.048c0.456,-0.037 0.897,-0.158 1.306,-0.358c0.265,-0.129 0.512,-0.289 0.745,-0.474c0.241,-0.191 0.46,-0.405 0.674,-0.624c0.039,-0.041 0.075,-0.087 0.11,-0.133c0.089,-0.118 0.112,-0.122 0.2,-0.016c0.062,0.075 0.162,0.151 0.17,0.235c0.009,0.085 -0.116,0.145 -0.177,0.218c-0.503,0.605 -1.075,1.136 -1.73,1.578c-0.58,0.391 -1.212,0.662 -1.89,0.818c-0.173,0.039 -0.352,0.081 -0.537,0.064c-0.087,-0.008 -0.183,-0.023 -0.264,0.04c-0.01,0.008 -0.035,0.006 -0.048,-0c-0.226,-0.09 -0.47,-0.025 -0.705,-0.079c-0.22,-0.05 -0.443,-0.092 -0.659,-0.163c-0.447,-0.147 -0.853,-0.368 -1.221,-0.655c-0.732,-0.567 -1.239,-1.297 -1.58,-2.154c-0.156,-0.395 -0.26,-0.799 -0.345,-1.213c-0.117,-0.563 -0.113,-1.131 -0.084,-1.697c0.023,-0.417 0.117,-0.833 0.235,-1.239c0.181,-0.613 0.445,-1.187 0.805,-1.714c0.437,-0.64 0.986,-1.168 1.672,-1.541c0.46,-0.249 0.942,-0.422 1.462,-0.511c0.433,-0.075 0.867,-0.117 1.3,-0.079c0.46,0.039 0.919,0.102 1.352,0.283c0.349,0.145 0.676,0.316 0.958,0.58c0.473,0.441 0.784,0.981 1.04,1.564c0.146,0.326 0.289,0.659 0.541,0.927c0.037,0.04 0.054,0.079 0.052,0.133c-0.008,0.173 0.017,0.348 -0.013,0.52c-0.162,0.046 -0.328,0.019 -0.49,0.019c-1.115,0.002 -2.228,-0 -3.342,-0Zm-1.119,-0.697l2.666,0c0.039,0 0.06,-0.021 0.058,-0.06c-0.004,-0.056 0,-0.116 -0.019,-0.171c-0.076,-0.239 -0.133,-0.48 -0.224,-0.715c-0.21,-0.551 -0.539,-1.013 -0.984,-1.389c-0.168,-0.142 -0.357,-0.262 -0.561,-0.345c-0.416,-0.169 -0.94,-0.212 -1.371,-0.098c-0.59,0.158 -1.069,0.495 -1.429,0.986c-0.378,0.517 -0.613,1.104 -0.767,1.726c-0.014,0.056 -0.014,0.068 0.04,0.07l2.591,0l-0,-0.004Z" style="fill:#808080;fill-rule:nonzero;"/><path d="M112.314,6.678c0.206,-0.029 0.414,0.045 0.618,0.125c0.125,0.047 0.24,0.126 0.341,0.216c0.152,0.135 0.291,0.281 0.383,0.466c0.071,0.141 0.125,0.287 0.144,0.445c0.012,0.091 0.033,0.183 0.028,0.278c-0.016,0.333 -0.108,0.637 -0.316,0.905c-0.226,0.293 -0.52,0.47 -0.879,0.553c-0.111,0.025 -0.221,0.05 -0.329,0.048c-0.428,-0.01 -0.807,-0.146 -1.123,-0.453c-0.227,-0.223 -0.347,-0.491 -0.424,-0.786c0.019,-0.133 -0.031,-0.262 -0.011,-0.402c0.022,-0.147 0.044,-0.293 0.094,-0.432c0.096,-0.264 0.264,-0.475 0.48,-0.645c0.158,-0.125 0.34,-0.208 0.533,-0.266c0.145,-0.044 0.293,-0.056 0.464,-0.05l-0.003,-0.002Zm-0.026,0.253c-0.098,0.007 -0.194,0.005 -0.294,0.025c-0.378,0.086 -0.644,0.314 -0.815,0.649c-0.149,0.294 -0.175,0.547 -0.106,0.868c0.065,0.305 0.221,0.561 0.479,0.746c0.218,0.156 0.461,0.241 0.729,0.237c0.167,0 0.329,-0.037 0.487,-0.102c0.285,-0.116 0.486,-0.316 0.618,-0.582c0.139,-0.281 0.168,-0.58 0.097,-0.886c-0.054,-0.241 -0.166,-0.457 -0.347,-0.626c-0.237,-0.218 -0.516,-0.353 -0.85,-0.331l0.002,0.002Z" style="fill:#808080;fill-rule:nonzero;"/><path d="M111.695,8.185l-0,-0.808c-0,-0.069 -0,-0.071 0.071,-0.071c0.214,-0 0.426,-0.004 0.641,-0c0.101,0.002 0.201,0.019 0.299,0.052c0.162,0.056 0.268,0.197 0.272,0.368c0,0.081 0.012,0.164 -0.008,0.239c-0.044,0.162 -0.164,0.254 -0.32,0.302c-0.009,0.002 -0.019,-0 -0.03,-0c-0.07,0.016 -0.079,0.033 -0.041,0.091c0.11,0.173 0.224,0.343 0.335,0.514c0.037,0.058 0.074,0.118 0.112,0.177c-0.069,0.027 -0.142,-0 -0.21,0.014c-0.077,0.015 -0.108,-0.035 -0.14,-0.087c-0.118,-0.196 -0.241,-0.387 -0.353,-0.585c-0.039,-0.072 -0.085,-0.106 -0.167,-0.095c-0.064,0.008 -0.147,-0.027 -0.191,0.014c-0.043,0.042 -0.014,0.125 -0.014,0.192c-0.003,0.166 -0,0.33 -0,0.497c-0,0.045 -0.009,0.07 -0.063,0.066c-0.06,-0.006 -0.137,0.017 -0.178,-0.012c-0.046,-0.034 -0.017,-0.115 -0.017,-0.175l-0,-0.695l0.002,0.002Zm0.524,-0.112c0.081,-0.002 0.162,0 0.241,-0.004c0.148,-0.01 0.244,-0.104 0.256,-0.247c0.01,-0.125 -0.077,-0.225 -0.214,-0.267c-0.169,-0.05 -0.337,-0.014 -0.506,-0.025c-0.026,0 -0.043,0.011 -0.043,0.042l-0,0.453c-0,0.04 0.023,0.046 0.054,0.046l0.214,0l-0.002,0.002Z" style="fill:#808080;fill-rule:nonzero;"/></g></svg>