<?xml version="1.0" encoding="UTF-8" standalone="no"?><!DOCTYPE svg PUBLIC "-//W3C//DTD SVG 1.1//EN" "http://www.w3.org/Graphics/SVG/1.1/DTD/svg11.dtd"><svg width="100%" height="100%" viewBox="0 0 162 45" version="1.1" xmlns="http://www.w3.org/2000/svg" xmlns:xlink="http://www.w3.org/1999/xlink" xml:space="preserve" xmlns:serif="http://www.serif.com/" style="fill-rule:evenodd;clip-rule:evenodd;stroke-linejoin:round;stroke-miterlimit:2;"><g id="DeRoyal"><path d="M39.322,0.147c0.038,0.122 0.139,0.06 0.21,0.063c1.027,0.038 2.025,0.21 2.993,0.568c0.675,0.252 1.255,0.631 1.699,1.19c0.207,0.263 0.349,0.574 0.423,0.906c0.196,0.873 0.051,1.708 -0.311,2.513c-0.343,0.767 -0.808,1.46 -1.329,2.12c-0.503,0.636 -1.033,1.249 -1.613,1.817c-0.16,0.157 -0.27,0.359 -0.444,0.501c-0.459,0.373 -0.85,0.817 -1.288,1.21c-0.565,0.513 -1.137,1.019 -1.723,1.507c-0.666,0.554 -1.356,1.075 -2.028,1.622c-0.734,0.601 -1.498,1.158 -2.252,1.729c-0.501,0.382 -1.016,0.743 -1.531,1.104c-1.086,0.761 -2.179,1.516 -3.283,2.25c-1.074,0.714 -2.152,1.424 -3.244,2.117c-0.729,0.459 -1.454,0.921 -2.185,1.37c-0.722,0.445 -1.448,0.886 -2.173,1.324c-0.607,0.367 -1.214,0.734 -1.826,1.092c-0.521,0.305 -1.051,0.592 -1.575,0.891c-0.637,0.364 -1.267,0.734 -1.904,1.095c-0.494,0.279 -0.997,0.545 -1.498,0.817c-0.837,0.456 -1.669,0.918 -2.51,1.365c-1.149,0.61 -2.306,1.202 -3.455,1.812c-1.432,0.764 -2.898,1.471 -4.354,2.19c-0.634,0.314 -1.27,0.622 -1.91,0.927c-0.636,0.302 -1.284,0.589 -1.924,0.888c-0.083,0.039 -0.098,0.027 -0.098,-0.053c0,-0.249 -0.065,-0.521 0.021,-0.737c0.086,-0.219 0.394,-0.252 0.604,-0.361c0.749,-0.397 1.51,-0.77 2.259,-1.167c0.956,-0.503 1.906,-1.018 2.854,-1.536c0.855,-0.468 1.711,-0.939 2.557,-1.421c0.8,-0.453 1.581,-0.936 2.38,-1.385c0.82,-0.462 1.623,-0.954 2.428,-1.442c0.734,-0.444 1.468,-0.897 2.196,-1.353c0.948,-0.592 1.895,-1.178 2.83,-1.788c0.85,-0.554 1.682,-1.131 2.517,-1.702c0.47,-0.323 0.938,-0.649 1.409,-0.971c0.846,-0.58 1.681,-1.175 2.498,-1.797c0.643,-0.486 1.297,-0.956 1.93,-1.451c0.572,-0.447 1.119,-0.929 1.691,-1.376c0.592,-0.465 1.148,-0.965 1.717,-1.457c0.766,-0.666 1.492,-1.376 2.193,-2.11c0.832,-0.874 1.616,-1.788 2.265,-2.813c0.343,-0.541 0.63,-1.113 0.775,-1.731c0.181,-0.782 0.211,-1.572 -0.183,-2.318c-0.258,-0.489 -0.643,-0.853 -1.104,-1.149c-0.616,-0.397 -1.3,-0.598 -1.999,-0.755c-0.337,-0.077 -0.686,-0.115 -1.03,-0.16c-0.399,-0.053 -0.799,-0.017 -1.193,-0.074c-0.293,-0.041 -0.586,-0.071 -0.873,-0.041c-0.515,0.05 -1.033,0.033 -1.548,0.071c-0.477,0.036 -0.953,0.083 -1.424,0.145c-0.4,0.053 -0.805,0.08 -1.199,0.184c-0.178,0.047 -0.367,0.044 -0.551,0.074c-0.615,0.097 -1.222,0.239 -1.838,0.346c-0.82,0.142 -1.628,0.343 -2.436,0.533c-0.658,0.157 -1.312,0.349 -1.966,0.527c-1.089,0.296 -2.17,0.621 -3.244,0.962c-1.253,0.397 -2.487,0.846 -3.724,1.285c-1.131,0.402 -2.247,0.84 -3.36,1.287c-1.019,0.409 -2.031,0.829 -3.041,1.264c-0.882,0.382 -1.761,0.764 -2.631,1.176c-0.545,0.257 -1.096,0.503 -1.64,0.757c-0.083,0.039 -0.134,0.039 -0.14,-0.068l0,-0.035c-0.013,-0.267 0.099,-0.458 0.338,-0.574c0.731,-0.356 1.456,-0.717 2.194,-1.057c1.113,-0.515 2.232,-1.025 3.354,-1.519c1.154,-0.509 2.312,-1.006 3.475,-1.489c1.365,-0.565 2.723,-1.143 4.109,-1.661c1.261,-0.473 2.525,-0.941 3.798,-1.388c1.379,-0.483 2.765,-0.95 4.159,-1.394c1.193,-0.382 2.401,-0.726 3.609,-1.066c0.82,-0.231 1.649,-0.432 2.475,-0.642c0.447,-0.113 0.894,-0.225 1.343,-0.326c0.382,-0.089 0.767,-0.163 1.152,-0.243c0.542,-0.112 1.084,-0.225 1.628,-0.331c0.181,-0.036 0.367,-0.054 0.548,-0.089c0.42,-0.08 0.844,-0.145 1.267,-0.201c0.251,-0.033 0.503,-0.116 0.764,-0.089c0.168,0.017 0.31,-0.086 0.482,-0.074c0.148,0.009 0.308,0.032 0.447,-0.057c0.027,-0.017 0.068,-0.005 0.104,-0.005c0.506,-0 1.003,-0.113 1.512,-0.08c0.06,0.003 0.146,0.038 0.175,-0.063l2.203,0l-0.003,0Z" style="fill:#808080;fill-rule:nonzero;"/><path d="M85.265,23.67c0,-2.658 0.009,-5.32 -0.008,-7.978c-0.003,-0.494 -0.045,-0.992 -0.19,-1.48c-0.231,-0.767 -0.752,-1.158 -1.519,-1.306c-0.529,-0.103 -1.056,-0.05 -1.583,-0.062c-0.397,-0.009 -0.388,-0.015 -0.382,-0.397c0.003,-0.352 0.018,-0.373 0.379,-0.375c0.331,-0.003 0.663,0.002 0.994,-0.009c0.563,-0.021 1.128,-0.051 1.688,-0.089c0.385,-0.027 0.772,-0.015 1.157,-0.059c0.551,-0.063 1.107,-0.021 1.652,-0.08c0.826,-0.089 1.649,-0.039 2.472,-0.054c0.829,-0.011 1.658,0.006 2.484,0c0.189,0 0.361,0.086 0.553,0.071c0.184,-0.011 0.367,0 0.554,0.054c0.198,0.053 0.411,0.044 0.621,0.074c0.527,0.08 1.045,0.189 1.56,0.322c0.741,0.19 1.454,0.459 2.129,0.82c0.485,0.261 0.932,0.569 1.353,0.93c0.411,0.355 0.752,0.764 1.051,1.211c0.358,0.533 0.583,1.125 0.74,1.746c0.163,0.657 0.195,1.326 0.127,1.99c-0.089,0.864 -0.343,1.687 -0.799,2.448c-0.367,0.616 -0.826,1.145 -1.362,1.601c-0.722,0.613 -1.557,1.051 -2.457,1.353c-0.056,0.018 -0.11,0.033 -0.163,0.059c-0.133,0.065 -0.133,0.068 -0.018,0.166c0.367,0.311 0.738,0.619 1.102,0.933c1.959,1.693 3.712,3.599 5.556,5.411c0.462,0.456 0.933,0.903 1.418,1.332c0.693,0.61 1.442,1.146 2.244,1.605c0.657,0.376 1.344,0.666 2.069,0.873c0.4,0.115 0.8,0.225 1.217,0.263c0.059,0.006 0.113,0.015 0.169,0.042c0.097,0.044 0.204,0.038 0.308,0.012c-0.048,-0.095 -0.151,-0.104 -0.228,-0.145c-0.595,-0.323 -1.152,-0.702 -1.673,-1.14c-0.701,-0.592 -1.24,-1.306 -1.675,-2.096c-0.356,-0.645 -0.581,-1.35 -0.737,-2.078c-0.172,-0.805 -0.134,-1.611 -0.119,-2.419c0.006,-0.31 0.071,-0.621 0.142,-0.926c0.163,-0.675 0.37,-1.332 0.699,-1.948c0.231,-0.432 0.497,-0.841 0.808,-1.223c0.157,-0.192 0.32,-0.376 0.494,-0.55c0.595,-0.607 1.282,-1.081 2.034,-1.478c0.722,-0.378 1.492,-0.624 2.282,-0.793c0.258,-0.053 0.533,-0.074 0.797,-0.106c0.293,-0.036 0.583,-0.048 0.873,-0.051c0.586,-0.006 1.155,0.098 1.729,0.202c1.311,0.236 2.469,0.808 3.487,1.637c0.681,0.553 1.255,1.222 1.711,1.992c0.418,0.704 0.696,1.462 0.891,2.244c0.104,0.411 0.19,0.84 0.169,1.276c-0.012,0.248 -0.006,0.497 -0,0.743c0.024,0.775 -0.13,1.524 -0.364,2.258c-0.216,0.678 -0.518,1.312 -0.918,1.901c-0.438,0.645 -0.962,1.205 -1.569,1.702c-0.784,0.642 -1.666,1.095 -2.629,1.394c-0.396,0.122 -0.802,0.211 -1.216,0.273c-0.281,0.041 -0.56,0.05 -0.838,0.062c-0.08,0.003 -0.16,-0 -0.24,0.038c-0.071,0.033 -0.169,0.045 -0.24,0.018c-0.23,-0.086 -0.464,-0.044 -0.698,-0.059c-0.521,-0.033 -1.036,-0.116 -1.54,-0.261c-0.299,-0.085 -0.606,-0.142 -0.885,-0.293c-0.106,-0.056 -0.154,-0.006 -0.168,0.131c-0.012,0.136 0.071,0.316 -0.045,0.399c-0.086,0.062 -0.248,0.033 -0.379,0.024c-0.435,-0.033 -0.864,0.109 -1.296,0.059c-0.539,-0.062 -1.081,-0.029 -1.617,-0.071c-0.541,-0.041 -1.089,-0.101 -1.622,-0.216c-0.684,-0.148 -1.365,-0.332 -2.01,-0.622c-0.761,-0.337 -1.456,-0.772 -2.105,-1.29c-0.311,-0.249 -0.618,-0.504 -0.911,-0.773c-1.641,-1.501 -3.15,-3.132 -4.752,-4.671c-0.583,-0.563 -1.187,-1.105 -1.809,-1.623c-0.361,-0.299 -0.743,-0.568 -1.104,-0.867c-0.231,-0.189 -0.473,-0.281 -0.772,-0.166c-0.072,0.03 -0.163,0.018 -0.243,0.018c-1.019,0 -2.037,0.006 -3.052,0.006c-0.151,-0 -0.299,-0.012 -0.447,-0.056c-0.184,-0.057 -0.261,0.023 -0.267,0.213l0,0.177c0,1.904 -0.017,3.807 0.012,5.711c0.009,0.55 0.015,1.116 0.198,1.652c0.231,0.669 0.693,1.08 1.383,1.243c0.364,0.086 0.728,0.148 1.104,0.142c0.355,-0.006 0.711,0 1.066,-0.003c0.106,0 0.151,0.036 0.139,0.142c-0.021,0.184 0.041,0.373 -0.033,0.557c-0.162,0.006 -0.328,0.015 -0.491,0.015l-9.834,-0c-0.335,-0 -0.287,0.026 -0.284,-0.279c-0,-0.136 -0.071,-0.316 0.038,-0.402c0.083,-0.065 0.249,-0.027 0.376,-0.03c0.249,-0.003 0.497,0 0.746,0c0.397,-0.006 0.782,-0.083 1.158,-0.204c0.538,-0.178 0.885,-0.539 1.083,-1.057c0.124,-0.326 0.181,-0.663 0.216,-1.012c0.116,-1.072 0.045,-2.144 0.056,-3.212c0.015,-1.075 0,-2.152 0,-3.227l0,-2.306l0.003,-0.003Zm28.079,-2.608c-0.435,-0.047 -1.013,0.127 -1.536,0.391c-0.758,0.379 -1.392,0.926 -1.892,1.628c-0.808,1.134 -1.175,2.404 -1.202,3.777c-0.009,0.5 0.062,0.998 0.121,1.495c0.045,0.382 0.128,0.752 0.208,1.122c0.115,0.518 0.29,1.015 0.497,1.507c0.444,1.054 1.039,1.998 1.918,2.747c0.74,0.631 1.545,1.104 2.543,1.184c0.441,0.154 0.891,0.065 1.314,-0.027c0.687,-0.148 1.303,-0.488 1.836,-0.944c0.675,-0.577 1.184,-1.279 1.548,-2.096c0.373,-0.84 0.512,-1.723 0.577,-2.626c0.027,-0.361 -0.023,-0.722 -0.044,-1.083c-0.033,-0.548 -0.124,-1.089 -0.252,-1.613c-0.204,-0.841 -0.515,-1.646 -0.968,-2.398c-0.509,-0.853 -1.113,-1.608 -1.933,-2.188c-0.772,-0.547 -1.613,-0.852 -2.735,-0.873l-0,-0.003Zm-25.015,-8.135l0,11.631c0,0.269 0.015,0.29 0.276,0.338c0.068,0.011 0.142,0.008 0.213,0.005c1.083,-0.02 2.167,0.063 3.25,-0.059c0.37,-0.041 0.746,-0.08 1.098,-0.171c0.82,-0.208 1.605,-0.501 2.301,-1.022c0.592,-0.444 1.053,-0.98 1.397,-1.628c0.45,-0.855 0.669,-1.77 0.693,-2.732c0.02,-0.924 0.038,-1.848 -0.211,-2.753c-0.234,-0.859 -0.624,-1.623 -1.246,-2.259c-0.485,-0.5 -1.075,-0.867 -1.711,-1.128c-0.992,-0.406 -2.046,-0.589 -3.108,-0.648c-0.803,-0.045 -1.608,-0.006 -2.413,-0.015c-0.157,-0 -0.293,0.074 -0.447,0.074c-0.077,-0 -0.095,0.05 -0.092,0.118c0.003,0.083 0,0.166 0,0.249Z" style="fill:#808080;fill-rule:nonzero;"/><path d="M46.85,23.803l-0,-8.44c-0,-0.444 -0.071,-0.876 -0.208,-1.299c-0.216,-0.672 -0.713,-1.001 -1.367,-1.149c-0.548,-0.124 -1.101,-0.071 -1.652,-0.074c-0.394,-0.003 -0.388,0 -0.391,-0.388c-0.003,-0.438 0.051,-0.393 0.397,-0.384c0.778,0.02 1.551,-0.071 2.327,-0.092c0.704,-0.018 1.415,-0.009 2.113,-0.071c0.755,-0.068 1.51,0.003 2.259,-0.068c0.953,-0.089 1.906,-0.042 2.86,-0.057c0.947,-0.011 1.894,0.003 2.839,-0.003c0.435,-0.003 0.864,0.069 1.296,0.092c0.367,0.018 0.74,0.065 1.104,0.133c0.441,0.083 0.885,0.16 1.327,0.252c0.713,0.151 1.412,0.34 2.093,0.589c1.237,0.453 2.412,1.027 3.448,1.853c0.358,0.287 0.72,0.569 1.03,0.903c0.743,0.797 1.386,1.667 1.839,2.664c0.281,0.622 0.512,1.262 0.675,1.922c0.077,0.311 0.124,0.633 0.177,0.953c0.122,0.719 0.142,1.442 0.134,2.167c-0.006,0.444 -0.077,0.879 -0.131,1.317c-0.097,0.808 -0.308,1.581 -0.577,2.345c-0.29,0.82 -0.672,1.598 -1.122,2.344c-0.654,1.087 -1.498,2.016 -2.442,2.851c-0.645,0.571 -1.359,1.054 -2.123,1.468c-0.746,0.406 -1.518,0.737 -2.324,1.001c-0.645,0.213 -1.305,0.37 -1.977,0.488c-0.539,0.095 -1.081,0.148 -1.622,0.216c-0.743,0.095 -1.483,0.054 -2.223,0.054c-3.668,0.009 -7.336,0.003 -11.007,0.003c-0.248,-0 -0.373,-0.124 -0.373,-0.37c0,-0.247 0.111,-0.36 0.332,-0.341l0.781,0c0.412,0 0.805,-0.077 1.193,-0.213c0.708,-0.243 1.078,-0.767 1.241,-1.471c0.074,-0.326 0.071,-0.651 0.071,-0.977l-0,-8.227l0.003,0.009Zm3.126,-10.778l-0,19.857c-0,0.211 0.023,0.415 0.053,0.625c0.074,0.533 0.376,0.817 0.864,0.98c0.427,0.139 0.865,0.192 1.303,0.198c1.131,0.018 2.262,0.03 3.392,-0.056c0.326,-0.024 0.655,-0.056 0.977,-0.098c0.465,-0.062 0.936,-0.133 1.395,-0.251c0.583,-0.148 1.154,-0.314 1.705,-0.566c0.704,-0.322 1.35,-0.731 1.939,-1.231c0.568,-0.48 1.101,-0.992 1.569,-1.572c0.846,-1.051 1.441,-2.238 1.853,-3.517c0.157,-0.483 0.269,-0.974 0.37,-1.474c0.086,-0.432 0.172,-0.871 0.186,-1.303c0.042,-1.205 0.063,-2.412 -0.192,-3.605c-0.098,-0.462 -0.198,-0.921 -0.34,-1.374c-0.234,-0.752 -0.533,-1.474 -0.933,-2.158c-0.361,-0.619 -0.77,-1.196 -1.255,-1.72c-0.264,-0.284 -0.551,-0.545 -0.847,-0.799c-0.69,-0.586 -1.462,-1.045 -2.291,-1.386c-1.101,-0.456 -2.25,-0.752 -3.44,-0.885c-0.195,-0.021 -0.4,-0.021 -0.586,-0.068c-0.234,-0.059 -0.465,-0.065 -0.696,-0.056c-0.248,0.009 -0.479,-0.083 -0.731,-0.077c-1.072,0.038 -2.146,-0.062 -3.215,0.065c-0.314,0.036 -0.63,-0.003 -0.944,0.071c-0.101,0.024 -0.145,0.047 -0.136,0.151c0.006,0.083 -0,0.166 -0,0.249Z" style="fill:#808080;fill-rule:nonzero;"/><path d="M123.634,20.573l3.549,0c0.196,0 0.199,0.003 0.202,0.184l-0,0.284c-0.003,0.145 -0.068,0.219 -0.231,0.234c-0.166,0.012 -0.332,0 -0.498,0.012c-0.313,0.021 -0.618,0.08 -0.905,0.21c-0.462,0.213 -0.584,0.53 -0.513,1.042c0.071,0.509 0.32,0.939 0.521,1.388c0.492,1.087 1.007,2.162 1.51,3.242c0.284,0.607 0.56,1.22 0.844,1.827c0.453,0.976 0.906,1.95 1.359,2.927c0.088,0.19 0.174,0.379 0.254,0.569c0.024,0.059 0.059,0.097 0.113,0.13c0.026,-0.053 0.056,-0.104 0.077,-0.157c0.47,-1.175 0.935,-2.353 1.409,-3.529c0.574,-1.432 1.163,-2.862 1.729,-4.298c0.168,-0.426 0.284,-0.876 0.411,-1.317c0.092,-0.311 0.115,-0.806 0.018,-1.096c-0.08,-0.237 -0.204,-0.459 -0.447,-0.598c-0.385,-0.219 -0.794,-0.316 -1.229,-0.34c-0.094,-0.006 -0.189,-0.003 -0.284,-0.006c-0.296,-0.009 -0.299,-0.012 -0.302,-0.296c-0.004,-0.272 0.131,-0.409 0.406,-0.409l5.716,0c0.083,0 0.136,0.024 0.127,0.122c-0.006,0.071 -0,0.142 -0,0.213c-0,0.32 -0.003,0.308 -0.331,0.382c-0.726,0.169 -1.323,0.539 -1.797,1.128c-0.548,0.681 -0.873,1.471 -1.199,2.264c-0.266,0.652 -0.521,1.309 -0.782,1.96c-0.476,1.199 -0.95,2.398 -1.429,3.597c-0.344,0.855 -0.702,1.705 -1.042,2.56c-0.462,1.155 -0.912,2.318 -1.377,3.473c-0.408,1.018 -0.838,2.025 -1.24,3.046c-0.279,0.708 -0.566,1.415 -0.882,2.108c-0.261,0.571 -0.548,1.131 -0.927,1.631c-0.349,0.459 -0.74,0.888 -1.338,1.024c-0.568,0.13 -1.119,0.074 -1.59,-0.305c-0.32,-0.257 -0.429,-0.616 -0.417,-1.03c0.009,-0.391 0.192,-0.669 0.488,-0.882c0.131,-0.095 0.281,-0.172 0.435,-0.216c0.332,-0.095 0.658,-0.21 0.992,-0.305c0.506,-0.142 0.992,-0.344 1.335,-0.776c0.204,-0.254 0.367,-0.536 0.542,-0.811c0.42,-0.66 0.669,-1.394 0.968,-2.108c0.222,-0.529 0.42,-1.071 0.645,-1.601c0.071,-0.166 0.08,-0.299 -0,-0.462c-0.358,-0.737 -0.71,-1.48 -1.059,-2.223c-0.43,-0.912 -0.856,-1.824 -1.285,-2.735c-0.37,-0.785 -0.746,-1.569 -1.116,-2.354c-0.394,-0.838 -0.791,-1.675 -1.178,-2.513c-0.453,-0.977 -0.897,-1.96 -1.398,-2.913c-0.299,-0.568 -0.681,-1.063 -1.29,-1.329c-0.308,-0.133 -0.625,-0.243 -0.971,-0.237c-0.071,-0 -0.142,0.003 -0.214,-0.006c-0.088,-0.012 -0.151,-0.059 -0.156,-0.16l-0,-0.071c-0.014,-0.316 0.135,-0.474 0.447,-0.474l3.336,0l-0.006,0Z" style="fill:#808080;fill-rule:nonzero;"/><path d="M146.629,27.936c-0,1.64 -0.005,3.01 0.003,4.381c-0,0.37 0.057,0.74 0.137,1.104c0.085,0.391 0.322,0.622 0.781,0.643c0.56,0.023 1.021,-0.181 1.454,-0.501c0.074,-0.056 0.154,-0.103 0.228,-0.16c0.213,-0.168 0.213,-0.168 0.302,0.101c0.014,0.044 0.017,0.092 0.041,0.13c0.068,0.116 0.024,0.202 -0.068,0.273c-0.213,0.165 -0.42,0.337 -0.637,0.494c-0.547,0.394 -1.092,0.787 -1.702,1.089c-0.391,0.193 -0.787,0.356 -1.213,0.379c-0.288,0.015 -0.613,-0.02 -0.862,-0.204c-0.293,-0.216 -0.551,-0.477 -0.669,-0.841c-0.115,-0.352 -0.222,-0.707 -0.219,-1.083c-0,-0.033 -0.012,-0.077 -0.036,-0.092c-0.044,-0.03 -0.082,0.006 -0.121,0.039c-0.565,0.488 -1.16,0.941 -1.785,1.352c-0.417,0.276 -0.847,0.53 -1.326,0.681c-0.21,0.065 -0.424,0.125 -0.648,0.116c-0.104,-0.003 -0.208,-0.018 -0.308,0.044c-0.042,0.027 -0.122,0.03 -0.172,0.009c-0.299,-0.121 -0.619,-0.041 -0.933,-0.112c-0.355,-0.083 -0.686,-0.193 -1.012,-0.35c-0.787,-0.385 -1.264,-1.033 -1.453,-1.862c-0.181,-0.79 -0.119,-1.447 0.266,-2.196c0.234,-0.456 0.592,-0.803 1.021,-1.078c0.749,-0.482 1.572,-0.77 2.428,-0.995c0.926,-0.242 1.844,-0.506 2.711,-0.926c0.364,-0.178 0.711,-0.391 1.081,-0.56c0.157,-0.071 0.219,-0.18 0.219,-0.358c-0.009,-1.003 -0.003,-2.01 -0.003,-3.013c-0.127,-0.424 0.006,-0.88 -0.192,-1.303c-0.095,-0.198 -0.178,-0.405 -0.305,-0.58c-0.415,-0.569 -0.933,-0.992 -1.623,-1.205c-0.692,-0.213 -1.323,-0.077 -1.924,0.272c-0.325,0.19 -0.589,0.459 -0.805,0.776c-0.255,0.373 -0.349,0.752 -0.142,1.175c0.024,0.051 0.018,0.119 0.047,0.166c0.051,0.08 0.006,0.083 -0.053,0.11c-0.785,0.375 -1.569,0.751 -2.345,1.139c-0.112,0.056 -0.106,-0.012 -0.136,-0.062c-0.204,-0.358 -0.065,-0.693 0.071,-1.027c0.142,-0.349 0.358,-0.654 0.601,-0.936c0.199,-0.231 0.379,-0.479 0.607,-0.686c0.737,-0.672 1.513,-1.288 2.43,-1.691c0.4,-0.174 0.815,-0.305 1.256,-0.382c0.497,-0.085 0.965,-0.014 1.447,0.074c0.723,0.134 1.365,0.43 1.96,0.847c0.604,0.426 1.08,0.956 1.382,1.634c0.089,0.201 0.131,0.415 0.151,0.637c0.157,1.601 0.009,3.206 0.068,4.538Zm-2.492,0.947c-0,-0.107 -0.003,-0.213 -0,-0.32c0.006,-0.145 -0.065,-0.074 -0.121,-0.047c-0.054,0.024 -0.107,0.047 -0.157,0.074c-0.942,0.5 -1.933,0.885 -2.916,1.291c-0.504,0.207 -0.995,0.45 -1.436,0.772c-0.261,0.19 -0.474,0.43 -0.592,0.729c-0.329,0.834 -0.222,1.847 0.482,2.516c0.684,0.651 1.463,0.823 2.345,0.497c0.192,-0.071 0.37,-0.195 0.548,-0.302c0.589,-0.352 1.163,-0.725 1.72,-1.128c0.106,-0.077 0.127,-0.148 0.127,-0.254l-0,-3.828Z" style="fill:#808080;fill-rule:nonzero;"/><path d="M154.942,21.541l-0,10.96c-0,0.34 0.047,0.683 0.157,0.991c0.216,0.601 0.639,1.004 1.302,1.137c0.4,0.08 0.797,0.05 1.193,0.062c0.178,0.006 0.181,0.006 0.184,0.166c-0,0.142 -0.003,0.284 -0,0.426c0.003,0.095 -0.042,0.125 -0.127,0.119c-0.071,-0.003 -0.142,-0 -0.214,-0l-8.025,-0c-0.056,-0 -0.086,-0.027 -0.086,-0.086l-0,-0.036c0.012,-0.186 -0.074,-0.417 0.036,-0.547c0.1,-0.119 0.334,-0.033 0.506,-0.042c0.429,-0.024 0.856,-0.074 1.264,-0.216c0.74,-0.258 1.143,-0.782 1.258,-1.563c0.074,-0.506 0.059,-1.007 0.059,-1.51c0.003,-5.793 -0,-11.586 -0,-17.38c-0,-0.222 -0.006,-0.438 -0.062,-0.66c-0.115,-0.459 -0.343,-0.681 -0.808,-0.731c-0.474,-0.053 -0.947,-0.139 -1.424,-0.145c-0.098,-0 -0.172,-0.062 -0.269,-0.068c-0.281,-0.015 -0.281,-0.021 -0.281,-0.317c-0,-0.337 -0,-0.34 0.304,-0.441c1.096,-0.358 2.188,-0.722 3.289,-1.063c0.308,-0.094 0.619,-0.183 0.921,-0.296c0.065,-0.023 0.133,-0.035 0.198,-0.053c0.193,-0.053 0.394,-0.039 0.592,-0.009c0.06,0.145 0.03,0.299 0.03,0.45l-0,10.852l0.003,0Z" style="fill:#808080;fill-rule:nonzero;"/><path d="M77.805,25.896l-5.076,0c-0.083,0 -0.166,-0.003 -0.249,0c-0.145,0.006 -0.193,0.044 -0.198,0.187c-0.021,0.432 -0.113,0.858 -0.086,1.296c0.014,0.261 0.006,0.521 0.009,0.779c0.005,0.385 0.091,0.758 0.177,1.131c0.13,0.565 0.344,1.101 0.616,1.613c0.488,0.918 1.169,1.658 2.04,2.229c0.568,0.373 1.187,0.625 1.847,0.77c0.521,0.115 1.054,0.112 1.581,0.068c0.648,-0.053 1.275,-0.225 1.859,-0.509c0.376,-0.184 0.728,-0.412 1.059,-0.675c0.344,-0.273 0.655,-0.578 0.96,-0.888c0.056,-0.06 0.106,-0.125 0.156,-0.19c0.128,-0.169 0.16,-0.175 0.285,-0.024c0.088,0.107 0.231,0.217 0.242,0.335c0.012,0.121 -0.165,0.207 -0.251,0.311c-0.717,0.861 -1.531,1.616 -2.463,2.247c-0.826,0.556 -1.726,0.941 -2.691,1.163c-0.246,0.056 -0.5,0.116 -0.764,0.092c-0.124,-0.012 -0.26,-0.033 -0.376,0.056c-0.015,0.012 -0.05,0.009 -0.068,0c-0.323,-0.127 -0.669,-0.035 -1.003,-0.112c-0.314,-0.071 -0.631,-0.131 -0.939,-0.231c-0.636,-0.211 -1.214,-0.524 -1.738,-0.933c-1.042,-0.808 -1.764,-1.847 -2.249,-3.067c-0.222,-0.562 -0.37,-1.136 -0.492,-1.726c-0.166,-0.802 -0.16,-1.61 -0.118,-2.415c0.032,-0.595 0.166,-1.187 0.334,-1.764c0.258,-0.874 0.634,-1.691 1.146,-2.44c0.622,-0.912 1.403,-1.663 2.38,-2.193c0.654,-0.356 1.341,-0.601 2.081,-0.729c0.616,-0.106 1.235,-0.165 1.85,-0.112c0.655,0.056 1.309,0.145 1.925,0.403c0.497,0.207 0.962,0.45 1.364,0.825c0.672,0.628 1.116,1.398 1.48,2.227c0.208,0.464 0.412,0.938 0.77,1.32c0.053,0.056 0.077,0.112 0.074,0.189c-0.012,0.246 0.024,0.495 -0.018,0.74c-0.231,0.066 -0.467,0.027 -0.698,0.027c-1.587,0.003 -3.171,0 -4.758,0Zm-1.592,-0.992l3.795,0c0.056,0 0.086,-0.029 0.083,-0.085c-0.006,-0.08 -0,-0.166 -0.027,-0.243c-0.109,-0.341 -0.189,-0.684 -0.32,-1.019c-0.299,-0.784 -0.766,-1.441 -1.4,-1.977c-0.24,-0.201 -0.509,-0.373 -0.799,-0.491c-0.592,-0.24 -1.338,-0.302 -1.951,-0.14c-0.841,0.225 -1.521,0.705 -2.034,1.404c-0.538,0.737 -0.873,1.572 -1.092,2.457c-0.021,0.08 -0.021,0.097 0.056,0.1l3.689,0l-0,-0.006Z" style="fill:#808080;fill-rule:nonzero;"/><path d="M159.841,9.644c0.293,-0.041 0.589,0.065 0.879,0.178c0.178,0.068 0.341,0.18 0.486,0.308c0.216,0.192 0.414,0.399 0.545,0.663c0.1,0.201 0.177,0.408 0.204,0.633c0.018,0.13 0.047,0.261 0.041,0.397c-0.023,0.473 -0.154,0.906 -0.45,1.288c-0.322,0.417 -0.74,0.669 -1.252,0.787c-0.157,0.036 -0.314,0.071 -0.468,0.068c-0.609,-0.015 -1.148,-0.207 -1.598,-0.645c-0.323,-0.317 -0.494,-0.699 -0.604,-1.119c0.027,-0.19 -0.044,-0.373 -0.015,-0.572c0.03,-0.21 0.062,-0.417 0.133,-0.615c0.137,-0.376 0.376,-0.675 0.684,-0.918c0.225,-0.178 0.483,-0.296 0.758,-0.379c0.207,-0.062 0.417,-0.08 0.66,-0.071l-0.003,-0.003Zm-0.038,0.361c-0.139,0.009 -0.276,0.006 -0.418,0.036c-0.538,0.121 -0.917,0.447 -1.16,0.923c-0.213,0.418 -0.249,0.779 -0.151,1.235c0.092,0.435 0.314,0.799 0.681,1.063c0.311,0.222 0.657,0.343 1.039,0.337c0.237,0 0.468,-0.053 0.693,-0.145c0.405,-0.166 0.692,-0.45 0.879,-0.829c0.198,-0.4 0.24,-0.826 0.139,-1.261c-0.077,-0.343 -0.237,-0.651 -0.494,-0.891c-0.338,-0.311 -0.735,-0.503 -1.211,-0.471l0.003,0.003Z" style="fill:#808080;fill-rule:nonzero;"/><path d="M158.959,11.79l-0,-1.151c-0,-0.098 -0,-0.101 0.101,-0.101c0.305,0 0.607,-0.006 0.912,0c0.145,0.003 0.287,0.027 0.426,0.074c0.231,0.08 0.382,0.281 0.388,0.524c-0,0.116 0.017,0.234 -0.012,0.34c-0.062,0.231 -0.234,0.362 -0.456,0.43c-0.012,0.003 -0.027,-0 -0.042,-0c-0.1,0.023 -0.112,0.047 -0.059,0.13c0.157,0.246 0.32,0.488 0.477,0.731c0.053,0.083 0.106,0.169 0.16,0.252c-0.098,0.038 -0.202,-0 -0.299,0.021c-0.11,0.02 -0.154,-0.051 -0.199,-0.125c-0.168,-0.278 -0.343,-0.55 -0.503,-0.832c-0.056,-0.103 -0.121,-0.151 -0.237,-0.136c-0.091,0.012 -0.21,-0.038 -0.272,0.021c-0.062,0.059 -0.021,0.178 -0.021,0.272c-0.003,0.237 -0,0.471 -0,0.708c-0,0.065 -0.012,0.1 -0.089,0.094c-0.085,-0.008 -0.195,0.024 -0.254,-0.017c-0.065,-0.048 -0.024,-0.163 -0.024,-0.249l-0,-0.989l0.003,0.003Zm0.746,-0.16c0.116,-0.003 0.231,0 0.343,-0.005c0.211,-0.015 0.347,-0.149 0.365,-0.353c0.014,-0.177 -0.11,-0.319 -0.305,-0.379c-0.24,-0.071 -0.48,-0.02 -0.72,-0.035c-0.038,-0 -0.062,0.015 -0.062,0.059l-0,0.645c-0,0.057 0.033,0.065 0.077,0.065l0.305,0l-0.003,0.003Z" style="fill:#808080;fill-rule:nonzero;"/></g></svg>