<?xml version="1.0" encoding="UTF-8" standalone="no"?><!DOCTYPE svg PUBLIC "-//W3C//DTD SVG 1.1//EN" "http://www.w3.org/Graphics/SVG/1.1/DTD/svg11.dtd"><svg width="100%" height="100%" viewBox="0 0 95 19" version="1.1" xmlns="http://www.w3.org/2000/svg" xmlns:xlink="http://www.w3.org/1999/xlink" xml:space="preserve" xmlns:serif="http://www.serif.com/" style="fill-rule:evenodd;clip-rule:evenodd;stroke-linejoin:round;stroke-miterlimit:2;"><g id="Fivestars"><path d="M17.808,5.844l-4.61,-0c-0.205,-0 -0.394,-0.142 -0.458,-0.332l-1.42,-4.388c-0.221,-0.679 -0.821,-1.105 -1.547,-1.105c-0.727,-0 -1.326,0.442 -1.547,1.105l-1.421,4.388c-0.063,0.206 -0.253,0.332 -0.458,0.332l-4.61,-0c-0.71,-0 -1.326,0.442 -1.547,1.121c-0.221,0.678 0.016,1.389 0.584,1.815l3.3,2.4c0.426,0.315 0.6,0.852 0.442,1.357l-1.247,3.852c-0.221,0.695 -0,1.437 0.568,1.847c0.458,0.331 1.01,0.379 1.658,0.142c0.3,-0.11 0.536,-0.253 0.742,-0.379c0.552,-0.347 1.278,-0.884 1.768,-1.278c0.236,-0.19 0.284,-0.553 0.079,-0.79c-0.19,-0.237 -0.553,-0.284 -0.79,-0.079c-0.584,0.474 -1.231,0.947 -1.657,1.2c-0.206,0.126 -0.363,0.205 -0.537,0.284c-0.411,0.158 -0.537,0.063 -0.6,0.016c-0.142,-0.111 -0.253,-0.332 -0.158,-0.584l1.247,-3.836c0.316,-0.979 -0.031,-2.021 -0.852,-2.621l-3.299,-2.399c-0.269,-0.19 -0.206,-0.474 -0.174,-0.553c0.031,-0.079 0.142,-0.331 0.458,-0.331l4.609,-0c0.711,-0 1.326,-0.442 1.547,-1.121l1.421,-4.389c0.095,-0.3 0.379,-0.315 0.458,-0.315c0.079,-0 0.363,0.015 0.458,0.315l1.42,4.389c0.221,0.663 0.837,1.121 1.547,1.121l4.61,-0c0.331,-0 0.442,0.252 0.458,0.331c0.031,0.079 0.095,0.348 -0.174,0.553l-3.299,2.399c-0.821,0.6 -1.168,1.658 -0.853,2.621l1.248,3.836c0.094,0.3 -0.032,0.489 -0.158,0.584c-0.127,0.095 -0.269,0.126 -0.648,-0.016l-0.126,-0.047c-2.668,-1.089 -4.341,-2.921 -4.357,-2.936l-0.016,-0.016c-0.663,-0.679 -1.184,-1.326 -1.61,-1.989c-0.3,-0.474 -0.537,-0.963 -0.71,-1.437c-0.332,-0.915 -0.316,-1.531 0.031,-1.91c0.158,-0.174 0.537,-0.284 0.79,-0.205c0.394,0.11 0.663,0.426 0.836,0.963c0.079,0.237 0.284,0.395 0.537,0.395c0.253,0.015 0.474,-0.158 0.537,-0.395c0.126,-0.379 0.41,-0.995 1.057,-0.995c0.237,0 0.458,0.111 0.6,0.284c0.316,0.395 0.3,1.011 -0.031,1.895c-0.237,0.615 -0.647,1.278 -1.074,1.736c-0.221,0.221 -0.205,0.584 0.016,0.805c0.221,0.221 0.584,0.206 0.805,-0.015c0.537,-0.569 1.026,-1.358 1.31,-2.116c0.49,-1.294 0.427,-2.273 -0.157,-2.999c-0.363,-0.442 -0.9,-0.711 -1.484,-0.711c-0.632,0 -1.184,0.269 -1.595,0.758c-0.347,-0.41 -0.742,-0.6 -1.089,-0.694c-0.647,-0.174 -1.452,0.047 -1.91,0.536c-0.995,1.074 -0.458,2.573 -0.268,3.063c0.205,0.552 0.473,1.105 0.82,1.657c0.458,0.727 1.042,1.437 1.753,2.179c0.158,0.174 1.894,2.036 4.704,3.205l0.016,-0c0.221,0.094 0.6,0.252 1.01,0.252c0.3,0 0.616,-0.079 0.931,-0.331c0.553,-0.442 0.742,-1.137 0.521,-1.816l-1.247,-3.836c-0.158,-0.505 0.016,-1.058 0.442,-1.357l3.3,-2.4c0.584,-0.426 0.805,-1.137 0.584,-1.815c-0.158,-0.758 -0.774,-1.2 -1.484,-1.2Zm6.551,9.045c0.363,0 0.663,-0.315 0.663,-0.678l0,-3.395l4.057,0c0.332,0 0.6,-0.268 0.6,-0.599c-0,-0.332 -0.284,-0.584 -0.6,-0.584l-4.057,-0l0,-2.637l4.152,0c0.331,0 0.6,-0.252 0.6,-0.584c-0,-0.331 -0.284,-0.6 -0.6,-0.6l-4.768,0c-0.473,0 -0.726,0.253 -0.726,0.711l0,7.672c0,0.394 0.3,0.694 0.679,0.694Zm8.319,-9.124c-0.378,-0 -0.694,0.316 -0.694,0.679l-0,7.782c-0,0.363 0.316,0.679 0.694,0.679c0.379,0 0.663,-0.316 0.663,-0.679l0,-7.782c0,-0.379 -0.3,-0.679 -0.663,-0.679Zm5.857,8.367c0.174,0.426 0.6,0.757 1.105,0.757c0.505,0 0.947,-0.331 1.121,-0.757l2.936,-7.404c0.048,-0.079 0.048,-0.158 0.048,-0.253c-0,-0.394 -0.316,-0.71 -0.711,-0.71c-0.3,-0 -0.568,0.189 -0.663,0.458l-2.747,7.135l-2.731,-7.135c-0.11,-0.269 -0.363,-0.458 -0.679,-0.458c-0.394,-0 -0.71,0.331 -0.71,0.71c0,0.095 0.032,0.174 0.063,0.253l2.968,7.404Zm7.877,0.694l4.784,0c0.331,0 0.599,-0.268 0.599,-0.6c0,-0.331 -0.284,-0.584 -0.599,-0.584l-4.152,0l-0,-2.81l4.057,0c0.331,0 0.6,-0.268 0.6,-0.6c-0,-0.331 -0.284,-0.584 -0.6,-0.584l-4.057,0l-0,-2.636l4.152,-0c0.331,-0 0.599,-0.253 0.599,-0.584c0,-0.332 -0.284,-0.6 -0.599,-0.6l-4.784,0c-0.473,0 -0.726,0.253 -0.726,0.71l0,7.578c0,0.458 0.253,0.71 0.726,0.71Zm10.861,-1.042c-0.978,0 -1.784,-0.379 -2.383,-0.868c-0.111,-0.079 -0.253,-0.142 -0.411,-0.142c-0.347,-0 -0.647,0.3 -0.647,0.647c-0,0.221 0.11,0.395 0.252,0.505c0.774,0.632 1.816,1.042 3.126,1.042c2.431,0 3.394,-1.31 3.394,-2.715c0,-1.91 -1.721,-2.368 -3.189,-2.763c-1.12,-0.284 -2.099,-0.536 -2.099,-1.357c-0,-0.758 0.694,-1.263 1.799,-1.263c0.742,-0 1.532,0.221 2.163,0.71c0.095,0.063 0.237,0.127 0.379,0.127c0.347,-0 0.631,-0.3 0.631,-0.648c0,-0.221 -0.11,-0.41 -0.284,-0.505c-0.821,-0.584 -1.689,-0.884 -2.778,-0.884c-1.989,0 -3.299,1.074 -3.299,2.558c-0,1.831 1.673,2.257 3.11,2.636c1.152,0.3 2.178,0.568 2.178,1.515c0.032,0.663 -0.474,1.405 -1.942,1.405Zm11.145,-7.956l-5.872,0c-0.316,0 -0.6,0.268 -0.6,0.6c-0,0.331 0.268,0.584 0.6,0.584l2.273,-0l-0,7.214c-0,0.363 0.3,0.679 0.679,0.679c0.379,0 0.679,-0.316 0.679,-0.679l-0,-7.214l2.257,-0c0.332,-0 0.6,-0.253 0.6,-0.584c-0,-0.332 -0.284,-0.6 -0.616,-0.6Zm23.206,3.678c-1.121,-0.284 -2.1,-0.536 -2.1,-1.357c0,-0.758 0.695,-1.263 1.8,-1.263c0.742,-0 1.531,0.221 2.163,0.71c0.094,0.063 0.237,0.126 0.379,0.126c0.347,0 0.631,-0.3 0.631,-0.647c0,-0.221 -0.11,-0.41 -0.284,-0.505c-0.821,-0.584 -1.689,-0.884 -2.778,-0.884c-1.99,-0 -3.3,1.073 -3.3,2.557c0,1.832 1.674,2.258 3.11,2.637c1.153,0.3 2.178,0.568 2.178,1.515c0,0.647 -0.504,1.389 -1.973,1.389c-0.978,0 -1.783,-0.379 -2.383,-0.868c-0.111,-0.079 -0.253,-0.142 -0.411,-0.142c-0.347,-0 -0.647,0.3 -0.647,0.647c-0,0.221 0.11,0.395 0.253,0.505c0.773,0.632 1.815,1.042 3.125,1.042c2.432,0 3.394,-1.31 3.394,-2.715c0.032,-1.894 -1.689,-2.352 -3.157,-2.747Zm-18.154,-2.51l1.232,3.268l-2.463,-0l1.231,-3.268Zm-2.226,5.967l0.442,-1.199l0.11,-0.3l3.347,-0l0.111,0.3l0.442,1.199l0.568,1.5c0.079,0.237 0.332,0.426 0.631,0.426c0.379,0 0.695,-0.315 0.695,-0.694c0,-0.095 -0.031,-0.19 -0.047,-0.253l-2.968,-7.435c-0.174,-0.426 -0.6,-0.758 -1.105,-0.758c-0.505,0 -0.931,0.332 -1.089,0.758l-2.968,7.435c-0.031,0.079 -0.047,0.174 -0.047,0.253c-0,0.379 0.315,0.694 0.694,0.694c0.284,0 0.537,-0.189 0.632,-0.426l0.552,-1.5Zm13.608,-4.293c-0,0.852 -0.774,1.547 -1.721,1.547l-2.257,-0l-0,-3.079l2.257,0c0.947,0 1.721,0.695 1.721,1.532Zm-4.641,6.219c0.363,0 0.663,-0.315 0.663,-0.678l-0,-2.7l1.909,0l1.801,3.047c0.11,0.189 0.315,0.3 0.552,0.316c0.379,0.031 0.663,-0.3 0.679,-0.569c0.016,-0.221 -0.032,-0.331 -0.111,-0.426l-1.531,-2.542c1.168,-0.394 2.005,-1.436 2.005,-2.667c-0,-1.563 -1.358,-2.842 -3.015,-2.842l-2.889,0c-0.474,0 -0.726,0.253 -0.726,0.71l-0,7.673c-0.032,0.378 0.284,0.678 0.663,0.678Z" style="fill:#808080;fill-rule:nonzero;"/></g></svg>