<?xml version="1.0" encoding="UTF-8" standalone="no"?><!DOCTYPE svg PUBLIC "-//W3C//DTD SVG 1.1//EN" "http://www.w3.org/Graphics/SVG/1.1/DTD/svg11.dtd"><svg width="100%" height="100%" viewBox="0 0 151 30" version="1.1" xmlns="http://www.w3.org/2000/svg" xmlns:xlink="http://www.w3.org/1999/xlink" xml:space="preserve" xmlns:serif="http://www.serif.com/" style="fill-rule:evenodd;clip-rule:evenodd;stroke-linejoin:round;stroke-miterlimit:2;"><g id="Fivestars"><path d="M28.136,9.311l-7.303,0c-0.325,0 -0.626,-0.225 -0.726,-0.525l-2.251,-6.953c-0.35,-1.076 -1.3,-1.751 -2.451,-1.751c-1.15,0 -2.101,0.7 -2.451,1.751l-2.251,6.953c-0.1,0.325 -0.4,0.525 -0.725,0.525l-7.304,0c-1.125,0 -2.101,0.701 -2.451,1.776c-0.35,1.076 0.025,2.201 0.926,2.877l5.227,3.801c0.675,0.501 0.95,1.351 0.7,2.151l-1.976,6.103c-0.35,1.101 0,2.276 0.901,2.927c0.725,0.525 1.601,0.6 2.626,0.225c0.475,-0.175 0.85,-0.401 1.176,-0.601c0.875,-0.55 2.026,-1.4 2.801,-2.026c0.375,-0.3 0.45,-0.875 0.125,-1.25c-0.3,-0.375 -0.875,-0.45 -1.251,-0.125c-0.925,0.75 -1.95,1.5 -2.626,1.901c-0.325,0.2 -0.575,0.325 -0.85,0.45c-0.65,0.25 -0.851,0.1 -0.951,0.025c-0.225,-0.175 -0.4,-0.525 -0.25,-0.926l1.976,-6.077c0.5,-1.551 -0.05,-3.202 -1.35,-4.152l-5.228,-3.802c-0.425,-0.3 -0.325,-0.75 -0.275,-0.875c0.05,-0.126 0.225,-0.526 0.725,-0.526l7.304,0c1.125,0 2.101,-0.7 2.451,-1.776l2.251,-6.953c0.15,-0.475 0.6,-0.5 0.725,-0.5c0.125,0 0.576,0.025 0.726,0.5l2.251,6.953c0.35,1.051 1.325,1.776 2.451,1.776l7.303,0c0.525,0 0.7,0.4 0.725,0.526c0.051,0.125 0.151,0.55 -0.275,0.875l-5.227,3.802c-1.301,0.95 -1.851,2.626 -1.351,4.152l1.976,6.077c0.15,0.476 -0.05,0.776 -0.25,0.926c-0.2,0.15 -0.425,0.2 -1.025,-0.025l-0.2,-0.075c-4.227,-1.726 -6.879,-4.627 -6.904,-4.652l-0.025,-0.025c-1.05,-1.076 -1.876,-2.101 -2.551,-3.152c-0.475,-0.75 -0.85,-1.525 -1.125,-2.276c-0.526,-1.451 -0.501,-2.426 0.05,-3.026c0.25,-0.275 0.85,-0.45 1.25,-0.325c0.626,0.175 1.051,0.675 1.326,1.525c0.125,0.375 0.45,0.626 0.85,0.626c0.4,0.025 0.751,-0.251 0.851,-0.626c0.2,-0.6 0.65,-1.575 1.675,-1.575c0.376,-0 0.726,0.175 0.951,0.45c0.5,0.625 0.475,1.601 -0.05,3.001c-0.375,0.976 -1.026,2.026 -1.701,2.751c-0.35,0.351 -0.325,0.926 0.025,1.276c0.35,0.35 0.925,0.325 1.276,-0.025c0.85,-0.9 1.625,-2.151 2.076,-3.352c0.775,-2.05 0.675,-3.601 -0.251,-4.752c-0.575,-0.7 -1.425,-1.125 -2.351,-1.125c-1,-0 -1.875,0.425 -2.526,1.2c-0.55,-0.65 -1.175,-0.95 -1.726,-1.1c-1.025,-0.275 -2.301,0.075 -3.026,0.85c-1.576,1.701 -0.725,4.077 -0.425,4.852c0.325,0.876 0.75,1.751 1.3,2.627c0.726,1.15 1.651,2.276 2.777,3.451c0.25,0.275 3.001,3.227 7.453,5.078l0.025,-0c0.35,0.15 0.951,0.4 1.601,0.4c0.475,-0 0.975,-0.125 1.476,-0.525c0.875,-0.701 1.175,-1.801 0.825,-2.877l-1.976,-6.078c-0.25,-0.8 0.025,-1.675 0.7,-2.151l5.228,-3.801c0.925,-0.676 1.275,-1.801 0.925,-2.877c-0.25,-1.2 -1.225,-1.901 -2.351,-1.901Zm10.38,14.332c0.575,0 1.05,-0.5 1.05,-1.075l0,-5.378l6.428,0c0.526,0 0.951,-0.425 0.951,-0.95c-0,-0.526 -0.45,-0.926 -0.951,-0.926l-6.428,0l0,-4.177l6.579,0c0.525,0 0.95,-0.4 0.95,-0.925c-0,-0.525 -0.45,-0.951 -0.95,-0.951l-7.554,0c-0.75,0 -1.151,0.401 -1.151,1.126l0,12.156c0,0.625 0.476,1.1 1.076,1.1Zm13.181,-14.457c-0.6,0 -1.1,0.501 -1.1,1.076l-0,12.331c-0,0.575 0.5,1.075 1.1,1.075c0.6,0 1.051,-0.5 1.051,-1.075l-0,-12.331c-0,-0.6 -0.476,-1.076 -1.051,-1.076Zm9.279,13.257c0.276,0.675 0.951,1.2 1.751,1.2c0.801,0 1.501,-0.525 1.776,-1.2l4.652,-11.731c0.075,-0.125 0.075,-0.25 0.075,-0.4c0,-0.625 -0.5,-1.126 -1.125,-1.126c-0.476,0 -0.901,0.301 -1.051,0.726l-4.352,11.305l-4.327,-11.305c-0.175,-0.425 -0.575,-0.726 -1.075,-0.726c-0.626,0 -1.126,0.526 -1.126,1.126c0,0.15 0.05,0.275 0.1,0.4l4.702,11.731Zm12.481,1.1l7.579,0c0.525,0 0.95,-0.425 0.95,-0.95c0,-0.526 -0.45,-0.926 -0.95,-0.926l-6.578,0l-0,-4.452l6.428,0c0.525,0 0.95,-0.425 0.95,-0.95c0,-0.526 -0.45,-0.926 -0.95,-0.926l-6.428,0l-0,-4.177l6.578,0c0.525,0 0.95,-0.4 0.95,-0.925c0,-0.525 -0.45,-0.951 -0.95,-0.951l-7.579,0c-0.75,0 -1.15,0.401 -1.15,1.126l-0,12.006c-0,0.725 0.4,1.125 1.15,1.125Zm17.208,-1.651c-1.551,0 -2.826,-0.6 -3.777,-1.375c-0.175,-0.125 -0.4,-0.225 -0.65,-0.225c-0.55,-0 -1.025,0.475 -1.025,1.025c-0,0.35 0.175,0.625 0.4,0.8c1.225,1.001 2.876,1.651 4.952,1.651c3.852,0 5.377,-2.076 5.377,-4.302c0,-3.026 -2.726,-3.752 -5.052,-4.377c-1.776,-0.45 -3.326,-0.85 -3.326,-2.151c-0,-1.2 1.1,-2.001 2.851,-2.001c1.176,0 2.426,0.35 3.427,1.126c0.15,0.1 0.375,0.2 0.6,0.2c0.55,-0 1,-0.475 1,-1.026c0,-0.35 -0.175,-0.65 -0.45,-0.8c-1.3,-0.925 -2.676,-1.401 -4.402,-1.401c-3.151,0 -5.227,1.701 -5.227,4.052c-0,2.902 2.651,3.577 4.927,4.177c1.826,0.475 3.452,0.901 3.452,2.401c0.05,1.051 -0.751,2.226 -3.077,2.226Zm17.658,-12.606l-9.304,0c-0.501,0 -0.951,0.426 -0.951,0.951c0,0.525 0.425,0.925 0.951,0.925l3.601,0l0,11.431c0,0.575 0.476,1.075 1.076,1.075c0.6,0 1.075,-0.5 1.075,-1.075l0,-11.431l3.577,0c0.525,0 0.95,-0.4 0.95,-0.925c0,-0.525 -0.45,-0.951 -0.975,-0.951Zm36.767,5.828c-1.776,-0.45 -3.327,-0.85 -3.327,-2.151c0,-1.2 1.101,-2.001 2.852,-2.001c1.175,0 2.426,0.35 3.426,1.126c0.15,0.1 0.376,0.2 0.601,0.2c0.55,-0 1,-0.475 1,-1.026c0,-0.35 -0.175,-0.65 -0.45,-0.8c-1.301,-0.925 -2.676,-1.401 -4.402,-1.401c-3.152,0 -5.228,1.701 -5.228,4.052c0,2.902 2.652,3.577 4.928,4.177c1.826,0.475 3.451,0.901 3.451,2.401c0,1.026 -0.8,2.201 -3.126,2.201c-1.551,0 -2.826,-0.6 -3.777,-1.375c-0.175,-0.125 -0.4,-0.225 -0.65,-0.225c-0.55,-0 -1.026,0.475 -1.026,1.025c0,0.35 0.175,0.625 0.401,0.8c1.225,1.001 2.876,1.651 4.952,1.651c3.852,0 5.377,-2.076 5.377,-4.302c0.05,-3.001 -2.676,-3.727 -5.002,-4.352Zm-28.763,-3.977l1.951,5.178l-3.902,-0l1.951,-5.178Zm-3.527,9.455l0.7,-1.901l0.175,-0.475l5.303,-0l0.175,0.475l0.7,1.901l0.901,2.376c0.125,0.375 0.525,0.675 1,0.675c0.6,0 1.101,-0.5 1.101,-1.1c0,-0.15 -0.05,-0.301 -0.075,-0.401l-4.703,-11.78c-0.275,-0.675 -0.95,-1.201 -1.75,-1.201c-0.801,0 -1.476,0.526 -1.726,1.201l-4.702,11.78c-0.05,0.125 -0.075,0.276 -0.075,0.401c0,0.6 0.5,1.1 1.1,1.1c0.45,0 0.851,-0.3 1.001,-0.675l0.875,-2.376Zm21.56,-6.803c0,1.35 -1.226,2.451 -2.726,2.451l-3.577,-0l0,-4.878l3.577,0c1.5,0 2.726,1.101 2.726,2.427Zm-7.353,9.854c0.575,0 1.05,-0.5 1.05,-1.075l0,-4.277l3.026,-0l2.852,4.827c0.175,0.3 0.5,0.475 0.875,0.5c0.601,0.05 1.051,-0.475 1.076,-0.9c0.025,-0.351 -0.05,-0.526 -0.175,-0.676l-2.426,-4.027c1.85,-0.625 3.176,-2.276 3.176,-4.226c0,-2.477 -2.151,-4.503 -4.777,-4.503l-4.577,0c-0.751,0 -1.151,0.401 -1.151,1.126l0,12.156c-0.05,0.6 0.45,1.075 1.051,1.075Z" style="fill:#808080;fill-rule:nonzero;"/></g></svg>