<?xml version="1.0" encoding="UTF-8" standalone="no"?><!DOCTYPE svg PUBLIC "-//W3C//DTD SVG 1.1//EN" "http://www.w3.org/Graphics/SVG/1.1/DTD/svg11.dtd"><svg width="100%" height="100%" viewBox="0 0 145 47" version="1.1" xmlns="http://www.w3.org/2000/svg" xmlns:xlink="http://www.w3.org/1999/xlink" xml:space="preserve" xmlns:serif="http://www.serif.com/" style="fill-rule:evenodd;clip-rule:evenodd;stroke-linejoin:round;stroke-miterlimit:2;"><g id="Google"><path d="M18.414,36.096c-9.929,0.032 -18.158,-8.04 -18.315,-17.968c0.157,-9.928 8.386,-18.001 18.315,-17.968c4.62,-0.073 9.081,1.716 12.371,4.96l-3.474,3.454c-2.388,-2.293 -5.586,-3.556 -8.897,-3.512c-6.973,0.268 -12.564,6.078 -12.564,13.056c0,6.978 5.591,12.788 12.564,13.056c3.405,0.14 6.716,-1.164 9.11,-3.59c1.566,-1.695 2.512,-3.873 2.682,-6.175l-11.792,-0l0,-4.903l16.598,0c0.189,1.012 0.28,2.04 0.27,3.069c0.128,4.243 -1.418,8.37 -4.304,11.483c-3.276,3.393 -7.851,5.227 -12.564,5.038Zm42.517,-11.58c0,6.283 -5.171,11.454 -11.454,11.454c-6.284,0 -11.454,-5.171 -11.454,-11.454c-0,-6.284 5.17,-11.454 11.454,-11.454c6.283,-0 11.454,5.17 11.454,11.454Zm-5.018,-0c0.019,-0.203 0.029,-0.407 0.029,-0.611c0,-3.547 -2.918,-6.466 -6.465,-6.466c-3.547,0 -6.466,2.919 -6.466,6.466c0,0.204 0.01,0.408 0.029,0.611c-0.019,0.203 -0.029,0.407 -0.029,0.611c0,3.547 2.919,6.465 6.466,6.465c3.547,0 6.465,-2.918 6.465,-6.465c0,-0.204 -0.01,-0.408 -0.029,-0.611Zm30.706,-0c-0,6.283 -5.171,11.454 -11.455,11.454c-6.283,0 -11.454,-5.171 -11.454,-11.454c0,-6.284 5.171,-11.454 11.454,-11.454c6.284,-0 11.455,5.17 11.455,11.454Zm-5.018,-0c0.019,-0.203 0.029,-0.407 0.029,-0.611c-0,-3.547 -2.919,-6.466 -6.466,-6.466c-3.546,0 -6.465,2.919 -6.465,6.466c0,0.204 0.01,0.408 0.029,0.611c-0.019,0.203 -0.029,0.407 -0.029,0.611c0,3.547 2.919,6.465 6.465,6.465c3.547,0 6.466,-2.918 6.466,-6.465c-0,-0.204 -0.01,-0.408 -0.029,-0.611Zm30.049,-10.866l0,20.863c0,8.55 -5.056,12.043 -11.039,12.043c-4.496,0.03 -8.583,-2.68 -10.306,-6.832l4.439,-1.93c0.927,2.404 3.214,4.028 5.79,4.111c3.86,-0 6.214,-2.374 6.214,-6.794l0,-1.66l-0.174,0c-1.551,1.736 -3.79,2.704 -6.118,2.645c-6.352,-0 -11.579,-5.228 -11.579,-11.58c-0,-6.353 5.227,-11.58 11.579,-11.58c2.315,-0.056 4.546,0.887 6.118,2.586l0.174,0l0,-1.93l4.902,0.058Zm-4.497,10.904c0.016,-0.181 0.023,-0.364 0.023,-0.546c0,-3.471 -2.77,-6.365 -6.237,-6.517c-3.588,0.118 -6.476,3.103 -6.476,6.693c0,0.124 0.004,0.247 0.011,0.37c-0.005,0.104 -0.008,0.208 -0.008,0.312c0,3.582 2.892,6.556 6.473,6.656c3.459,-0.136 6.231,-3.018 6.231,-6.48c0,-0.156 -0.005,-0.313 -0.017,-0.468l0,-0.02Zm13.433,-23.159l-0,33.986l-5.115,0l0,-33.986l5.115,-0Zm20.071,26.942l3.957,2.625c-2.154,3.214 -5.781,5.144 -9.65,5.134c-0.054,0 -0.107,0.001 -0.16,0.001c-6.152,-0 -11.213,-5.062 -11.213,-11.213c-0,-0.123 0.002,-0.246 0.006,-0.368c-0.027,-0.306 -0.04,-0.613 -0.04,-0.92c-0,-5.844 4.809,-10.653 10.653,-10.653c4.605,-0 8.713,2.985 10.134,7.365l0.521,1.313l-15.537,6.407c0.978,2.212 3.22,3.609 5.636,3.513c2.326,0.004 4.49,-1.214 5.693,-3.204Zm-12.197,-4.169l10.383,-4.284c-0.816,-1.608 -2.524,-2.577 -4.323,-2.451c-3.368,0.157 -6.053,2.971 -6.053,6.342c0,0.132 0.004,0.263 0.012,0.393l-0.019,0Z" style="fill:#808080;fill-rule:nonzero;"/></g></svg>