<?xml version="1.0" encoding="UTF-8" standalone="no"?><!DOCTYPE svg PUBLIC "-//W3C//DTD SVG 1.1//EN" "http://www.w3.org/Graphics/SVG/1.1/DTD/svg11.dtd"><svg width="100%" height="100%" viewBox="0 0 95 31" version="1.1" xmlns="http://www.w3.org/2000/svg" xmlns:xlink="http://www.w3.org/1999/xlink" xml:space="preserve" xmlns:serif="http://www.serif.com/" style="fill-rule:evenodd;clip-rule:evenodd;stroke-linejoin:round;stroke-miterlimit:2;"><g id="Google"><path d="M12.086,23.546c-6.493,0.021 -11.875,-5.258 -11.977,-11.751c0.102,-6.492 5.484,-11.772 11.977,-11.75c3.022,-0.048 5.939,1.122 8.091,3.244l-2.272,2.259c-1.562,-1.5 -3.654,-2.326 -5.819,-2.297c-4.56,0.175 -8.216,3.974 -8.216,8.538c-0,4.564 3.656,8.363 8.216,8.538c2.227,0.092 4.392,-0.761 5.957,-2.347c1.025,-1.109 1.644,-2.533 1.755,-4.039l-7.712,0l0,-3.206l10.855,0c0.124,0.662 0.183,1.334 0.176,2.007c0.084,2.775 -0.927,5.474 -2.814,7.51c-2.143,2.218 -5.135,3.418 -8.217,3.294Zm27.805,-7.573c0,4.109 -3.381,7.491 -7.491,7.491c-4.109,-0 -7.49,-3.382 -7.49,-7.491c-0,-4.109 3.381,-7.491 7.49,-7.491c4.11,0 7.491,3.382 7.491,7.491Zm-3.281,0c0.012,-0.133 0.018,-0.266 0.018,-0.4c0,-2.319 -1.908,-4.228 -4.228,-4.228c-2.319,0 -4.228,1.909 -4.228,4.228c0,0.134 0.006,0.267 0.019,0.4c-0.013,0.133 -0.019,0.266 -0.019,0.4c0,2.319 1.909,4.228 4.228,4.228c2.32,-0 4.228,-1.909 4.228,-4.228c0,-0.134 -0.006,-0.267 -0.018,-0.4Zm20.08,0c0,4.109 -3.381,7.491 -7.491,7.491c-4.109,-0 -7.49,-3.382 -7.49,-7.491c-0,-4.109 3.381,-7.491 7.49,-7.491c4.11,0 7.491,3.382 7.491,7.491Zm-3.281,0c0.012,-0.133 0.019,-0.266 0.019,-0.4c-0,-2.319 -1.909,-4.228 -4.229,-4.228c-2.319,0 -4.228,1.909 -4.228,4.228c0,0.134 0.007,0.267 0.019,0.4c-0.012,0.133 -0.019,0.266 -0.019,0.4c0,2.319 1.909,4.228 4.228,4.228c2.32,-0 4.229,-1.909 4.229,-4.228c-0,-0.134 -0.007,-0.267 -0.019,-0.4Zm19.651,-7.106l0,13.644c0,5.591 -3.307,7.876 -7.219,7.876c-2.94,0.019 -5.613,-1.753 -6.74,-4.468l2.903,-1.262c0.606,1.572 2.102,2.634 3.786,2.688c2.524,-0 4.064,-1.552 4.064,-4.443l0,-1.085l-0.113,-0c-1.015,1.135 -2.479,1.768 -4.001,1.729c-4.155,-0 -7.573,-3.419 -7.573,-7.573c-0,-4.154 3.418,-7.573 7.573,-7.573c1.514,-0.037 2.972,0.58 4.001,1.692l0.113,-0l0,-1.263l3.206,0.038Zm-2.941,7.131c0.01,-0.119 0.015,-0.238 0.015,-0.357c0,-2.27 -1.811,-4.163 -4.079,-4.262c-2.346,0.078 -4.235,2.029 -4.235,4.377c0,0.081 0.003,0.162 0.007,0.242c-0.003,0.068 -0.005,0.136 -0.005,0.204c0,2.343 1.891,4.287 4.233,4.353c2.262,-0.089 4.075,-1.974 4.075,-4.238c0,-0.102 -0.003,-0.204 -0.011,-0.306l0,-0.013Zm8.785,-15.145l-0,22.226l-3.345,-0l0,-22.226l3.345,-0Zm13.126,17.619l2.587,1.717c-1.408,2.102 -3.78,3.363 -6.31,3.357c-0.035,0 -0.07,0.001 -0.105,0.001c-4.023,-0 -7.333,-3.311 -7.333,-7.333c-0,-0.081 0.001,-0.161 0.004,-0.241c-0.018,-0.2 -0.026,-0.401 -0.026,-0.602c-0,-3.821 3.145,-6.967 6.967,-6.967c3.011,0 5.697,1.953 6.627,4.818l0.341,0.858l-10.161,4.19c0.64,1.446 2.106,2.36 3.686,2.297c1.521,0.003 2.936,-0.793 3.723,-2.095Zm-7.977,-2.726l6.791,-2.802c-0.534,-1.052 -1.651,-1.685 -2.828,-1.603c-2.202,0.103 -3.958,1.943 -3.958,4.148c-0,0.086 0.003,0.171 0.008,0.257l-0.013,-0Z" style="fill:#808080;fill-rule:nonzero;"/></g></svg>