<?xml version="1.0" encoding="UTF-8" standalone="no"?><!DOCTYPE svg PUBLIC "-//W3C//DTD SVG 1.1//EN" "http://www.w3.org/Graphics/SVG/1.1/DTD/svg11.dtd"><svg width="100%" height="100%" viewBox="0 0 95 25" version="1.1" xmlns="http://www.w3.org/2000/svg" xmlns:xlink="http://www.w3.org/1999/xlink" xml:space="preserve" xmlns:serif="http://www.serif.com/" style="fill-rule:evenodd;clip-rule:evenodd;stroke-linejoin:round;stroke-miterlimit:2;"><g id="Griffin"><path d="M58.161,13.466l6.171,-0l-0.001,-2.353l-6.17,0l-0,-2.693l6.923,0l0,-2.405l-9.662,-0l-0,12.728l2.739,0l-0,-5.277Z" style="fill:#808080;fill-rule:nonzero;"/><path d="M69.566,13.467l6.172,0l-0,-2.354l-6.172,0l0,-2.691l6.925,-0l0,-2.407l-9.666,-0l0,12.728l2.741,0l0,-5.276Z" style="fill:#808080;fill-rule:nonzero;"/><path d="M92.246,14.337l-5.876,-8.322l-2.544,-0l0,12.728l2.544,0l-0,-8.322l5.876,8.322l2.536,0l-0,-12.728l-2.536,-0l0,8.322Z" style="fill:#808080;fill-rule:nonzero;"/><rect x="50.011" y="6.015" width="2.741" height="12.73" style="fill:#808080;fill-rule:nonzero;"/><rect x="78.412" y="6.015" width="2.742" height="12.73" style="fill:#808080;fill-rule:nonzero;"/><path d="M32.065,16.371l-0.049,0.016c-0.425,0.13 -1.151,0.206 -1.72,0.209c-2.788,-0.005 -3.93,-1.649 -3.934,-4.214c0.004,-2.567 1.144,-4.213 3.934,-4.218c1.853,-0 3.178,0.316 4.174,0.665l0,-2.401c-0.989,-0.446 -2.586,-0.72 -4.432,-0.72c-4.728,0.008 -6.429,2.701 -6.441,6.674c0.012,3.968 1.713,6.661 6.441,6.67c1.593,0 3.545,-0.302 4.715,-0.824l-0,-6.625l-4.953,0l0,2.354l2.265,0l-0,2.416" style="fill:#808080;fill-rule:nonzero;"/><path d="M45.652,13.78c1.559,-0.604 2.115,-2.136 2.115,-3.666c-0.008,-2.321 -1.062,-4.089 -4.404,-4.099l-6.107,-0l0,12.728l2.741,0l-0,-4.557l2.897,-0l2.138,4.557l3.182,0l-2.636,-4.935l0.076,-0.028m-2.549,-1.997l-3.108,-0l-0,-3.363l3.108,0c1.451,0 1.769,0.88 1.769,1.694c0.014,0.811 -0.322,1.651 -1.769,1.669Z" style="fill:#808080;fill-rule:nonzero;"/><path d="M18.513,22.26l-0,-16.38c-0,-0.062 -0.039,-0.104 -0.109,-0.104c-0.768,-0.002 -5.378,-0 -6.207,-0c-3.496,-0 -6.331,2.827 -6.331,6.323c-0,3.496 2.833,6.331 6.331,6.331c0.996,0 1.938,-0.232 2.776,-0.641l-0,2.135c-0,-0 0.01,0.149 -0.127,0.191c-0.834,0.276 -1.721,0.434 -2.649,0.434c-4.666,-0.009 -8.44,-3.782 -8.448,-8.448c-0,-4.663 3.777,-8.451 8.438,-8.454l6.213,-0c0,-0 0.111,0.009 0.111,-0.111l0,-3.42c0,-0.104 -0.102,-0.106 -0.102,-0.106l-6.361,0c-6.606,0.081 -11.939,5.462 -11.939,12.091c-0,6.628 5.41,12.09 12.09,12.09c1.021,-0 2.006,-0.141 2.951,-0.378c1.181,-0.297 2.254,-0.752 3.266,-1.367c0,0 0.099,-0.043 0.099,-0.184m-3.54,-12.783l-0,2.622c-0.002,1.53 -1.246,2.768 -2.776,2.772c-1.53,-0.004 -2.767,-1.241 -2.771,-2.772c0.004,-1.529 1.241,-2.745 2.771,-2.764c-0.004,0 2.63,0 2.637,0c0.077,0 0.139,0.044 0.139,0.142Z" style="fill:#808080;fill-rule:nonzero;"/></g></svg>