<?xml version="1.0" encoding="UTF-8" standalone="no"?><!DOCTYPE svg PUBLIC "-//W3C//DTD SVG 1.1//EN" "http://www.w3.org/Graphics/SVG/1.1/DTD/svg11.dtd"><svg width="100%" height="100%" viewBox="0 0 95 81" version="1.1" xmlns="http://www.w3.org/2000/svg" xmlns:xlink="http://www.w3.org/1999/xlink" xml:space="preserve" xmlns:serif="http://www.serif.com/" style="fill-rule:evenodd;clip-rule:evenodd;stroke-linejoin:round;stroke-miterlimit:2;"><g id="LP"><path d="M25.704,13.105l-12.816,-0l0,41.376l30.704,-0l0,-11.456l-17.888,-0l0,-29.92Zm39.952,-0l-17.936,-0l0,41.424l12.848,-0l0,-11.296l4.544,-0c11.024,-0 17.888,-5.824 17.888,-15.216l0,-0.112c-0.032,-9.168 -6.672,-14.8 -17.344,-14.8Zm-5.088,11.072l4.272,-0c2.448,-0 5.392,0.736 5.392,4.192l0,0.112c0,2.64 -2.064,4.272 -5.312,4.272l-4.352,-0l0,-8.576Z" style="fill:#808080;fill-rule:nonzero;"/><path d="M70.344,51.777c0,1.792 -1.312,2.88 -2.88,2.88c-1.568,-0 -2.88,-1.12 -2.88,-2.88c0,-1.76 1.312,-2.88 2.88,-2.88c1.568,-0 2.88,1.088 2.88,2.88Zm-0.496,-0c0,-1.52 -1.088,-2.448 -2.368,-2.448c-1.28,-0 -2.368,0.928 -2.368,2.448c0,1.52 1.088,2.448 2.368,2.448c1.28,-0 2.368,-0.944 2.368,-2.448Zm-1.632,0.272l0.736,1.28l-0.848,-0l-0.624,-1.2l-0.352,-0l0,1.2l-0.784,-0l0,-3.152l1.36,-0c0.736,-0 1.168,0.352 1.168,1.008c-0.032,0.4 -0.272,0.704 -0.656,0.864Zm-1.12,-0.464l0.432,-0c0.304,-0 0.512,-0.16 0.512,-0.432c0,-0.272 -0.16,-0.432 -0.512,-0.432l-0.432,-0l0,0.864Z" style="fill:#808080;fill-rule:nonzero;"/><path d="M7,71.857l-0.544,-0l0,1.488l0.544,-0c0.512,-0 0.704,-0.304 0.704,-0.784c0,-0.432 -0.192,-0.704 -0.704,-0.704Zm0.048,2.272l-0.624,-0l0,1.584l0.624,-0c0.528,0.016 0.736,-0.304 0.736,-0.768c0,-0.512 -0.24,-0.816 -0.736,-0.816Zm0,-0l-0.624,-0l0,1.584l0.624,-0c0.528,0.016 0.736,-0.304 0.736,-0.768c0,-0.512 -0.24,-0.816 -0.736,-0.816Zm-0.048,-2.272l-0.544,-0l0,1.488l0.544,-0c0.512,-0 0.704,-0.304 0.704,-0.784c0,-0.432 -0.192,-0.704 -0.704,-0.704Zm0,-0l-0.544,-0l0,1.488l0.544,-0c0.512,-0 0.704,-0.304 0.704,-0.784c0,-0.432 -0.192,-0.704 -0.704,-0.704Zm0.048,2.272l-0.624,-0l0,1.584l0.624,-0c0.528,0.016 0.736,-0.304 0.736,-0.768c0,-0.512 -0.24,-0.816 -0.736,-0.816Zm0,-0l-0.624,-0l0,1.584l0.624,-0c0.528,0.016 0.736,-0.304 0.736,-0.768c0,-0.512 -0.24,-0.816 -0.736,-0.816Zm-0.048,-2.272l-0.544,-0l0,1.488l0.544,-0c0.512,-0 0.704,-0.304 0.704,-0.784c0,-0.432 -0.192,-0.704 -0.704,-0.704Zm0,-0l-0.544,-0l0,1.488l0.544,-0c0.512,-0 0.704,-0.304 0.704,-0.784c0,-0.432 -0.192,-0.704 -0.704,-0.704Zm0.048,2.272l-0.624,-0l0,1.584l0.624,-0c0.528,0.016 0.736,-0.304 0.736,-0.768c0,-0.512 -0.24,-0.816 -0.736,-0.816Zm18.544,-2.16l-0.576,-0l0,3.76l0.544,-0l0,-0.048c0.704,-0 1.088,-0.656 1.088,-1.856c0,-1.36 -0.352,-1.856 -1.056,-1.856Zm0,-0l-0.576,-0l0,3.76l0.544,-0l0,-0.048c0.704,-0 1.088,-0.656 1.088,-1.856c0,-1.36 -0.352,-1.856 -1.056,-1.856Zm-18.544,2.16l-0.624,-0l0,1.584l0.624,-0c0.528,0.016 0.736,-0.304 0.736,-0.768c0,-0.512 -0.24,-0.816 -0.736,-0.816Zm-0.048,-2.272l-0.544,-0l0,1.488l0.544,-0c0.512,-0 0.704,-0.304 0.704,-0.784c0,-0.432 -0.192,-0.704 -0.704,-0.704Zm0,-0l-0.544,-0l0,1.488l0.544,-0c0.512,-0 0.704,-0.304 0.704,-0.784c0,-0.432 -0.192,-0.704 -0.704,-0.704Zm0.048,2.272l-0.624,-0l0,1.584l0.624,-0c0.528,0.016 0.736,-0.304 0.736,-0.768c0,-0.512 -0.24,-0.816 -0.736,-0.816Zm18.544,-2.16l-0.576,-0l0,3.76l0.544,-0l0,-0.048c0.704,-0 1.088,-0.656 1.088,-1.856c0,-1.36 -0.352,-1.856 -1.056,-1.856Zm0,-0l-0.576,-0l0,3.76l0.544,-0l0,-0.048c0.704,-0 1.088,-0.656 1.088,-1.856c0,-1.36 -0.352,-1.856 -1.056,-1.856Zm-18.544,2.16l-0.624,-0l0,1.584l0.624,-0c0.528,0.016 0.736,-0.304 0.736,-0.768c0,-0.512 -0.24,-0.816 -0.736,-0.816Zm-0.048,-2.272l-0.544,-0l0,1.488l0.544,-0c0.512,-0 0.704,-0.304 0.704,-0.784c0,-0.432 -0.192,-0.704 -0.704,-0.704Zm0,-0l-0.544,-0l0,1.488l0.544,-0c0.512,-0 0.704,-0.304 0.704,-0.784c0,-0.432 -0.192,-0.704 -0.704,-0.704Zm0.048,2.272l-0.624,-0l0,1.584l0.624,-0c0.528,0.016 0.736,-0.304 0.736,-0.768c0,-0.512 -0.24,-0.816 -0.736,-0.816Zm18.544,-2.16l-0.576,-0l0,3.76l0.544,-0l0,-0.048c0.704,-0 1.088,-0.656 1.088,-1.856c0,-1.36 -0.352,-1.856 -1.056,-1.856Zm27.952,-0.08c-0.624,-0 -0.976,0.432 -0.976,1.936c0,1.504 0.352,1.936 0.976,1.936c0.576,-0.032 0.928,-0.464 0.928,-1.936c0,-1.472 -0.352,-1.936 -0.928,-1.936Zm0,-0c-0.624,-0 -0.976,0.432 -0.976,1.936c0,1.504 0.352,1.936 0.976,1.936c0.576,-0.032 0.928,-0.464 0.928,-1.936c0,-1.472 -0.352,-1.936 -0.928,-1.936Zm-27.952,0.08l-0.576,-0l0,3.76l0.544,-0l0,-0.048c0.704,-0 1.088,-0.656 1.088,-1.856c0,-1.36 -0.352,-1.856 -1.056,-1.856Zm-18.544,2.16l-0.624,-0l0,1.584l0.624,-0c0.528,0.016 0.736,-0.304 0.736,-0.768c0,-0.512 -0.24,-0.816 -0.736,-0.816Zm-0.048,-2.272l-0.544,-0l0,1.488l0.544,-0c0.512,-0 0.704,-0.304 0.704,-0.784c0,-0.432 -0.192,-0.704 -0.704,-0.704Zm0,-0l-0.544,-0l0,1.488l0.544,-0c0.512,-0 0.704,-0.304 0.704,-0.784c0,-0.432 -0.192,-0.704 -0.704,-0.704Zm0.048,2.272l-0.624,-0l0,1.584l0.624,-0c0.528,0.016 0.736,-0.304 0.736,-0.768c0,-0.512 -0.24,-0.816 -0.736,-0.816Zm18.544,-2.16l-0.576,-0l0,3.76l0.544,-0l0,-0.048c0.704,-0 1.088,-0.656 1.088,-1.856c0,-1.36 -0.352,-1.856 -1.056,-1.856Zm27.952,-0.08c-0.624,-0 -0.976,0.432 -0.976,1.936c0,1.504 0.352,1.936 0.976,1.936c0.576,-0.032 0.928,-0.464 0.928,-1.936c0,-1.472 -0.352,-1.936 -0.928,-1.936Zm0,-0c-0.624,-0 -0.976,0.432 -0.976,1.936c0,1.504 0.352,1.936 0.976,1.936c0.576,-0.032 0.928,-0.464 0.928,-1.936c0,-1.472 -0.352,-1.936 -0.928,-1.936Zm-27.952,0.08l-0.576,-0l0,3.76l0.544,-0l0,-0.048c0.704,-0 1.088,-0.656 1.088,-1.856c0,-1.36 -0.352,-1.856 -1.056,-1.856Zm-18.544,2.16l-0.624,-0l0,1.584l0.624,-0c0.528,0.016 0.736,-0.304 0.736,-0.768c0,-0.512 -0.24,-0.816 -0.736,-0.816Zm-0.048,-2.272l-0.544,-0l0,1.488l0.544,-0c0.512,-0 0.704,-0.304 0.704,-0.784c0,-0.432 -0.192,-0.704 -0.704,-0.704Zm0,-0l-0.544,-0l0,1.488l0.544,-0c0.512,-0 0.704,-0.304 0.704,-0.784c0,-0.432 -0.192,-0.704 -0.704,-0.704Zm0.048,2.272l-0.624,-0l0,1.584l0.624,-0c0.528,0.016 0.736,-0.304 0.736,-0.768c0,-0.512 -0.24,-0.816 -0.736,-0.816Zm18.544,-2.16l-0.576,-0l0,3.76l0.544,-0l0,-0.048c0.704,-0 1.088,-0.656 1.088,-1.856c0,-1.36 -0.352,-1.856 -1.056,-1.856Zm27.952,-0.08c-0.624,-0 -0.976,0.432 -0.976,1.936c0,1.504 0.352,1.936 0.976,1.936c0.576,-0.032 0.928,-0.464 0.928,-1.936c0,-1.472 -0.352,-1.936 -0.928,-1.936Zm0,-0c-0.624,-0 -0.976,0.432 -0.976,1.936c0,1.504 0.352,1.936 0.976,1.936c0.576,-0.032 0.928,-0.464 0.928,-1.936c0,-1.472 -0.352,-1.936 -0.928,-1.936Zm-27.952,0.08l-0.576,-0l0,3.76l0.544,-0l0,-0.048c0.704,-0 1.088,-0.656 1.088,-1.856c0,-1.36 -0.352,-1.856 -1.056,-1.856Zm-18.544,2.16l-0.624,-0l0,1.584l0.624,-0c0.528,0.016 0.736,-0.304 0.736,-0.768c0,-0.512 -0.24,-0.816 -0.736,-0.816Zm-0.048,-2.272l-0.544,-0l0,1.488l0.544,-0c0.512,-0 0.704,-0.304 0.704,-0.784c0,-0.432 -0.192,-0.704 -0.704,-0.704Zm0,-0l-0.544,-0l0,1.488l0.544,-0c0.512,-0 0.704,-0.304 0.704,-0.784c0,-0.432 -0.192,-0.704 -0.704,-0.704Zm0.048,2.272l-0.624,-0l0,1.584l0.624,-0c0.528,0.016 0.736,-0.304 0.736,-0.768c0,-0.512 -0.24,-0.816 -0.736,-0.816Zm18.544,-2.16l-0.576,-0l0,3.76l0.544,-0l0,-0.048c0.704,-0 1.088,-0.656 1.088,-1.856c0,-1.36 -0.352,-1.856 -1.056,-1.856Zm27.952,-0.08c-0.624,-0 -0.976,0.432 -0.976,1.936c0,1.504 0.352,1.936 0.976,1.936c0.576,-0.032 0.928,-0.464 0.928,-1.936c0,-1.472 -0.352,-1.936 -0.928,-1.936Zm23.52,-0c-0.624,-0 -0.976,0.432 -0.976,1.936c0,1.504 0.352,1.936 0.976,1.936c0.576,-0.032 0.928,-0.464 0.928,-1.936c0,-1.472 -0.352,-1.936 -0.928,-1.936Zm0,-0c-0.624,-0 -0.976,0.432 -0.976,1.936c0,1.504 0.352,1.936 0.976,1.936c0.576,-0.032 0.928,-0.464 0.928,-1.936c0,-1.472 -0.352,-1.936 -0.928,-1.936Zm-23.52,-0c-0.624,-0 -0.976,0.432 -0.976,1.936c0,1.504 0.352,1.936 0.976,1.936c0.576,-0.032 0.928,-0.464 0.928,-1.936c0,-1.472 -0.352,-1.936 -0.928,-1.936Zm-27.952,0.08l-0.576,-0l0,3.76l0.544,-0l0,-0.048c0.704,-0 1.088,-0.656 1.088,-1.856c0,-1.36 -0.352,-1.856 -1.056,-1.856Zm-18.544,2.16l-0.624,-0l0,1.584l0.624,-0c0.528,0.016 0.736,-0.304 0.736,-0.768c0,-0.512 -0.24,-0.816 -0.736,-0.816Zm0.656,-1.568c0,-0.432 -0.192,-0.704 -0.704,-0.704l-0.544,-0l0,1.488l0.544,-0c0.512,-0 0.704,-0.304 0.704,-0.784Zm-7.696,-72.384l0,80l94.32,-0l0,-80l-94.32,-0Zm7.344,76.352l-2.064,-0l0,-5.504l2.016,-0c1.168,-0 1.664,0.624 1.664,1.472c0,0.544 -0.304,1.008 -0.896,1.168c0.64,0.16 0.992,0.624 0.992,1.312c0,0.928 -0.576,1.552 -1.712,1.552Zm7.152,-1.584c0,1.088 -0.704,1.744 -1.936,1.744c-1.232,-0 -1.952,-0.704 -1.952,-1.744l0,-3.888l1.12,-0l0,3.808c0,0.512 0.272,0.816 0.784,0.816c0.464,-0 0.784,-0.304 0.784,-0.816l0,-3.808l1.2,-0l0,3.888Zm2.928,1.584l-1.2,-0l0,-5.504l1.2,-0l0,5.504Zm4.864,0.032l-2.992,-0l0,-5.504l1.2,-0l0,4.496l1.792,-0l0,1.008Zm3.216,-0l-1.776,-0l0,-5.504l1.824,-0c1.44,-0 2.288,0.816 2.288,2.752c0,1.936 -0.896,2.752 -2.336,2.752Zm5.168,-0.032l-1.2,-0l0,-5.504l1.2,-0l0,5.504Zm5.888,0.08l-1.248,-0l-1.472,-2.992c-0.16,-0.304 -0.24,-0.576 -0.272,-0.928l0,3.92l-1.12,-0l0,-5.552l1.36,-0l1.392,2.88c0.112,0.272 0.192,0.544 0.272,0.928l0,-3.76l1.088,-0l0,5.504Zm5.776,-0.064l-0.896,-0l-0.032,-0.848c-0.192,0.624 -0.656,0.976 -1.36,0.976c-1.232,0.016 -1.92,-0.88 -1.92,-2.928c0,-1.936 0.816,-2.832 2.176,-2.832c1.248,-0 1.904,0.624 1.984,1.712l-1.2,0.24c-0.032,-0.704 -0.272,-1.056 -0.816,-1.056c-0.624,-0 -0.928,0.464 -0.928,1.904c0,1.52 0.304,2.016 0.976,2.016c0.576,-0 0.848,-0.464 0.848,-1.2l0,-0.16l-0.928,-0l0,-0.896l2.096,-0l0,3.072Zm5.68,-3.344l0.784,0.272c0.816,0.272 1.168,0.784 1.168,1.584c0,1.008 -0.704,1.712 -1.904,1.712c-1.008,-0.08 -1.712,-0.656 -1.984,-1.632l1.056,-0.464c0.192,0.736 0.512,1.056 1.056,1.056c0.432,-0 0.656,-0.272 0.656,-0.624c0,-0.384 -0.16,-0.576 -0.624,-0.736l-0.784,-0.24c-0.784,-0.24 -1.168,-0.816 -1.168,-1.584c0,-1.008 0.784,-1.584 1.856,-1.584c1.008,-0 1.712,0.384 1.904,1.392l-0.976,0.512c-0.16,-0.704 -0.512,-0.976 -1.008,-0.976c-0.384,-0 -0.656,0.24 -0.656,0.576c0,0.336 0.192,0.576 0.624,0.736Zm5.488,3.504c-1.36,-0 -2.176,-0.864 -2.176,-2.88c0,-2.016 0.816,-2.88 2.176,-2.88c1.36,-0 2.176,0.816 2.176,2.88c0,2.064 -0.816,2.88 -2.176,2.88Zm6.784,-0.144l-2.992,-0l0,-5.504l1.2,-0l0,4.496l1.792,-0l0,1.008Zm5.248,-1.616c0,1.088 -0.704,1.744 -1.936,1.744c-1.232,-0 -1.936,-0.704 -1.936,-1.744l0,-3.888l1.104,-0l0,3.808c0,0.512 0.272,0.816 0.784,0.816c0.464,-0 0.784,-0.304 0.784,-0.816l0,-3.808l1.2,-0l0,3.888Zm5.168,-2.912l-1.328,-0l0,4.496l-1.2,-0l0,-4.496l-1.312,-0l0,-0.976l3.84,-0l0,0.976Zm2.576,4.496l-1.2,-0l0,-5.504l1.2,-0l0,5.504Zm3.744,0.176c-1.36,-0.016 -2.176,-0.864 -2.176,-2.88c0,-2.016 0.816,-2.88 2.176,-2.88c1.36,-0 2.176,0.816 2.176,2.88c0,2.064 -0.816,2.88 -2.176,2.88Zm7.856,-0.096l-1.2,-0l-1.472,-2.992c-0.16,-0.304 -0.24,-0.576 -0.272,-0.928l0,3.92l-1.12,-0l0,-5.552l1.312,-0l1.392,2.88c0.112,0.272 0.192,0.544 0.272,0.928l0,-3.76l1.088,-0l0,5.504Zm3.312,-3.408l0.784,0.272c0.816,0.272 1.168,0.784 1.168,1.584c0,1.008 -0.704,1.712 -1.904,1.712c-1.008,-0.08 -1.712,-0.656 -1.984,-1.632l1.056,-0.464c0.192,0.736 0.512,1.056 1.056,1.056c0.432,-0 0.656,-0.272 0.656,-0.624c0,-0.384 -0.16,-0.576 -0.624,-0.736l-0.784,-0.24c-0.784,-0.24 -1.168,-0.816 -1.168,-1.584c0,-1.008 0.784,-1.584 1.856,-1.584c1.008,-0 1.712,0.384 1.904,1.392l-0.976,0.512c-0.16,-0.704 -0.512,-0.976 -1.008,-0.976c-0.384,-0 -0.656,0.24 -0.656,0.576c0,0.336 0.192,0.576 0.624,0.736Zm4.528,-5.712l-91.12,-0l0,-65.712l91.12,-0l0,65.712Zm-15.664,4.4c-0.624,-0 -0.976,0.432 -0.976,1.936c0,1.504 0.352,1.936 0.976,1.936c0.576,-0.032 0.928,-0.464 0.928,-1.936c0,-1.472 -0.352,-1.936 -0.928,-1.936Zm-23.52,-0c-0.624,-0 -0.976,0.432 -0.976,1.936c0,1.504 0.352,1.936 0.976,1.936c0.576,-0.032 0.928,-0.464 0.928,-1.936c0,-1.472 -0.352,-1.936 -0.928,-1.936Zm-27.952,0.08l-0.576,-0l0,3.76l0.544,-0l0,-0.048c0.704,-0 1.088,-0.656 1.088,-1.856c0,-1.36 -0.352,-1.856 -1.056,-1.856Zm-18.544,2.16l-0.624,-0l0,1.584l0.624,-0c0.528,0.016 0.736,-0.304 0.736,-0.768c0,-0.512 -0.24,-0.816 -0.736,-0.816Zm0.656,-1.568c0,-0.432 -0.192,-0.704 -0.704,-0.704l-0.544,-0l0,1.488l0.544,-0c0.512,-0 0.704,-0.304 0.704,-0.784Zm-0.704,-0.704l-0.544,-0l0,1.488l0.544,-0c0.512,-0 0.704,-0.304 0.704,-0.784c0,-0.432 -0.192,-0.704 -0.704,-0.704Zm0.048,2.272l-0.624,-0l0,1.584l0.624,-0c0.528,0.016 0.736,-0.304 0.736,-0.768c0,-0.512 -0.24,-0.816 -0.736,-0.816Zm18.544,-2.16l-0.576,-0l0,3.76l0.544,-0l0,-0.048c0.704,-0 1.088,-0.656 1.088,-1.856c0,-1.36 -0.352,-1.856 -1.056,-1.856Zm27.952,-0.08c-0.624,-0 -0.976,0.432 -0.976,1.936c0,1.504 0.352,1.936 0.976,1.936c0.576,-0.032 0.928,-0.464 0.928,-1.936c0,-1.472 -0.352,-1.936 -0.928,-1.936Zm23.52,-0c-0.624,-0 -0.976,0.432 -0.976,1.936c0,1.504 0.352,1.936 0.976,1.936c0.576,-0.032 0.928,-0.464 0.928,-1.936c0,-1.472 -0.352,-1.936 -0.928,-1.936Zm0,-0c-0.624,-0 -0.976,0.432 -0.976,1.936c0,1.504 0.352,1.936 0.976,1.936c0.576,-0.032 0.928,-0.464 0.928,-1.936c0,-1.472 -0.352,-1.936 -0.928,-1.936Zm-23.52,-0c-0.624,-0 -0.976,0.432 -0.976,1.936c0,1.504 0.352,1.936 0.976,1.936c0.576,-0.032 0.928,-0.464 0.928,-1.936c0,-1.472 -0.352,-1.936 -0.928,-1.936Zm-27.952,0.08l-0.576,-0l0,3.76l0.544,-0l0,-0.048c0.704,-0 1.088,-0.656 1.088,-1.856c0,-1.36 -0.352,-1.856 -1.056,-1.856Zm-18.544,2.16l-0.624,-0l0,1.584l0.624,-0c0.528,0.016 0.736,-0.304 0.736,-0.768c0,-0.512 -0.24,-0.816 -0.736,-0.816Zm-0.048,-2.272l-0.544,-0l0,1.488l0.544,-0c0.512,-0 0.704,-0.304 0.704,-0.784c0,-0.432 -0.192,-0.704 -0.704,-0.704Zm0,-0l-0.544,-0l0,1.488l0.544,-0c0.512,-0 0.704,-0.304 0.704,-0.784c0,-0.432 -0.192,-0.704 -0.704,-0.704Zm0.048,2.272l-0.624,-0l0,1.584l0.624,-0c0.528,0.016 0.736,-0.304 0.736,-0.768c0,-0.512 -0.24,-0.816 -0.736,-0.816Zm18.544,-2.16l-0.576,-0l0,3.76l0.544,-0l0,-0.048c0.704,-0 1.088,-0.656 1.088,-1.856c0,-1.36 -0.352,-1.856 -1.056,-1.856Zm27.952,-0.08c-0.624,-0 -0.976,0.432 -0.976,1.936c0,1.504 0.352,1.936 0.976,1.936c0.576,-0.032 0.928,-0.464 0.928,-1.936c0,-1.472 -0.352,-1.936 -0.928,-1.936Zm0,-0c-0.624,-0 -0.976,0.432 -0.976,1.936c0,1.504 0.352,1.936 0.976,1.936c0.576,-0.032 0.928,-0.464 0.928,-1.936c0,-1.472 -0.352,-1.936 -0.928,-1.936Zm-27.952,0.08l-0.576,-0l0,3.76l0.544,-0l0,-0.048c0.704,-0 1.088,-0.656 1.088,-1.856c0,-1.36 -0.352,-1.856 -1.056,-1.856Zm-18.544,2.16l-0.624,-0l0,1.584l0.624,-0c0.528,0.016 0.736,-0.304 0.736,-0.768c0,-0.512 -0.24,-0.816 -0.736,-0.816Zm-0.048,-2.272l-0.544,-0l0,1.488l0.544,-0c0.512,-0 0.704,-0.304 0.704,-0.784c0,-0.432 -0.192,-0.704 -0.704,-0.704Zm0,-0l-0.544,-0l0,1.488l0.544,-0c0.512,-0 0.704,-0.304 0.704,-0.784c0,-0.432 -0.192,-0.704 -0.704,-0.704Zm0.048,2.272l-0.624,-0l0,1.584l0.624,-0c0.528,0.016 0.736,-0.304 0.736,-0.768c0,-0.512 -0.24,-0.816 -0.736,-0.816Zm18.544,-2.16l-0.576,-0l0,3.76l0.544,-0l0,-0.048c0.704,-0 1.088,-0.656 1.088,-1.856c0,-1.36 -0.352,-1.856 -1.056,-1.856Zm27.952,-0.08c-0.624,-0 -0.976,0.432 -0.976,1.936c0,1.504 0.352,1.936 0.976,1.936c0.576,-0.032 0.928,-0.464 0.928,-1.936c0,-1.472 -0.352,-1.936 -0.928,-1.936Zm0,-0c-0.624,-0 -0.976,0.432 -0.976,1.936c0,1.504 0.352,1.936 0.976,1.936c0.576,-0.032 0.928,-0.464 0.928,-1.936c0,-1.472 -0.352,-1.936 -0.928,-1.936Zm-27.952,0.08l-0.576,-0l0,3.76l0.544,-0l0,-0.048c0.704,-0 1.088,-0.656 1.088,-1.856c0,-1.36 -0.352,-1.856 -1.056,-1.856Zm-18.544,2.16l-0.624,-0l0,1.584l0.624,-0c0.528,0.016 0.736,-0.304 0.736,-0.768c0,-0.512 -0.24,-0.816 -0.736,-0.816Zm-0.048,-2.272l-0.544,-0l0,1.488l0.544,-0c0.512,-0 0.704,-0.304 0.704,-0.784c0,-0.432 -0.192,-0.704 -0.704,-0.704Zm0,-0l-0.544,-0l0,1.488l0.544,-0c0.512,-0 0.704,-0.304 0.704,-0.784c0,-0.432 -0.192,-0.704 -0.704,-0.704Zm0.048,2.272l-0.624,-0l0,1.584l0.624,-0c0.528,0.016 0.736,-0.304 0.736,-0.768c0,-0.512 -0.24,-0.816 -0.736,-0.816Zm18.544,-2.16l-0.576,-0l0,3.76l0.544,-0l0,-0.048c0.704,-0 1.088,-0.656 1.088,-1.856c0,-1.36 -0.352,-1.856 -1.056,-1.856Zm0,-0l-0.576,-0l0,3.76l0.544,-0l0,-0.048c0.704,-0 1.088,-0.656 1.088,-1.856c0,-1.36 -0.352,-1.856 -1.056,-1.856Zm-18.544,2.16l-0.624,-0l0,1.584l0.624,-0c0.528,0.016 0.736,-0.304 0.736,-0.768c0,-0.512 -0.24,-0.816 -0.736,-0.816Zm-0.048,-2.272l-0.544,-0l0,1.488l0.544,-0c0.512,-0 0.704,-0.304 0.704,-0.784c0,-0.432 -0.192,-0.704 -0.704,-0.704Zm0,-0l-0.544,-0l0,1.488l0.544,-0c0.512,-0 0.704,-0.304 0.704,-0.784c0,-0.432 -0.192,-0.704 -0.704,-0.704Zm0.048,2.272l-0.624,-0l0,1.584l0.624,-0c0.528,0.016 0.736,-0.304 0.736,-0.768c0,-0.512 -0.24,-0.816 -0.736,-0.816Zm18.544,-2.16l-0.576,-0l0,3.76l0.544,-0l0,-0.048c0.704,-0 1.088,-0.656 1.088,-1.856c0,-1.36 -0.352,-1.856 -1.056,-1.856Zm0,-0l-0.576,-0l0,3.76l0.544,-0l0,-0.048c0.704,-0 1.088,-0.656 1.088,-1.856c0,-1.36 -0.352,-1.856 -1.056,-1.856Zm-18.544,2.16l-0.624,-0l0,1.584l0.624,-0c0.528,0.016 0.736,-0.304 0.736,-0.768c0,-0.512 -0.24,-0.816 -0.736,-0.816Zm-0.048,-2.272l-0.544,-0l0,1.488l0.544,-0c0.512,-0 0.704,-0.304 0.704,-0.784c0,-0.432 -0.192,-0.704 -0.704,-0.704Zm0,-0l-0.544,-0l0,1.488l0.544,-0c0.512,-0 0.704,-0.304 0.704,-0.784c0,-0.432 -0.192,-0.704 -0.704,-0.704Zm0.048,2.272l-0.624,-0l0,1.584l0.624,-0c0.528,0.016 0.736,-0.304 0.736,-0.768c0,-0.512 -0.24,-0.816 -0.736,-0.816Zm18.544,-2.16l-0.576,-0l0,3.76l0.544,-0l0,-0.048c0.704,-0 1.088,-0.656 1.088,-1.856c0,-1.36 -0.352,-1.856 -1.056,-1.856Zm0,-0l-0.576,-0l0,3.76l0.544,-0l0,-0.048c0.704,-0 1.088,-0.656 1.088,-1.856c0,-1.36 -0.352,-1.856 -1.056,-1.856Zm-18.544,2.16l-0.624,-0l0,1.584l0.624,-0c0.528,0.016 0.736,-0.304 0.736,-0.768c0,-0.512 -0.24,-0.816 -0.736,-0.816Zm-0.048,-2.272l-0.544,-0l0,1.488l0.544,-0c0.512,-0 0.704,-0.304 0.704,-0.784c0,-0.432 -0.192,-0.704 -0.704,-0.704Zm0,-0l-0.544,-0l0,1.488l0.544,-0c0.512,-0 0.704,-0.304 0.704,-0.784c0,-0.432 -0.192,-0.704 -0.704,-0.704Zm0.048,2.272l-0.624,-0l0,1.584l0.624,-0c0.528,0.016 0.736,-0.304 0.736,-0.768c0,-0.512 -0.24,-0.816 -0.736,-0.816Zm0,-0l-0.624,-0l0,1.584l0.624,-0c0.528,0.016 0.736,-0.304 0.736,-0.768c0,-0.512 -0.24,-0.816 -0.736,-0.816Zm-0.048,-2.272l-0.544,-0l0,1.488l0.544,-0c0.512,-0 0.704,-0.304 0.704,-0.784c0,-0.432 -0.192,-0.704 -0.704,-0.704Zm0,-0l-0.544,-0l0,1.488l0.544,-0c0.512,-0 0.704,-0.304 0.704,-0.784c0,-0.432 -0.192,-0.704 -0.704,-0.704Zm0.048,2.272l-0.624,-0l0,1.584l0.624,-0c0.528,0.016 0.736,-0.304 0.736,-0.768c0,-0.512 -0.24,-0.816 -0.736,-0.816Zm0,-0l-0.624,-0l0,1.584l0.624,-0c0.528,0.016 0.736,-0.304 0.736,-0.768c0,-0.512 -0.24,-0.816 -0.736,-0.816Zm-0.048,-2.272l-0.544,-0l0,1.488l0.544,-0c0.512,-0 0.704,-0.304 0.704,-0.784c0,-0.432 -0.192,-0.704 -0.704,-0.704Z" style="fill:#808080;fill-rule:nonzero;"/></g></svg>