<?xml version="1.0" encoding="UTF-8" standalone="no"?><!DOCTYPE svg PUBLIC "-//W3C//DTD SVG 1.1//EN" "http://www.w3.org/Graphics/SVG/1.1/DTD/svg11.dtd"><svg width="100%" height="100%" viewBox="0 0 64 54" version="1.1" xmlns="http://www.w3.org/2000/svg" xmlns:xlink="http://www.w3.org/1999/xlink" xml:space="preserve" xmlns:serif="http://www.serif.com/" style="fill-rule:evenodd;clip-rule:evenodd;stroke-linejoin:round;stroke-miterlimit:2;"><g id="LP"><path d="M17.263,8.81l-8.563,-0l-0,27.646l20.516,0l-0,-7.655l-11.953,0l0,-19.991Zm26.695,-0l-11.984,-0l-0,27.678l8.585,0l-0,-7.548l3.036,0c7.366,0 11.952,-3.891 11.952,-10.167l0,-0.074c-0.021,-6.126 -4.458,-9.889 -11.589,-9.889Zm-3.399,7.398l2.854,-0c1.636,-0 3.603,0.491 3.603,2.801l-0,0.075c-0,1.763 -1.379,2.854 -3.55,2.854l-2.907,-0l-0,-5.73Z" style="fill:#808080;fill-rule:nonzero;"/><path d="M47.091,34.649c-0,1.198 -0.877,1.925 -1.925,1.925c-1.047,-0 -1.924,-0.749 -1.924,-1.925c-0,-1.176 0.877,-1.924 1.924,-1.924c1.048,-0 1.925,0.727 1.925,1.924Zm-0.332,0c0,-1.015 -0.727,-1.635 -1.582,-1.635c-0.855,-0 -1.582,0.62 -1.582,1.635c-0,1.016 0.727,1.636 1.582,1.636c0.855,0 1.582,-0.631 1.582,-1.636Zm-1.09,0.182l0.492,0.855l-0.567,0l-0.417,-0.801l-0.235,-0l-0,0.801l-0.524,0l-0,-2.106l0.909,0c0.491,0 0.78,0.235 0.78,0.674c-0.021,0.267 -0.182,0.47 -0.438,0.577Zm-0.749,-0.31l0.289,0c0.203,0 0.342,-0.107 0.342,-0.289c0,-0.181 -0.107,-0.288 -0.342,-0.288l-0.289,-0l0,0.577Z" style="fill:#808080;fill-rule:nonzero;"/><path d="M4.766,48.066l-0.364,0l0,0.995l0.364,-0c0.342,-0 0.47,-0.204 0.47,-0.524c0,-0.289 -0.128,-0.471 -0.47,-0.471Zm0.032,1.518l-0.417,0l-0,1.059l0.417,-0c0.353,0.011 0.492,-0.203 0.492,-0.513c-0,-0.342 -0.161,-0.546 -0.492,-0.546Zm-0,0l-0.417,0l-0,1.059l0.417,-0c0.353,0.011 0.492,-0.203 0.492,-0.513c-0,-0.342 -0.161,-0.546 -0.492,-0.546Zm-0.032,-1.518l-0.364,0l0,0.995l0.364,-0c0.342,-0 0.47,-0.204 0.47,-0.524c0,-0.289 -0.128,-0.471 -0.47,-0.471Zm-0,0l-0.364,0l0,0.995l0.364,-0c0.342,-0 0.47,-0.204 0.47,-0.524c0,-0.289 -0.128,-0.471 -0.47,-0.471Zm0.032,1.518l-0.417,0l-0,1.059l0.417,-0c0.353,0.011 0.492,-0.203 0.492,-0.513c-0,-0.342 -0.161,-0.546 -0.492,-0.546Zm-0,0l-0.417,0l-0,1.059l0.417,-0c0.353,0.011 0.492,-0.203 0.492,-0.513c-0,-0.342 -0.161,-0.546 -0.492,-0.546Zm-0.032,-1.518l-0.364,0l0,0.995l0.364,-0c0.342,-0 0.47,-0.204 0.47,-0.524c0,-0.289 -0.128,-0.471 -0.47,-0.471Zm-0,0l-0.364,0l0,0.995l0.364,-0c0.342,-0 0.47,-0.204 0.47,-0.524c0,-0.289 -0.128,-0.471 -0.47,-0.471Zm0.032,1.518l-0.417,0l-0,1.059l0.417,-0c0.353,0.011 0.492,-0.203 0.492,-0.513c-0,-0.342 -0.161,-0.546 -0.492,-0.546Zm12.39,-1.443l-0.384,0l-0,2.513l0.363,-0l0,-0.033c0.47,0 0.727,-0.438 0.727,-1.24c0,-0.908 -0.235,-1.24 -0.706,-1.24Zm0,0l-0.384,0l-0,2.513l0.363,-0l0,-0.033c0.47,0 0.727,-0.438 0.727,-1.24c0,-0.908 -0.235,-1.24 -0.706,-1.24Zm-12.39,1.443l-0.417,0l-0,1.059l0.417,-0c0.353,0.011 0.492,-0.203 0.492,-0.513c-0,-0.342 -0.161,-0.546 -0.492,-0.546Zm-0.032,-1.518l-0.364,0l0,0.995l0.364,-0c0.342,-0 0.47,-0.204 0.47,-0.524c0,-0.289 -0.128,-0.471 -0.47,-0.471Zm-0,0l-0.364,0l0,0.995l0.364,-0c0.342,-0 0.47,-0.204 0.47,-0.524c0,-0.289 -0.128,-0.471 -0.47,-0.471Zm0.032,1.518l-0.417,0l-0,1.059l0.417,-0c0.353,0.011 0.492,-0.203 0.492,-0.513c-0,-0.342 -0.161,-0.546 -0.492,-0.546Zm12.39,-1.443l-0.384,0l-0,2.513l0.363,-0l0,-0.033c0.47,0 0.727,-0.438 0.727,-1.24c0,-0.908 -0.235,-1.24 -0.706,-1.24Zm0,0l-0.384,0l-0,2.513l0.363,-0l0,-0.033c0.47,0 0.727,-0.438 0.727,-1.24c0,-0.908 -0.235,-1.24 -0.706,-1.24Zm-12.39,1.443l-0.417,0l-0,1.059l0.417,-0c0.353,0.011 0.492,-0.203 0.492,-0.513c-0,-0.342 -0.161,-0.546 -0.492,-0.546Zm-0.032,-1.518l-0.364,0l0,0.995l0.364,-0c0.342,-0 0.47,-0.204 0.47,-0.524c0,-0.289 -0.128,-0.471 -0.47,-0.471Zm-0,0l-0.364,0l0,0.995l0.364,-0c0.342,-0 0.47,-0.204 0.47,-0.524c0,-0.289 -0.128,-0.471 -0.47,-0.471Zm0.032,1.518l-0.417,0l-0,1.059l0.417,-0c0.353,0.011 0.492,-0.203 0.492,-0.513c-0,-0.342 -0.161,-0.546 -0.492,-0.546Zm12.39,-1.443l-0.384,0l-0,2.513l0.363,-0l0,-0.033c0.47,0 0.727,-0.438 0.727,-1.24c0,-0.908 -0.235,-1.24 -0.706,-1.24Zm18.677,-0.053c-0.417,-0 -0.652,0.288 -0.652,1.293c0,1.005 0.235,1.294 0.652,1.294c0.385,-0.021 0.62,-0.31 0.62,-1.294c0,-0.983 -0.235,-1.293 -0.62,-1.293Zm0,-0c-0.417,-0 -0.652,0.288 -0.652,1.293c0,1.005 0.235,1.294 0.652,1.294c0.385,-0.021 0.62,-0.31 0.62,-1.294c0,-0.983 -0.235,-1.293 -0.62,-1.293Zm-18.677,0.053l-0.384,0l-0,2.513l0.363,-0l0,-0.033c0.47,0 0.727,-0.438 0.727,-1.24c0,-0.908 -0.235,-1.24 -0.706,-1.24Zm-12.39,1.443l-0.417,0l-0,1.059l0.417,-0c0.353,0.011 0.492,-0.203 0.492,-0.513c-0,-0.342 -0.161,-0.546 -0.492,-0.546Zm-0.032,-1.518l-0.364,0l0,0.995l0.364,-0c0.342,-0 0.47,-0.204 0.47,-0.524c0,-0.289 -0.128,-0.471 -0.47,-0.471Zm-0,0l-0.364,0l0,0.995l0.364,-0c0.342,-0 0.47,-0.204 0.47,-0.524c0,-0.289 -0.128,-0.471 -0.47,-0.471Zm0.032,1.518l-0.417,0l-0,1.059l0.417,-0c0.353,0.011 0.492,-0.203 0.492,-0.513c-0,-0.342 -0.161,-0.546 -0.492,-0.546Zm12.39,-1.443l-0.384,0l-0,2.513l0.363,-0l0,-0.033c0.47,0 0.727,-0.438 0.727,-1.24c0,-0.908 -0.235,-1.24 -0.706,-1.24Zm18.677,-0.053c-0.417,-0 -0.652,0.288 -0.652,1.293c0,1.005 0.235,1.294 0.652,1.294c0.385,-0.021 0.62,-0.31 0.62,-1.294c0,-0.983 -0.235,-1.293 -0.62,-1.293Zm0,-0c-0.417,-0 -0.652,0.288 -0.652,1.293c0,1.005 0.235,1.294 0.652,1.294c0.385,-0.021 0.62,-0.31 0.62,-1.294c0,-0.983 -0.235,-1.293 -0.62,-1.293Zm-18.677,0.053l-0.384,0l-0,2.513l0.363,-0l0,-0.033c0.47,0 0.727,-0.438 0.727,-1.24c0,-0.908 -0.235,-1.24 -0.706,-1.24Zm-12.39,1.443l-0.417,0l-0,1.059l0.417,-0c0.353,0.011 0.492,-0.203 0.492,-0.513c-0,-0.342 -0.161,-0.546 -0.492,-0.546Zm-0.032,-1.518l-0.364,0l0,0.995l0.364,-0c0.342,-0 0.47,-0.204 0.47,-0.524c0,-0.289 -0.128,-0.471 -0.47,-0.471Zm-0,0l-0.364,0l0,0.995l0.364,-0c0.342,-0 0.47,-0.204 0.47,-0.524c0,-0.289 -0.128,-0.471 -0.47,-0.471Zm0.032,1.518l-0.417,0l-0,1.059l0.417,-0c0.353,0.011 0.492,-0.203 0.492,-0.513c-0,-0.342 -0.161,-0.546 -0.492,-0.546Zm12.39,-1.443l-0.384,0l-0,2.513l0.363,-0l0,-0.033c0.47,0 0.727,-0.438 0.727,-1.24c0,-0.908 -0.235,-1.24 -0.706,-1.24Zm18.677,-0.053c-0.417,-0 -0.652,0.288 -0.652,1.293c0,1.005 0.235,1.294 0.652,1.294c0.385,-0.021 0.62,-0.31 0.62,-1.294c0,-0.983 -0.235,-1.293 -0.62,-1.293Zm0,-0c-0.417,-0 -0.652,0.288 -0.652,1.293c0,1.005 0.235,1.294 0.652,1.294c0.385,-0.021 0.62,-0.31 0.62,-1.294c0,-0.983 -0.235,-1.293 -0.62,-1.293Zm-18.677,0.053l-0.384,0l-0,2.513l0.363,-0l0,-0.033c0.47,0 0.727,-0.438 0.727,-1.24c0,-0.908 -0.235,-1.24 -0.706,-1.24Zm-12.39,1.443l-0.417,0l-0,1.059l0.417,-0c0.353,0.011 0.492,-0.203 0.492,-0.513c-0,-0.342 -0.161,-0.546 -0.492,-0.546Zm-0.032,-1.518l-0.364,0l0,0.995l0.364,-0c0.342,-0 0.47,-0.204 0.47,-0.524c0,-0.289 -0.128,-0.471 -0.47,-0.471Zm-0,0l-0.364,0l0,0.995l0.364,-0c0.342,-0 0.47,-0.204 0.47,-0.524c0,-0.289 -0.128,-0.471 -0.47,-0.471Zm0.032,1.518l-0.417,0l-0,1.059l0.417,-0c0.353,0.011 0.492,-0.203 0.492,-0.513c-0,-0.342 -0.161,-0.546 -0.492,-0.546Zm12.39,-1.443l-0.384,0l-0,2.513l0.363,-0l0,-0.033c0.47,0 0.727,-0.438 0.727,-1.24c0,-0.908 -0.235,-1.24 -0.706,-1.24Zm18.677,-0.053c-0.417,-0 -0.652,0.288 -0.652,1.293c0,1.005 0.235,1.294 0.652,1.294c0.385,-0.021 0.62,-0.31 0.62,-1.294c0,-0.983 -0.235,-1.293 -0.62,-1.293Zm15.716,-0c-0.417,-0 -0.652,0.288 -0.652,1.293c-0,1.005 0.235,1.294 0.652,1.294c0.385,-0.021 0.62,-0.31 0.62,-1.294c-0,-0.983 -0.235,-1.293 -0.62,-1.293Zm-0,-0c-0.417,-0 -0.652,0.288 -0.652,1.293c-0,1.005 0.235,1.294 0.652,1.294c0.385,-0.021 0.62,-0.31 0.62,-1.294c-0,-0.983 -0.235,-1.293 -0.62,-1.293Zm-15.716,-0c-0.417,-0 -0.652,0.288 -0.652,1.293c0,1.005 0.235,1.294 0.652,1.294c0.385,-0.021 0.62,-0.31 0.62,-1.294c0,-0.983 -0.235,-1.293 -0.62,-1.293Zm-18.677,0.053l-0.384,0l-0,2.513l0.363,-0l0,-0.033c0.47,0 0.727,-0.438 0.727,-1.24c0,-0.908 -0.235,-1.24 -0.706,-1.24Zm-12.39,1.443l-0.417,0l-0,1.059l0.417,-0c0.353,0.011 0.492,-0.203 0.492,-0.513c-0,-0.342 -0.161,-0.546 -0.492,-0.546Zm0.438,-1.047c0,-0.289 -0.128,-0.471 -0.47,-0.471l-0.364,0l0,0.995l0.364,-0c0.342,-0 0.47,-0.204 0.47,-0.524Zm-5.142,-48.366l-0,53.455l63.022,-0l0,-53.455l-63.022,0Zm4.907,51.017l-1.379,0l-0,-3.678l1.347,0c0.78,0 1.112,0.417 1.112,0.984c-0,0.363 -0.203,0.673 -0.599,0.78c0.428,0.107 0.663,0.417 0.663,0.877c-0,0.62 -0.385,1.037 -1.144,1.037Zm4.779,-1.058c-0,0.727 -0.471,1.165 -1.294,1.165c-0.823,-0 -1.304,-0.47 -1.304,-1.165l-0,-2.598l0.748,-0l0,2.544c0,0.342 0.182,0.545 0.524,0.545c0.31,0 0.524,-0.203 0.524,-0.545l-0,-2.544l0.802,-0l-0,2.598Zm1.956,1.058l-0.802,0l0,-3.678l0.802,0l0,3.678Zm3.25,0.021l-1.999,0l-0,-3.677l0.802,-0l-0,3.004l1.197,-0l0,0.673Zm2.149,0l-1.187,0l0,-3.677l1.219,-0c0.962,-0 1.529,0.545 1.529,1.839c-0,1.293 -0.599,1.838 -1.561,1.838Zm3.453,-0.021l-0.802,0l0,-3.678l0.802,0l0,3.678Zm3.934,0.053l-0.834,0l-0.983,-1.999c-0.107,-0.203 -0.16,-0.385 -0.182,-0.62l0,2.619l-0.748,0l-0,-3.709l0.909,-0l0.93,1.924c0.074,0.182 0.128,0.364 0.181,0.62l0,-2.512l0.727,-0l0,3.677Zm3.86,-0.042l-0.599,-0l-0.021,-0.567c-0.129,0.417 -0.439,0.652 -0.909,0.652c-0.823,0.011 -1.283,-0.588 -1.283,-1.956c0,-1.294 0.545,-1.892 1.454,-1.892c0.834,-0 1.272,0.417 1.326,1.143l-0.802,0.161c-0.022,-0.471 -0.182,-0.706 -0.545,-0.706c-0.417,0 -0.62,0.31 -0.62,1.272c-0,1.016 0.203,1.348 0.652,1.348c0.385,-0 0.566,-0.311 0.566,-0.802l0,-0.107l-0.62,-0l0,-0.599l1.401,0l-0,2.053Zm3.795,-2.235l0.524,0.182c0.545,0.182 0.78,0.524 0.78,1.058c0,0.674 -0.47,1.144 -1.272,1.144c-0.673,-0.053 -1.144,-0.438 -1.326,-1.09l0.706,-0.31c0.128,0.492 0.342,0.706 0.706,0.706c0.288,-0 0.438,-0.182 0.438,-0.417c-0,-0.257 -0.107,-0.385 -0.417,-0.492l-0.524,-0.161c-0.524,-0.16 -0.78,-0.545 -0.78,-1.058c-0,-0.673 0.524,-1.058 1.24,-1.058c0.673,-0 1.144,0.256 1.272,0.93l-0.652,0.342c-0.107,-0.471 -0.342,-0.652 -0.674,-0.652c-0.256,-0 -0.438,0.16 -0.438,0.385c0,0.224 0.128,0.384 0.417,0.491Zm3.667,2.342c-0.909,-0 -1.454,-0.578 -1.454,-1.925c-0,-1.347 0.545,-1.924 1.454,-1.924c0.909,-0 1.454,0.545 1.454,1.924c-0,1.379 -0.545,1.925 -1.454,1.925Zm4.533,-0.097l-1.999,0l-0,-3.677l0.801,-0l0,3.004l1.198,-0l-0,0.673Zm3.506,-1.079c0,0.727 -0.47,1.165 -1.293,1.165c-0.823,-0 -1.294,-0.47 -1.294,-1.165l0,-2.598l0.738,-0l-0,2.544c-0,0.342 0.182,0.545 0.524,0.545c0.31,0 0.524,-0.203 0.524,-0.545l-0,-2.544l0.801,-0l0,2.598Zm3.454,-1.946l-0.888,-0l0,3.004l-0.802,0l0,-3.004l-0.876,-0l-0,-0.652l2.566,-0l-0,0.652Zm1.721,3.004l-0.802,0l-0,-3.678l0.802,0l-0,3.678Zm2.501,0.118c-0.908,-0.011 -1.454,-0.578 -1.454,-1.925c0,-1.347 0.546,-1.924 1.454,-1.924c0.909,-0 1.454,0.545 1.454,1.924c0,1.379 -0.545,1.925 -1.454,1.925Zm5.25,-0.065l-0.802,0l-0.984,-1.999c-0.107,-0.203 -0.16,-0.385 -0.181,-0.62l-0,2.619l-0.749,0l0,-3.709l0.877,-0l0.93,1.924c0.075,0.182 0.128,0.364 0.182,0.62l-0,-2.512l0.727,-0l-0,3.677Zm2.213,-2.277l0.523,0.182c0.546,0.182 0.781,0.524 0.781,1.058c-0,0.674 -0.47,1.144 -1.272,1.144c-0.674,-0.053 -1.144,-0.438 -1.326,-1.09l0.706,-0.31c0.128,0.492 0.342,0.706 0.705,0.706c0.289,-0 0.439,-0.182 0.439,-0.417c-0,-0.257 -0.107,-0.385 -0.417,-0.492l-0.524,-0.161c-0.524,-0.16 -0.781,-0.545 -0.781,-1.058c0,-0.673 0.524,-1.058 1.24,-1.058c0.674,-0 1.144,0.256 1.273,0.93l-0.652,0.342c-0.107,-0.471 -0.343,-0.652 -0.674,-0.652c-0.257,-0 -0.438,0.16 -0.438,0.385c-0,0.224 0.128,0.384 0.417,0.491Zm3.025,-3.816l-60.884,-0l-0,-43.907l60.884,-0l0,43.907Zm-10.466,2.94c-0.417,-0 -0.652,0.288 -0.652,1.293c-0,1.005 0.235,1.294 0.652,1.294c0.385,-0.021 0.62,-0.31 0.62,-1.294c-0,-0.983 -0.235,-1.293 -0.62,-1.293Zm-15.716,-0c-0.417,-0 -0.652,0.288 -0.652,1.293c0,1.005 0.235,1.294 0.652,1.294c0.385,-0.021 0.62,-0.31 0.62,-1.294c0,-0.983 -0.235,-1.293 -0.62,-1.293Zm-18.677,0.053l-0.384,0l-0,2.513l0.363,-0l0,-0.033c0.47,0 0.727,-0.438 0.727,-1.24c0,-0.908 -0.235,-1.24 -0.706,-1.24Zm-12.39,1.443l-0.417,0l-0,1.059l0.417,-0c0.353,0.011 0.492,-0.203 0.492,-0.513c-0,-0.342 -0.161,-0.546 -0.492,-0.546Zm0.438,-1.047c0,-0.289 -0.128,-0.471 -0.47,-0.471l-0.364,0l0,0.995l0.364,-0c0.342,-0 0.47,-0.204 0.47,-0.524Zm-0.47,-0.471l-0.364,0l0,0.995l0.364,-0c0.342,-0 0.47,-0.204 0.47,-0.524c0,-0.289 -0.128,-0.471 -0.47,-0.471Zm0.032,1.518l-0.417,0l-0,1.059l0.417,-0c0.353,0.011 0.492,-0.203 0.492,-0.513c-0,-0.342 -0.161,-0.546 -0.492,-0.546Zm12.39,-1.443l-0.384,0l-0,2.513l0.363,-0l0,-0.033c0.47,0 0.727,-0.438 0.727,-1.24c0,-0.908 -0.235,-1.24 -0.706,-1.24Zm18.677,-0.053c-0.417,-0 -0.652,0.288 -0.652,1.293c0,1.005 0.235,1.294 0.652,1.294c0.385,-0.021 0.62,-0.31 0.62,-1.294c0,-0.983 -0.235,-1.293 -0.62,-1.293Zm15.716,-0c-0.417,-0 -0.652,0.288 -0.652,1.293c-0,1.005 0.235,1.294 0.652,1.294c0.385,-0.021 0.62,-0.31 0.62,-1.294c-0,-0.983 -0.235,-1.293 -0.62,-1.293Zm-0,-0c-0.417,-0 -0.652,0.288 -0.652,1.293c-0,1.005 0.235,1.294 0.652,1.294c0.385,-0.021 0.62,-0.31 0.62,-1.294c-0,-0.983 -0.235,-1.293 -0.62,-1.293Zm-15.716,-0c-0.417,-0 -0.652,0.288 -0.652,1.293c0,1.005 0.235,1.294 0.652,1.294c0.385,-0.021 0.62,-0.31 0.62,-1.294c0,-0.983 -0.235,-1.293 -0.62,-1.293Zm-18.677,0.053l-0.384,0l-0,2.513l0.363,-0l0,-0.033c0.47,0 0.727,-0.438 0.727,-1.24c0,-0.908 -0.235,-1.24 -0.706,-1.24Zm-12.39,1.443l-0.417,0l-0,1.059l0.417,-0c0.353,0.011 0.492,-0.203 0.492,-0.513c-0,-0.342 -0.161,-0.546 -0.492,-0.546Zm-0.032,-1.518l-0.364,0l0,0.995l0.364,-0c0.342,-0 0.47,-0.204 0.47,-0.524c0,-0.289 -0.128,-0.471 -0.47,-0.471Zm-0,0l-0.364,0l0,0.995l0.364,-0c0.342,-0 0.47,-0.204 0.47,-0.524c0,-0.289 -0.128,-0.471 -0.47,-0.471Zm0.032,1.518l-0.417,0l-0,1.059l0.417,-0c0.353,0.011 0.492,-0.203 0.492,-0.513c-0,-0.342 -0.161,-0.546 -0.492,-0.546Zm12.39,-1.443l-0.384,0l-0,2.513l0.363,-0l0,-0.033c0.47,0 0.727,-0.438 0.727,-1.24c0,-0.908 -0.235,-1.24 -0.706,-1.24Zm18.677,-0.053c-0.417,-0 -0.652,0.288 -0.652,1.293c0,1.005 0.235,1.294 0.652,1.294c0.385,-0.021 0.62,-0.31 0.62,-1.294c0,-0.983 -0.235,-1.293 -0.62,-1.293Zm0,-0c-0.417,-0 -0.652,0.288 -0.652,1.293c0,1.005 0.235,1.294 0.652,1.294c0.385,-0.021 0.62,-0.31 0.62,-1.294c0,-0.983 -0.235,-1.293 -0.62,-1.293Zm-18.677,0.053l-0.384,0l-0,2.513l0.363,-0l0,-0.033c0.47,0 0.727,-0.438 0.727,-1.24c0,-0.908 -0.235,-1.24 -0.706,-1.24Zm-12.39,1.443l-0.417,0l-0,1.059l0.417,-0c0.353,0.011 0.492,-0.203 0.492,-0.513c-0,-0.342 -0.161,-0.546 -0.492,-0.546Zm-0.032,-1.518l-0.364,0l0,0.995l0.364,-0c0.342,-0 0.47,-0.204 0.47,-0.524c0,-0.289 -0.128,-0.471 -0.47,-0.471Zm-0,0l-0.364,0l0,0.995l0.364,-0c0.342,-0 0.47,-0.204 0.47,-0.524c0,-0.289 -0.128,-0.471 -0.47,-0.471Zm0.032,1.518l-0.417,0l-0,1.059l0.417,-0c0.353,0.011 0.492,-0.203 0.492,-0.513c-0,-0.342 -0.161,-0.546 -0.492,-0.546Zm12.39,-1.443l-0.384,0l-0,2.513l0.363,-0l0,-0.033c0.47,0 0.727,-0.438 0.727,-1.24c0,-0.908 -0.235,-1.24 -0.706,-1.24Zm18.677,-0.053c-0.417,-0 -0.652,0.288 -0.652,1.293c0,1.005 0.235,1.294 0.652,1.294c0.385,-0.021 0.62,-0.31 0.62,-1.294c0,-0.983 -0.235,-1.293 -0.62,-1.293Zm0,-0c-0.417,-0 -0.652,0.288 -0.652,1.293c0,1.005 0.235,1.294 0.652,1.294c0.385,-0.021 0.62,-0.31 0.62,-1.294c0,-0.983 -0.235,-1.293 -0.62,-1.293Zm-18.677,0.053l-0.384,0l-0,2.513l0.363,-0l0,-0.033c0.47,0 0.727,-0.438 0.727,-1.24c0,-0.908 -0.235,-1.24 -0.706,-1.24Zm-12.39,1.443l-0.417,0l-0,1.059l0.417,-0c0.353,0.011 0.492,-0.203 0.492,-0.513c-0,-0.342 -0.161,-0.546 -0.492,-0.546Zm-0.032,-1.518l-0.364,0l0,0.995l0.364,-0c0.342,-0 0.47,-0.204 0.47,-0.524c0,-0.289 -0.128,-0.471 -0.47,-0.471Zm-0,0l-0.364,0l0,0.995l0.364,-0c0.342,-0 0.47,-0.204 0.47,-0.524c0,-0.289 -0.128,-0.471 -0.47,-0.471Zm0.032,1.518l-0.417,0l-0,1.059l0.417,-0c0.353,0.011 0.492,-0.203 0.492,-0.513c-0,-0.342 -0.161,-0.546 -0.492,-0.546Zm12.39,-1.443l-0.384,0l-0,2.513l0.363,-0l0,-0.033c0.47,0 0.727,-0.438 0.727,-1.24c0,-0.908 -0.235,-1.24 -0.706,-1.24Zm0,0l-0.384,0l-0,2.513l0.363,-0l0,-0.033c0.47,0 0.727,-0.438 0.727,-1.24c0,-0.908 -0.235,-1.24 -0.706,-1.24Zm-12.39,1.443l-0.417,0l-0,1.059l0.417,-0c0.353,0.011 0.492,-0.203 0.492,-0.513c-0,-0.342 -0.161,-0.546 -0.492,-0.546Zm-0.032,-1.518l-0.364,0l0,0.995l0.364,-0c0.342,-0 0.47,-0.204 0.47,-0.524c0,-0.289 -0.128,-0.471 -0.47,-0.471Zm-0,0l-0.364,0l0,0.995l0.364,-0c0.342,-0 0.47,-0.204 0.47,-0.524c0,-0.289 -0.128,-0.471 -0.47,-0.471Zm0.032,1.518l-0.417,0l-0,1.059l0.417,-0c0.353,0.011 0.492,-0.203 0.492,-0.513c-0,-0.342 -0.161,-0.546 -0.492,-0.546Zm12.39,-1.443l-0.384,0l-0,2.513l0.363,-0l0,-0.033c0.47,0 0.727,-0.438 0.727,-1.24c0,-0.908 -0.235,-1.24 -0.706,-1.24Zm0,0l-0.384,0l-0,2.513l0.363,-0l0,-0.033c0.47,0 0.727,-0.438 0.727,-1.24c0,-0.908 -0.235,-1.24 -0.706,-1.24Zm-12.39,1.443l-0.417,0l-0,1.059l0.417,-0c0.353,0.011 0.492,-0.203 0.492,-0.513c-0,-0.342 -0.161,-0.546 -0.492,-0.546Zm-0.032,-1.518l-0.364,0l0,0.995l0.364,-0c0.342,-0 0.47,-0.204 0.47,-0.524c0,-0.289 -0.128,-0.471 -0.47,-0.471Zm-0,0l-0.364,0l0,0.995l0.364,-0c0.342,-0 0.47,-0.204 0.47,-0.524c0,-0.289 -0.128,-0.471 -0.47,-0.471Zm0.032,1.518l-0.417,0l-0,1.059l0.417,-0c0.353,0.011 0.492,-0.203 0.492,-0.513c-0,-0.342 -0.161,-0.546 -0.492,-0.546Zm12.39,-1.443l-0.384,0l-0,2.513l0.363,-0l0,-0.033c0.47,0 0.727,-0.438 0.727,-1.24c0,-0.908 -0.235,-1.24 -0.706,-1.24Zm0,0l-0.384,0l-0,2.513l0.363,-0l0,-0.033c0.47,0 0.727,-0.438 0.727,-1.24c0,-0.908 -0.235,-1.24 -0.706,-1.24Zm-12.39,1.443l-0.417,0l-0,1.059l0.417,-0c0.353,0.011 0.492,-0.203 0.492,-0.513c-0,-0.342 -0.161,-0.546 -0.492,-0.546Zm-0.032,-1.518l-0.364,0l0,0.995l0.364,-0c0.342,-0 0.47,-0.204 0.47,-0.524c0,-0.289 -0.128,-0.471 -0.47,-0.471Zm-0,0l-0.364,0l0,0.995l0.364,-0c0.342,-0 0.47,-0.204 0.47,-0.524c0,-0.289 -0.128,-0.471 -0.47,-0.471Zm0.032,1.518l-0.417,0l-0,1.059l0.417,-0c0.353,0.011 0.492,-0.203 0.492,-0.513c-0,-0.342 -0.161,-0.546 -0.492,-0.546Zm-0,0l-0.417,0l-0,1.059l0.417,-0c0.353,0.011 0.492,-0.203 0.492,-0.513c-0,-0.342 -0.161,-0.546 -0.492,-0.546Zm-0.032,-1.518l-0.364,0l0,0.995l0.364,-0c0.342,-0 0.47,-0.204 0.47,-0.524c0,-0.289 -0.128,-0.471 -0.47,-0.471Zm-0,0l-0.364,0l0,0.995l0.364,-0c0.342,-0 0.47,-0.204 0.47,-0.524c0,-0.289 -0.128,-0.471 -0.47,-0.471Zm0.032,1.518l-0.417,0l-0,1.059l0.417,-0c0.353,0.011 0.492,-0.203 0.492,-0.513c-0,-0.342 -0.161,-0.546 -0.492,-0.546Zm-0,0l-0.417,0l-0,1.059l0.417,-0c0.353,0.011 0.492,-0.203 0.492,-0.513c-0,-0.342 -0.161,-0.546 -0.492,-0.546Zm-0.032,-1.518l-0.364,0l0,0.995l0.364,-0c0.342,-0 0.47,-0.204 0.47,-0.524c0,-0.289 -0.128,-0.471 -0.47,-0.471Z" style="fill:#808080;fill-rule:nonzero;"/></g></svg>