<?xml version="1.0" encoding="UTF-8" standalone="no"?><!DOCTYPE svg PUBLIC "-//W3C//DTD SVG 1.1//EN" "http://www.w3.org/Graphics/SVG/1.1/DTD/svg11.dtd"><svg width="100%" height="100%" viewBox="0 0 116 27" version="1.1" xmlns="http://www.w3.org/2000/svg" xmlns:xlink="http://www.w3.org/1999/xlink" xml:space="preserve" xmlns:serif="http://www.serif.com/" style="fill-rule:evenodd;clip-rule:evenodd;stroke-linejoin:round;stroke-miterlimit:2;"><g id="Onshape"><path d="M11.613,0.078l4.456,2.583l-11.722,6.943l0,5.974l-4.262,-2.486l0,-6.297l11.528,-6.717Zm11.626,20.053l-4.457,2.648l-0,-13.271l-5.392,-3.166l4.52,-2.615l5.329,3.099l-0,13.305Zm-23.154,-4.811l0,4.907l11.658,6.685l5.198,-3.067l-0.032,-5.102l-5.296,3.165l-11.528,-6.588Z" style="fill:#808080;"/><path d="M6.22,13.124l1.971,1.131l-0,-2.552l5.359,-3.132l-1.937,-1.194l-5.393,3.164l0,2.583Zm8.493,-3.875l-1.969,1.131l2.26,1.324l-0.032,6.038l1.969,-1.13l-0,-6.071l-2.228,-1.292Zm-0.872,7.007l0,2.196l-2.228,1.324l-5.393,-3.132l0,-2.196l5.361,3.132l2.26,-1.324Zm55.962,-12.269l-0,5.972c0.387,-0.516 0.871,-0.937 1.421,-1.323c0.568,-0.365 1.23,-0.556 1.905,-0.55c0.71,0 1.324,0.098 1.841,0.291c0.516,0.194 0.968,0.518 1.356,0.904c0.872,0.873 1.324,2.034 1.324,3.456l0,6.263l-1.615,0l0,-6.167c0,-1.001 -0.291,-1.775 -0.839,-2.357c-0.549,-0.581 -1.293,-0.872 -2.164,-0.872c-0.904,0 -1.68,0.291 -2.294,0.905c-0.644,0.613 -0.935,1.388 -0.935,2.358l-0,6.199l-1.616,-0l0,-15.079l1.616,-0Zm-8.332,5.521c1.648,-0 2.553,0.549 2.681,1.679l-0,-0.065l1.615,-0c-0.099,-0.872 -0.452,-1.582 -1.098,-2.099c-0.743,-0.614 -1.776,-0.937 -3.1,-0.937c-1.39,0 -2.423,0.259 -3.132,0.808c-0.711,0.518 -1.066,1.292 -1.066,2.26c-0,0.678 0.16,1.163 0.516,1.551c0.355,0.355 0.808,0.645 1.324,0.872c0.549,0.225 1.13,0.387 1.744,0.516c0.646,0.13 1.227,0.259 1.743,0.42c0.518,0.161 0.969,0.355 1.324,0.581c0.356,0.259 0.518,0.581 0.518,1.034c0,0.646 -0.356,1.13 -1.034,1.388l-0.111,0.033c-0.28,0.087 -0.54,0.164 -0.826,0.193c-0.322,0.032 -0.678,0.065 -1.032,0.065c-0.373,0.008 -0.744,-0.047 -1.099,-0.162c-1.033,-0.355 -1.582,-1.001 -1.679,-2.002l-1.679,0c0.065,1.033 0.484,1.841 1.26,2.487c0.838,0.71 2.001,1.065 3.422,1.065c1.357,0 2.422,-0.291 3.198,-0.839c0.806,-0.549 1.194,-1.357 1.194,-2.39c0,-0.678 -0.161,-1.196 -0.518,-1.583c-0.353,-0.387 -0.806,-0.678 -1.323,-0.904c-0.564,-0.225 -1.147,-0.398 -1.743,-0.516c-0.541,-0.082 -1.036,-0.207 -1.486,-0.322l-0.002,-0l-0.257,-0.065c-0.467,-0.112 -0.914,-0.297 -1.324,-0.549c-0.355,-0.227 -0.516,-0.55 -0.516,-0.969c-0,-1.033 0.839,-1.55 2.486,-1.55Zm-23.249,-1.388c1.615,-0 2.906,0.548 3.907,1.614c0.937,1.033 1.42,2.357 1.42,3.939c0,1.583 -0.484,2.906 -1.42,3.94c-1.001,1.066 -2.293,1.614 -3.909,1.614c-1.614,0 -2.904,-0.548 -3.906,-1.615c-0.937,-1.033 -1.42,-2.356 -1.42,-3.939c0,-1.582 0.483,-2.906 1.42,-3.939c1.002,-1.066 2.294,-1.616 3.908,-1.616l-0,0.002Zm-0,9.622c1.162,-0 2.066,-0.388 2.744,-1.195c0.646,-0.774 0.969,-1.711 0.969,-2.873c0,-1.164 -0.323,-2.133 -0.969,-2.875c-0.678,-0.807 -1.582,-1.195 -2.744,-1.195c-1.163,0 -2.067,0.388 -2.745,1.196c-0.646,0.774 -0.969,1.71 -0.969,2.873c-0,1.163 0.323,2.132 0.969,2.874c0.646,0.807 1.582,1.196 2.745,1.196l-0,-0.001Zm9.074,-9.429l0,1.678c0.387,-0.518 0.872,-0.937 1.421,-1.324c0.548,-0.355 1.194,-0.549 1.904,-0.549c0.711,0 1.325,0.097 1.841,0.29c0.517,0.194 0.969,0.518 1.357,0.905c0.871,0.872 1.324,2.035 1.324,3.455l-0,6.263l-1.615,0l-0,-6.199c-0,-1.001 -0.291,-1.775 -0.839,-2.357c-0.55,-0.581 -1.292,-0.872 -2.164,-0.872c-0.905,-0 -1.679,0.291 -2.293,0.905c-0.646,0.613 -0.937,1.388 -0.937,2.356l-0,6.202l-1.615,-0l-0,-10.754l1.615,-0l0.001,0.001Zm37.587,10.914c1.711,0 2.971,-0.646 3.843,-1.905l-0,1.712l1.615,-0l0,-10.754l-1.615,-0l-0,1.745c-0.872,-1.261 -2.132,-1.905 -3.746,-1.905c-1.615,-0 -2.906,0.548 -3.875,1.614c-0.937,1.065 -1.422,2.389 -1.422,3.939c0,1.583 0.485,2.874 1.422,3.94c0.969,1.066 2.228,1.614 3.778,1.614Zm2.971,-2.68c-0.678,0.807 -1.583,1.196 -2.746,1.196c-1.161,-0 -2.098,-0.389 -2.776,-1.196c-0.678,-0.742 -1.001,-1.711 -1.001,-2.873c-0,-1.164 0.323,-2.1 1.001,-2.875c0.71,-0.807 1.647,-1.195 2.778,-1.195c1.161,0 2.066,0.388 2.744,1.196c0.645,0.742 0.968,1.71 0.968,2.873c0,1.163 -0.322,2.1 -0.968,2.874Zm6.878,-6.522c0.871,-1.261 2.131,-1.905 3.843,-1.905c1.55,-0 2.808,0.548 3.746,1.614c0.969,1.065 1.453,2.357 1.453,3.939c0,1.55 -0.484,2.874 -1.453,3.94c-0.97,1.066 -2.26,1.614 -3.876,1.614c-1.615,0 -2.872,-0.646 -3.745,-1.905l-0,6.006l-1.616,0l0,-15.014l1.616,0l-0,1.712l0.032,-0l-0,-0.001Zm3.649,-0.453c-1.162,0 -2.066,0.387 -2.744,1.196c-0.646,0.774 -0.969,1.71 -0.969,2.873c-0,1.162 0.323,2.132 0.969,2.874c0.678,0.807 1.582,1.196 2.744,1.196c1.13,-0 2.067,-0.389 2.777,-1.196c0.678,-0.774 1.001,-1.712 1.001,-2.873c0,-1.164 -0.323,-2.133 -1.001,-2.875c-0.71,-0.775 -1.647,-1.195 -2.777,-1.195Zm15.404,6.362c-0.614,1.195 -1.648,1.808 -3.101,1.808c-1.066,-0 -1.937,-0.323 -2.615,-1.002c-0.679,-0.644 -1.066,-1.452 -1.196,-2.453l9.01,-0l0,-0.646c0,-1.582 -0.484,-2.906 -1.42,-3.939c-1.001,-1.066 -2.294,-1.616 -3.909,-1.616c-1.614,0 -2.905,0.55 -3.906,1.616c-0.937,1.033 -1.421,2.357 -1.421,3.939c-0,1.583 0.484,2.906 1.485,3.939c1.001,1.067 2.326,1.615 3.94,1.615c1.292,0 2.325,-0.291 3.131,-0.903c0.808,-0.582 1.39,-1.39 1.777,-2.358l-1.775,0Zm-5.716,-5.425c0.678,-0.614 1.485,-0.937 2.486,-0.937c1,0 1.808,0.323 2.486,0.937c0.646,0.581 1.033,1.356 1.163,2.293l-7.298,0c0.161,-0.937 0.518,-1.712 1.163,-2.293Z" style="fill:#808080;"/></g></svg>