<?xml version="1.0" encoding="UTF-8" standalone="no"?><!DOCTYPE svg PUBLIC "-//W3C//DTD SVG 1.1//EN" "http://www.w3.org/Graphics/SVG/1.1/DTD/svg11.dtd"><svg width="100%" height="100%" viewBox="0 0 71 54" version="1.1" xmlns="http://www.w3.org/2000/svg" xmlns:xlink="http://www.w3.org/1999/xlink" xml:space="preserve" xmlns:serif="http://www.serif.com/" style="fill-rule:evenodd;clip-rule:evenodd;stroke-linejoin:round;stroke-miterlimit:2;"><g id="Smile-direct-club" serif:id="Smile direct club"><path d="M6.22,8.002c2.996,-0 6.173,1.347 6.193,5.067l-4.222,-0c-0.04,-1.147 -1.005,-1.348 -1.709,-1.348c-0.965,0 -1.609,0.463 -1.589,1.147c0.041,0.462 0.423,0.904 1.327,1.146l2.554,0.683c3.639,1.006 4.102,3.459 4.102,4.444c-0,3.237 -3.358,4.765 -6.515,4.765c-3.157,0 -6.253,-1.87 -6.293,-5.248l4.202,0c0.04,0.885 1.005,1.77 2.232,1.77c1.005,-0.04 1.83,-0.483 1.83,-1.267c-0,-0.643 -0.382,-1.005 -1.488,-1.307l-1.971,-0.523c-4.524,-1.246 -4.544,-3.559 -4.524,-4.966c0.04,-2.292 2.715,-4.363 5.871,-4.363Zm56.401,-0c4.303,-0 7.721,3.237 7.721,8.022c0,0.402 -0.04,1.006 -0.06,1.408l-11.039,-0c0.221,1.769 2.131,2.553 3.72,2.553c1.227,0 2.554,-0.462 3.298,-1.427l3.257,2.252c-1.509,2.292 -4.323,3.096 -6.877,3.096c-4.323,0 -7.882,-3.197 -7.882,-8.002c-0.02,-4.806 3.539,-7.902 7.862,-7.902Zm-30.08,-0c3.579,-0 5.811,2.312 5.811,6.916l-0,8.647l-4.464,-0l-0,-8.124c-0,-1.99 -1.166,-3.036 -2.493,-3.036c-1.428,0 -2.574,0.885 -2.574,3.097l-0,8.063l-4.484,-0l0,-8.224c-0.04,-1.931 -1.186,-2.936 -2.493,-2.936c-1.307,0 -2.614,0.784 -2.614,3.097l-0,8.063l-4.484,-0l-0,-15.242l4.484,0l-0,2.212c0.704,-1.608 2.332,-2.513 3.941,-2.513c2.392,-0 4.001,0.905 4.846,2.674c1.447,-2.373 3.458,-2.694 4.524,-2.694Zm12.949,0.321l-0,15.242l-4.464,-0l-0,-15.242l4.464,0Zm7.319,-8.284l-0,23.526l-4.484,-0l-0,-23.526l4.484,0Zm9.852,11.944c-1.266,-0 -2.976,0.683 -3.358,2.614l6.515,-0c-0.221,-1.87 -1.91,-2.614 -3.157,-2.614Zm-19.403,-11.944c1.508,0 2.734,1.146 2.734,2.634c0,1.488 -1.226,2.674 -2.734,2.674c-1.508,0 -2.815,-1.166 -2.815,-2.674c-0,-1.508 1.287,-2.634 2.815,-2.634Z" style="fill:#808080;"/><path d="M38.472,46.949l0.041,1.367l-1.649,0.041l0.12,5.087l-1.548,0.04l-0.121,-5.087l-1.648,0.04l-0.041,-1.367l4.846,-0.121Zm-9.068,-0.422c1.066,0.161 1.91,0.804 2.393,1.689l0.08,0.181l-0.02,-0c-0.201,0.1 -1.387,0.704 -1.387,0.704c-0.222,-0.523 -0.704,-0.925 -1.307,-1.026c-0.945,-0.141 -1.79,0.523 -1.931,1.468c-0.14,0.945 0.483,1.83 1.408,1.971c0.603,0.1 1.166,-0.141 1.548,-0.584l1.126,1.086c-0.704,0.784 -1.769,1.227 -2.895,1.066c-1.77,-0.262 -2.996,-1.951 -2.735,-3.76c0.282,-1.81 1.93,-3.056 3.72,-2.795Zm-8.908,-2.192l3.942,1.307l-0.423,1.307l-2.473,-0.824l-0.382,1.166l2.172,0.724l-0.423,1.267l-2.171,-0.724l-0.362,1.086l2.553,0.844l-0.422,1.307l-4.021,-1.327l2.01,-6.133Zm29.055,1.448l0.161,0.121l-0.02,0.02c-0.141,0.161 -0.985,1.206 -0.985,1.206c-0.422,-0.382 -1.026,-0.543 -1.609,-0.382c-0.905,0.262 -1.407,1.207 -1.146,2.152c0.262,0.925 1.187,1.467 2.091,1.186c0.583,-0.161 1.006,-0.623 1.167,-1.166l1.468,0.502c-0.322,1.026 -1.106,1.87 -2.212,2.172c-1.73,0.503 -3.539,-0.523 -4.022,-2.272c-0.503,-1.77 0.503,-3.599 2.232,-4.102c1.026,-0.261 2.091,-0.02 2.875,0.563Zm3.077,-2.735l2.172,4.585l2.071,-1.006l0.582,1.227l-3.478,1.689l-2.755,-5.811l1.408,-0.684Zm-38.385,-1.749l2.333,1.227c1.327,0.703 1.447,1.97 0.945,2.935c-0.423,0.805 -1.267,1.368 -2.293,1.126l0.362,2.695l-1.588,-0.845l-0.221,-2.554l-0.121,-0.06l-0.985,1.91l-1.367,-0.723l2.935,-5.711Zm45.965,-2.895l2.292,3.378c0.825,1.226 0.382,2.694 -0.724,3.458c-1.086,0.764 -2.613,0.664 -3.438,-0.563l-2.292,-3.378l1.287,-0.885l2.292,3.378c0.322,0.483 0.945,0.523 1.327,0.242c0.402,-0.282 0.583,-0.865 0.262,-1.348l-2.292,-3.378l1.286,-0.904Zm-45.221,4.825l-0.724,1.408l0.905,0.482c0.442,0.242 0.804,-0.04 0.985,-0.382c0.181,-0.341 0.201,-0.784 -0.261,-1.025l-0.905,-0.483Zm-4.021,-4.202l1.266,0.905l-3.699,5.268l-1.267,-0.905l3.7,-5.268Zm-5.469,-4.786l1.849,1.75c1.348,1.267 1.187,3.016 -0.06,4.363c-1.226,1.327 -2.936,1.629 -4.283,0.362l-1.85,-1.749l4.344,-4.726Zm61.025,0.604c0.241,0.261 0.603,0.905 0.221,1.548c0.724,-0.523 1.508,-0.201 1.95,0.241c0.644,0.664 0.926,1.75 -0.2,2.855l-2.011,1.971l-4.444,-4.645l1.87,-1.83c0.864,-0.844 1.89,-0.884 2.614,-0.14Zm-60.824,1.488l-2.474,2.674l0.704,0.663c0.664,0.624 1.569,0.302 2.212,-0.402c0.643,-0.704 0.905,-1.669 0.261,-2.272l-0.703,-0.663Zm60.764,1.407l-0.704,0.684l0.905,0.945l0.704,-0.704c0.341,-0.342 0.281,-0.744 0.06,-0.985c-0.201,-0.201 -0.584,-0.302 -0.965,0.06Zm-1.75,-1.629l-0.603,0.604l0.764,0.804l0.603,-0.583c0.221,-0.221 0.241,-0.523 0.02,-0.764c-0.241,-0.242 -0.523,-0.322 -0.784,-0.061Z" style="fill:#808080;"/></g></svg>