<?xml version="1.0" encoding="UTF-8" standalone="no"?><!DOCTYPE svg PUBLIC "-//W3C//DTD SVG 1.1//EN" "http://www.w3.org/Graphics/SVG/1.1/DTD/svg11.dtd"><svg width="100%" height="100%" viewBox="0 0 95 73" version="1.1" xmlns="http://www.w3.org/2000/svg" xmlns:xlink="http://www.w3.org/1999/xlink" xml:space="preserve" xmlns:serif="http://www.serif.com/" style="fill-rule:evenodd;clip-rule:evenodd;stroke-linejoin:round;stroke-miterlimit:2;"><g id="Smile-direct-club" serif:id="Smile direct club"><path d="M8.397,10.811c4.036,0 8.316,1.815 8.343,6.827l-5.688,-0c-0.055,-1.544 -1.355,-1.815 -2.303,-1.815c-1.3,-0 -2.167,0.623 -2.14,1.544c0.054,0.623 0.569,1.219 1.788,1.544l3.44,0.921c4.903,1.354 5.526,4.659 5.526,5.986c0,4.361 -4.524,6.42 -8.776,6.42c-4.253,0 -8.425,-2.519 -8.479,-7.07l5.661,0c0.055,1.192 1.355,2.384 3.007,2.384c1.355,-0.054 2.465,-0.65 2.465,-1.707c0,-0.867 -0.515,-1.354 -2.004,-1.76l-2.655,-0.705c-6.095,-1.679 -6.122,-4.794 -6.095,-6.69c0.054,-3.089 3.657,-5.879 7.91,-5.879Zm75.982,0c5.797,0 10.402,4.362 10.402,10.809c-0,0.541 -0.054,1.354 -0.082,1.896l-14.871,-0c0.298,2.383 2.871,3.44 5.011,3.44c1.653,-0 3.441,-0.623 4.443,-1.923l4.388,3.033c-2.032,3.089 -5.824,4.172 -9.264,4.172c-5.824,0 -10.619,-4.307 -10.619,-10.781c-0.027,-6.474 4.768,-10.646 10.592,-10.646Zm-40.524,0c4.822,0 7.829,3.116 7.829,9.319l-0,11.648l-6.014,-0l0,-10.944c0,-2.682 -1.571,-4.09 -3.359,-4.09c-1.923,-0 -3.467,1.192 -3.467,4.171l-0,10.863l-6.041,-0l0,-11.079c-0.054,-2.601 -1.598,-3.955 -3.359,-3.955c-1.76,-0 -3.521,1.056 -3.521,4.171l-0,10.863l-6.041,-0l0,-20.533l6.041,-0l-0,2.98c0.948,-2.168 3.142,-3.386 5.309,-3.386c3.224,-0 5.391,1.218 6.528,3.602c1.951,-3.196 4.659,-3.63 6.095,-3.63Zm17.445,0.434l-0,20.533l-6.014,-0l0,-20.533l6.014,-0Zm9.86,-11.16l-0,31.693l-6.041,-0l0,-31.693l6.041,-0Zm13.273,16.09c-1.706,-0 -4.009,0.921 -4.524,3.521l8.777,0c-0.298,-2.519 -2.573,-3.521 -4.253,-3.521Zm-26.14,-16.09c2.032,-0 3.684,1.544 3.684,3.548c0,2.005 -1.652,3.603 -3.684,3.603c-2.032,-0 -3.792,-1.571 -3.792,-3.603c-0,-2.032 1.733,-3.548 3.792,-3.548Z" style="fill:#808080;"/><path d="M51.846,63.281l0.054,1.842l-2.221,0.054l0.163,6.853l-2.086,0.055l-0.163,-6.854l-2.221,0.054l-0.054,-1.842l6.528,-0.162Zm-12.217,-0.569c1.436,0.217 2.574,1.084 3.224,2.275l0.108,0.244l-0.027,0c-0.271,0.136 -1.869,0.948 -1.869,0.948c-0.298,-0.704 -0.948,-1.246 -1.761,-1.381c-1.273,-0.19 -2.41,0.704 -2.6,1.977c-0.19,1.273 0.65,2.465 1.896,2.655c0.813,0.135 1.571,-0.19 2.086,-0.786l1.517,1.463c-0.948,1.057 -2.384,1.652 -3.901,1.436c-2.384,-0.352 -4.036,-2.628 -3.684,-5.066c0.379,-2.438 2.601,-4.117 5.011,-3.765Zm-12,-2.953l5.31,1.761l-0.569,1.761l-3.332,-1.111l-0.515,1.571l2.926,0.976l-0.569,1.706l-2.926,-0.975l-0.487,1.463l3.44,1.137l-0.569,1.761l-5.417,-1.788l2.708,-8.262Zm39.143,1.951l0.216,0.162l-0.027,0.027c-0.189,0.217 -1.327,1.626 -1.327,1.626c-0.569,-0.515 -1.382,-0.732 -2.167,-0.515c-1.219,0.352 -1.896,1.625 -1.544,2.898c0.352,1.247 1.598,1.978 2.817,1.599c0.786,-0.217 1.354,-0.84 1.571,-1.571l1.978,0.677c-0.434,1.381 -1.49,2.519 -2.98,2.925c-2.33,0.677 -4.768,-0.704 -5.418,-3.061c-0.677,-2.383 0.677,-4.848 3.007,-5.526c1.382,-0.352 2.817,-0.027 3.874,0.759Zm4.144,-3.684l2.926,6.176l2.79,-1.354l0.785,1.652l-4.686,2.275l-3.711,-7.828l1.896,-0.921Zm-51.711,-2.357l3.142,1.653c1.788,0.948 1.951,2.654 1.273,3.954c-0.568,1.084 -1.706,1.842 -3.088,1.517l0.488,3.63l-2.14,-1.138l-0.298,-3.44l-0.163,-0.081l-1.327,2.573l-1.842,-0.975l3.955,-7.693Zm61.923,-3.9l3.088,4.55c1.111,1.653 0.515,3.63 -0.975,4.659c-1.463,1.03 -3.521,0.894 -4.632,-0.758l-3.088,-4.551l1.734,-1.192l3.088,4.551c0.433,0.65 1.273,0.704 1.788,0.325c0.541,-0.379 0.785,-1.165 0.352,-1.815l-3.088,-4.551l1.733,-1.218Zm-60.921,6.501l-0.975,1.896l1.219,0.65c0.596,0.325 1.084,-0.054 1.327,-0.515c0.244,-0.46 0.271,-1.056 -0.352,-1.381l-1.219,-0.65Zm-5.417,-5.662l1.706,1.219l-4.984,7.097l-1.707,-1.219l4.985,-7.097Zm-7.368,-6.447l2.492,2.357c1.815,1.707 1.598,4.063 -0.081,5.878c-1.653,1.788 -3.955,2.194 -5.77,0.488l-2.492,-2.357l5.851,-6.366Zm82.212,0.813c0.325,0.352 0.813,1.219 0.298,2.086c0.975,-0.705 2.032,-0.271 2.627,0.325c0.867,0.894 1.247,2.356 -0.27,3.846l-2.709,2.655l-5.987,-6.257l2.52,-2.465c1.164,-1.138 2.546,-1.192 3.521,-0.19Zm-81.941,2.004l-3.332,3.603l0.948,0.894c0.894,0.84 2.113,0.406 2.98,-0.542c0.866,-0.948 1.218,-2.248 0.352,-3.061l-0.948,-0.894Zm81.86,1.897l-0.948,0.921l1.219,1.273l0.948,-0.948c0.46,-0.461 0.379,-1.003 0.081,-1.328c-0.271,-0.271 -0.786,-0.406 -1.3,0.082Zm-2.357,-2.195l-0.813,0.813l1.03,1.084l0.812,-0.786c0.298,-0.298 0.325,-0.704 0.027,-1.029c-0.325,-0.325 -0.704,-0.434 -1.056,-0.082Z" style="fill:#808080;"/></g></svg>