<?xml version="1.0" encoding="UTF-8" standalone="no"?><!DOCTYPE svg PUBLIC "-//W3C//DTD SVG 1.1//EN" "http://www.w3.org/Graphics/SVG/1.1/DTD/svg11.dtd"><svg width="100%" height="100%" viewBox="0 0 148 30" version="1.1" xmlns="http://www.w3.org/2000/svg" xmlns:xlink="http://www.w3.org/1999/xlink" xml:space="preserve" xmlns:serif="http://www.serif.com/" style="fill-rule:evenodd;clip-rule:evenodd;stroke-linejoin:round;stroke-miterlimit:2;"><path id="Sonos" d="M45.318,1.121c1.759,0.727 3.351,1.798 4.698,3.145c1.347,1.337 2.408,2.939 3.136,4.698c0.727,1.76 1.11,3.637 1.11,5.544c0,5.868 -3.528,11.146 -8.944,13.397c-5.416,2.241 -11.648,1.003 -15.786,-3.145c-4.148,-4.148 -5.387,-10.39 -3.146,-15.806c2.251,-5.415 7.53,-8.944 13.388,-8.944c1.907,-0 3.784,0.383 5.544,1.111Zm-2.015,21.948c1.12,-0.472 2.133,-1.16 2.978,-2.025c0.855,-0.855 1.533,-1.877 1.995,-2.997c0.452,-1.121 0.688,-2.33 0.688,-3.539c0,-3.765 -2.27,-7.156 -5.75,-8.591c-3.479,-1.425 -7.48,-0.619 -10.124,2.055c-2.644,2.673 -3.421,6.683 -1.956,10.153c1.465,3.47 4.885,5.701 8.64,5.672c1.209,-0.01 2.408,-0.256 3.529,-0.728Zm-23.738,-2.388c-0.01,0.57 -0.079,1.13 -0.206,1.681c-0.128,0.55 -0.315,1.091 -0.561,1.592c-0.245,0.511 -0.54,1.002 -0.884,1.445c-0.344,0.452 -0.738,0.855 -1.17,1.219c-1.789,1.553 -4.256,2.418 -6.939,2.418c-0.836,-0 -1.662,-0.089 -2.477,-0.256c-0.826,-0.177 -1.622,-0.432 -2.389,-0.767c-0.757,-0.334 -1.494,-0.747 -2.172,-1.228c-0.678,-0.482 -1.308,-1.032 -1.878,-1.642l-0.452,-0.54l4.168,-2.831l0.364,0.265c0.347,0.262 0.711,0.495 1.091,0.698c0.386,0.203 0.786,0.377 1.199,0.521c0.406,0.144 0.825,0.252 1.258,0.324c0.426,0.079 0.855,0.125 1.288,0.138c2.791,0 4.452,-1.553 4.452,-3.037c0,-0.639 0,-1.956 -5.249,-3.627c-2.693,-0.855 -4.501,-1.711 -5.878,-2.762c-2.044,-1.563 -3.076,-3.558 -3.076,-5.937c0.01,-0.56 0.079,-1.121 0.206,-1.671c0.128,-0.551 0.315,-1.091 0.561,-1.592c0.235,-0.512 0.53,-0.993 0.884,-1.445c0.344,-0.443 0.728,-0.855 1.16,-1.219c1.789,-1.543 4.256,-2.408 6.94,-2.408c0.835,-0 1.67,0.088 2.486,0.255c0.816,0.167 1.612,0.423 2.379,0.757c0.767,0.334 1.494,0.747 2.172,1.229c0.678,0.481 1.308,1.032 1.878,1.641l0.462,0.541l-4.178,2.821l-0.363,-0.275c-0.348,-0.256 -0.715,-0.489 -1.101,-0.698c-0.38,-0.203 -0.777,-0.374 -1.19,-0.511c-0.413,-0.145 -0.832,-0.256 -1.258,-0.335c-0.426,-0.078 -0.855,-0.121 -1.287,-0.127c-2.792,-0 -4.453,1.543 -4.453,3.037c-0,0.649 -0,1.976 5.249,3.637c2.703,0.855 4.501,1.71 5.878,2.752c2.054,1.563 3.086,3.568 3.086,5.937Zm60.352,-4.119l-0,-15.51l5.17,-0l-0,27.689l-17.457,-16.268l0,15.422l-5.18,0l0,-27.62l17.467,16.287Zm33.39,-15.343c1.759,0.727 3.351,1.799 4.698,3.145c1.347,1.347 2.418,2.939 3.145,4.699c0.728,1.759 1.101,3.646 1.101,5.543c0.01,5.868 -3.519,11.156 -8.935,13.398c-5.416,2.25 -11.647,1.012 -15.785,-3.136c-4.148,-4.148 -5.387,-10.38 -3.146,-15.805c2.241,-5.416 7.52,-8.945 13.388,-8.945c1.897,-0 3.784,0.373 5.534,1.101Zm-2.006,21.958c1.111,-0.471 2.133,-1.159 2.989,-2.024c0.845,-0.856 1.523,-1.878 1.985,-3.008c0.462,-1.121 0.698,-2.32 0.688,-3.539c0,-3.754 -2.27,-7.146 -5.74,-8.581c-3.48,-1.435 -7.48,-0.629 -10.124,2.045c-2.644,2.673 -3.421,6.684 -1.956,10.153c1.454,3.46 4.865,5.701 8.63,5.672c1.209,-0.01 2.408,-0.256 3.528,-0.718Zm16.681,-14.743c0.009,-0.571 0.078,-1.131 0.206,-1.681c0.138,-0.551 0.324,-1.082 0.56,-1.593c0.246,-0.511 0.541,-0.992 0.885,-1.445c0.344,-0.452 0.737,-0.855 1.17,-1.218c1.789,-1.553 4.256,-2.418 6.939,-2.418c0.836,-0 1.661,0.088 2.487,0.255c0.816,0.177 1.612,0.433 2.379,0.767c0.766,0.334 1.494,0.747 2.172,1.229c0.678,0.481 1.307,1.032 1.877,1.651l0.452,0.54l-4.167,2.821l-0.364,-0.275c-0.347,-0.262 -0.711,-0.494 -1.091,-0.698c-0.387,-0.203 -0.786,-0.376 -1.199,-0.521c-0.406,-0.144 -0.826,-0.252 -1.258,-0.324c-0.426,-0.079 -0.855,-0.124 -1.288,-0.138c-2.791,0 -4.453,1.553 -4.453,3.048c0,0.629 0,1.946 5.249,3.617c2.694,0.865 4.502,1.71 5.868,2.762c2.055,1.563 3.097,3.558 3.097,5.937c-0.01,0.57 -0.079,1.13 -0.207,1.68c-0.128,0.551 -0.314,1.082 -0.56,1.593c-0.246,0.511 -0.541,0.992 -0.885,1.445c-0.344,0.442 -0.737,0.855 -1.169,1.218c-1.789,1.544 -4.256,2.418 -6.94,2.418c-0.835,0 -1.661,-0.088 -2.487,-0.265c-0.816,-0.167 -1.612,-0.423 -2.378,-0.757c-0.767,-0.334 -1.494,-0.747 -2.173,-1.228c-0.688,-0.482 -1.317,-1.042 -1.877,-1.652l-0.462,-0.54l4.168,-2.821l0.363,0.275c0.348,0.262 0.715,0.495 1.101,0.698c0.38,0.203 0.777,0.373 1.19,0.511c0.412,0.144 0.832,0.255 1.258,0.334c0.426,0.079 0.858,0.121 1.297,0.128c2.782,-0 4.443,-1.543 4.443,-3.037c-0,-0.629 -0,-1.956 -5.239,-3.627c-2.703,-0.856 -4.502,-1.701 -5.878,-2.753c-2.044,-1.562 -3.086,-3.558 -3.086,-5.936Z" style="fill:#808080;"/></svg>