<?xml version="1.0" encoding="UTF-8" standalone="no"?><!DOCTYPE svg PUBLIC "-//W3C//DTD SVG 1.1//EN" "http://www.w3.org/Graphics/SVG/1.1/DTD/svg11.dtd"><svg width="100%" height="100%" viewBox="0 0 95 19" version="1.1" xmlns="http://www.w3.org/2000/svg" xmlns:xlink="http://www.w3.org/1999/xlink" xml:space="preserve" xmlns:serif="http://www.serif.com/" style="fill-rule:evenodd;clip-rule:evenodd;stroke-linejoin:round;stroke-miterlimit:2;"><path id="Sonos" d="M29.171,0.721c1.13,0.467 2.152,1.155 3.017,2.02c0.865,0.858 1.546,1.887 2.013,3.017c0.467,1.129 0.713,2.335 0.713,3.559c0,3.768 -2.265,7.157 -5.743,8.602c-3.477,1.439 -7.478,0.644 -10.135,-2.019c-2.664,-2.664 -3.459,-6.671 -2.02,-10.149c1.445,-3.477 4.834,-5.743 8.596,-5.743c1.224,0 2.429,0.246 3.559,0.713Zm-1.294,14.093c0.72,-0.303 1.37,-0.745 1.913,-1.3c0.549,-0.549 0.984,-1.205 1.281,-1.925c0.29,-0.719 0.442,-1.496 0.442,-2.272c-0,-2.417 -1.458,-4.594 -3.692,-5.516c-2.235,-0.915 -4.803,-0.397 -6.501,1.319c-1.698,1.717 -2.196,4.292 -1.256,6.52c0.941,2.227 3.137,3.66 5.548,3.641c0.776,-0.006 1.546,-0.164 2.265,-0.467Zm-15.241,-1.534c-0.006,0.366 -0.05,0.726 -0.132,1.08c-0.083,0.353 -0.202,0.7 -0.36,1.022c-0.158,0.328 -0.347,0.644 -0.568,0.928c-0.221,0.29 -0.474,0.549 -0.751,0.782c-1.149,0.998 -2.733,1.553 -4.456,1.553c-0.536,-0 -1.066,-0.057 -1.59,-0.164c-0.53,-0.114 -1.042,-0.278 -1.534,-0.492c-0.486,-0.215 -0.959,-0.48 -1.395,-0.789c-0.435,-0.31 -0.839,-0.663 -1.205,-1.054l-0.29,-0.347l2.676,-1.818l0.233,0.17c0.223,0.169 0.457,0.318 0.701,0.448c0.248,0.131 0.504,0.242 0.77,0.335c0.26,0.093 0.53,0.162 0.807,0.208c0.274,0.051 0.549,0.08 0.827,0.089c1.792,-0 2.859,-0.998 2.859,-1.951c0,-0.41 0,-1.255 -3.37,-2.328c-1.729,-0.549 -2.891,-1.098 -3.774,-1.774c-1.313,-1.003 -1.975,-2.284 -1.975,-3.812c0.006,-0.359 0.05,-0.719 0.132,-1.073c0.082,-0.353 0.202,-0.7 0.36,-1.022c0.151,-0.328 0.341,-0.637 0.568,-0.928c0.221,-0.284 0.467,-0.549 0.744,-0.782c1.149,-0.991 2.733,-1.547 4.456,-1.547c0.537,0 1.073,0.057 1.597,0.165c0.524,0.107 1.035,0.271 1.527,0.486c0.492,0.214 0.959,0.479 1.395,0.788c0.435,0.31 0.839,0.663 1.205,1.054l0.297,0.347l-2.682,1.812l-0.234,-0.177c-0.223,-0.164 -0.458,-0.313 -0.707,-0.448c-0.244,-0.13 -0.498,-0.24 -0.763,-0.328c-0.265,-0.093 -0.535,-0.164 -0.808,-0.215c-0.274,-0.05 -0.549,-0.078 -0.827,-0.082c-1.792,0 -2.859,0.991 -2.859,1.95c0,0.417 0,1.269 3.37,2.335c1.736,0.549 2.891,1.099 3.774,1.768c1.319,1.003 1.982,2.29 1.982,3.811Zm38.75,-2.644l0,-9.959l3.32,0l-0,17.779l-11.209,-10.445l0,9.902l-3.326,-0l0,-17.734l11.215,10.457Zm21.439,-9.852c1.13,0.467 2.152,1.155 3.017,2.02c0.864,0.865 1.552,1.887 2.019,3.017c0.467,1.129 0.707,2.341 0.707,3.559c0.007,3.768 -2.259,7.163 -5.737,8.602c-3.477,1.445 -7.478,0.65 -10.135,-2.013c-2.663,-2.663 -3.459,-6.665 -2.02,-10.148c1.439,-3.478 4.828,-5.743 8.596,-5.743c1.218,-0 2.43,0.239 3.553,0.706Zm-1.287,14.099c0.713,-0.302 1.369,-0.744 1.918,-1.3c0.543,-0.549 0.978,-1.205 1.275,-1.931c0.297,-0.719 0.448,-1.489 0.442,-2.272c-0,-2.411 -1.458,-4.588 -3.686,-5.509c-2.234,-0.922 -4.803,-0.404 -6.5,1.312c-1.698,1.717 -2.197,4.292 -1.256,6.52c0.934,2.221 3.124,3.66 5.541,3.641c0.776,-0.006 1.546,-0.164 2.266,-0.461Zm10.71,-9.466c0.006,-0.366 0.05,-0.726 0.132,-1.079c0.089,-0.354 0.208,-0.695 0.36,-1.023c0.158,-0.328 0.347,-0.637 0.568,-0.928c0.221,-0.29 0.473,-0.549 0.751,-0.782c1.149,-0.997 2.733,-1.553 4.456,-1.553c0.536,0 1.066,0.057 1.596,0.164c0.524,0.114 1.035,0.278 1.528,0.493c0.492,0.214 0.959,0.479 1.394,0.789c0.436,0.309 0.84,0.662 1.206,1.06l0.29,0.347l-2.676,1.811l-0.233,-0.176c-0.223,-0.169 -0.457,-0.318 -0.701,-0.449c-0.248,-0.13 -0.505,-0.241 -0.77,-0.334c-0.261,-0.093 -0.53,-0.162 -0.808,-0.208c-0.273,-0.051 -0.549,-0.08 -0.826,-0.089c-1.793,0 -2.859,0.998 -2.859,1.957c-0,0.404 -0,1.249 3.37,2.322c1.729,0.556 2.89,1.098 3.768,1.774c1.319,1.003 1.988,2.284 1.988,3.812c-0.007,0.366 -0.051,0.725 -0.133,1.079c-0.082,0.353 -0.202,0.694 -0.36,1.022c-0.158,0.328 -0.347,0.638 -0.568,0.928c-0.221,0.284 -0.473,0.549 -0.751,0.783c-1.148,0.99 -2.732,1.552 -4.455,1.552c-0.537,0 -1.067,-0.057 -1.597,-0.17c-0.524,-0.108 -1.035,-0.272 -1.527,-0.486c-0.493,-0.215 -0.96,-0.48 -1.395,-0.789c-0.442,-0.309 -0.846,-0.669 -1.206,-1.06l-0.296,-0.348l2.676,-1.811l0.233,0.177c0.223,0.168 0.459,0.318 0.707,0.448c0.244,0.13 0.499,0.24 0.764,0.328c0.265,0.093 0.534,0.164 0.808,0.215c0.273,0.05 0.551,0.078 0.833,0.082c1.786,-0 2.852,-0.991 2.852,-1.95c0,-0.404 0,-1.256 -3.364,-2.329c-1.735,-0.549 -2.89,-1.092 -3.774,-1.767c-1.312,-1.004 -1.981,-2.285 -1.981,-3.812Z" style="fill:#808080;"/></svg>