<?xml version="1.0" encoding="UTF-8" standalone="no"?><!DOCTYPE svg PUBLIC "-//W3C//DTD SVG 1.1//EN" "http://www.w3.org/Graphics/SVG/1.1/DTD/svg11.dtd"><svg width="100%" height="100%" viewBox="0 0 95 14" version="1.1" xmlns="http://www.w3.org/2000/svg" xmlns:xlink="http://www.w3.org/1999/xlink" xml:space="preserve" xmlns:serif="http://www.serif.com/" style="fill-rule:evenodd;clip-rule:evenodd;stroke-linejoin:round;stroke-miterlimit:2;"><g id="Tesla"><path d="M81.298,5.213l13.149,0.02l-0,7.826l-2.331,-0l-0,-5.226l-8.485,-0l0,5.226l-2.333,-0l0,-7.846Z" style="fill:#808080;"/><path d="M44.168,2.715l8.332,-0c0.59,-0.177 1.123,-0.504 1.547,-0.949c0.425,-0.445 0.726,-0.993 0.875,-1.59l-13.089,0l-0,7.644l10.837,-0l-0,2.683l-8.387,-0c-1.233,0.504 -2.149,1.376 -2.404,2.509l-0.046,0.097l13.166,0l-0,-7.828l-10.831,0l0,-2.566Z" style="fill:#808080;"/><path d="M72.405,13.019c0.519,-0.228 0.977,-0.578 1.333,-1.02c0.356,-0.441 0.601,-0.962 0.714,-1.518l-10.419,-0l0.015,-10.305l-2.333,0l0,12.806l10.69,0.03l-0,0.007Z" style="fill:#808080;"/><path d="M83.335,2.748l9.025,-0c1.268,-0.507 2.161,-1.407 2.422,-2.547l-13.937,-0c0.248,1.14 1.222,2.04 2.49,2.547Z" style="fill:#808080;"/><path d="M23.581,2.798l9.026,0c1.268,-0.504 2.179,-1.45 2.443,-2.593l-13.919,0c0.26,1.143 1.185,2.089 2.45,2.593Z" style="fill:#808080;"/><path d="M23.581,13.092l9.026,-0c1.268,-0.5 2.179,-1.458 2.443,-2.598l-13.919,0c0.26,1.14 1.185,2.098 2.45,2.598Z" style="fill:#808080;"/><path d="M0.109,0.176c0.27,1.141 1.19,2.085 2.447,2.585l3.793,-0l0.194,0.088l0,10.26l2.371,0l-0,-10.26l0.22,-0.088l3.806,-0c1.246,-0.5 2.16,-1.444 2.435,-2.585l-0,-0.015l-15.266,0l-0,0.015Z" style="fill:#808080;"/><path d="M23.581,7.828l9.026,0c1.268,-0.495 2.179,-1.457 2.443,-2.586l-13.919,-0c0.26,1.129 1.185,2.091 2.45,2.586Z" style="fill:#808080;"/></g></svg>