<?xml version="1.0" encoding="UTF-8" standalone="no"?><!DOCTYPE svg PUBLIC "-//W3C//DTD SVG 1.1//EN" "http://www.w3.org/Graphics/SVG/1.1/DTD/svg11.dtd"><svg width="100%" height="100%" viewBox="0 0 147 21" version="1.1" xmlns="http://www.w3.org/2000/svg" xmlns:xlink="http://www.w3.org/1999/xlink" xml:space="preserve" xmlns:serif="http://www.serif.com/" style="fill-rule:evenodd;clip-rule:evenodd;stroke-linejoin:round;stroke-miterlimit:2;"><g id="Tesla"><path d="M125.213,7.905l20.277,0.031l-0,12.068l-3.595,0l-0,-8.059l-13.084,0l-0,8.059l-3.598,0l-0,-12.099Z" style="fill:#808080;"/><path d="M67.953,4.052l12.849,0c0.908,-0.272 1.731,-0.776 2.385,-1.462c0.655,-0.687 1.12,-1.532 1.349,-2.452l-20.185,0l-0,11.787l16.712,-0l0,4.138l-12.934,0c-1.901,0.777 -3.313,2.122 -3.707,3.87l-0.071,0.149l20.304,0l-0,-12.071l-16.702,-0l-0,-3.959Z" style="fill:#808080;"/><path d="M111.498,19.943c0.801,-0.352 1.506,-0.891 2.055,-1.572c0.55,-0.681 0.928,-1.484 1.102,-2.342l-16.068,0l0.024,-15.891l-3.598,0l-0,19.748l16.485,0.047l-0,0.01Z" style="fill:#808080;"/><path d="M128.353,4.103l13.919,0c1.955,-0.781 3.333,-2.169 3.734,-3.928l-21.492,0c0.383,1.759 1.884,3.147 3.839,3.928Z" style="fill:#808080;"/><path d="M36.204,4.181l13.919,0c1.956,-0.777 3.361,-2.237 3.768,-3.999l-21.465,0c0.401,1.762 1.826,3.222 3.778,3.999Z" style="fill:#808080;"/><path d="M36.204,20.055l13.919,0c1.956,-0.77 3.361,-2.247 3.768,-4.006l-21.465,0c0.401,1.759 1.826,3.236 3.778,4.006Z" style="fill:#808080;"/><path d="M0.006,0.138c0.417,1.759 1.836,3.215 3.775,3.986l5.849,-0l0.299,0.135l-0,15.823l3.656,0l-0,-15.823l0.339,-0.135l5.87,-0c1.921,-0.771 3.33,-2.227 3.755,-3.986l-0,-0.024l-23.543,0l-0,0.024Z" style="fill:#808080;"/><path d="M36.204,11.938l13.919,0c1.956,-0.763 3.361,-2.247 3.768,-3.989l-21.465,0c0.401,1.742 1.826,3.226 3.778,3.989Z" style="fill:#808080;"/></g></svg>