<?xml version="1.0" encoding="UTF-8" standalone="no"?><!DOCTYPE svg PUBLIC "-//W3C//DTD SVG 1.1//EN" "http://www.w3.org/Graphics/SVG/1.1/DTD/svg11.dtd"><svg width="100%" height="100%" viewBox="0 0 167 37" version="1.1" xmlns="http://www.w3.org/2000/svg" xmlns:xlink="http://www.w3.org/1999/xlink" xml:space="preserve" xmlns:serif="http://www.serif.com/" style="fill-rule:evenodd;clip-rule:evenodd;stroke-linejoin:round;stroke-miterlimit:2;"><g id="Vanderbilt-University" serif:id="Vanderbilt University"><path d="M58.179,17.468l-3.856,-8.338c-0.408,-0.878 -0.63,-1.117 -1.416,-1.436l-0,-0.2l4.653,0l0,0.2c-1.103,0.344 -1.271,0.638 -0.906,1.45l3.029,6.703l2.844,-6.344c0.368,-0.823 0.146,-1.316 -1.599,-1.807l0,-0.199l4.038,0l0,0.199c-0.655,0.32 -0.877,0.559 -1.288,1.437l-3.852,8.338l-1.65,-0l0.003,-0.003Zm9.976,-8.176c0.368,-0.812 0.197,-1.222 -0.957,-1.596l-0,-0.199l3.448,0l3.856,8.338c0.407,0.878 0.589,1.117 1.154,1.436l-0,0.2l-4.392,-0l0,-0.2c1.103,-0.344 1.271,-0.638 0.904,-1.45l-0.656,-1.451l-4.733,0l-0.485,1.089c-0.367,0.826 -0.145,1.317 1.599,1.81l0,0.199l-4.038,0l0,-0.199c0.67,-0.399 0.969,-0.744 1.391,-1.662l2.912,-6.315l-0.003,0Zm-0.983,4.201l3.947,-0l-1.981,-4.375l-1.966,4.375Zm19.931,3.978l-1.365,-0l-7.184,-8.019l-0,5.229c-0,1.622 0.248,1.981 1.992,2.593l-0,0.2l-4.169,-0l-0,-0.2c1.074,-0.573 1.245,-0.971 1.245,-2.593l-0,-4.787c-0,-1.622 -0.222,-1.89 -1.376,-2.195l-0,-0.199l3.422,-0l6.503,7.261l-0,-4.468c-0,-1.622 -0.248,-1.981 -1.992,-2.594l0,-0.199l4.169,-0l0,0.199c-1.074,0.573 -1.245,0.972 -1.245,2.594l-0,7.181l-0,-0.003Zm2.687,-0l0,-0.2c1.154,-0.305 1.376,-0.572 1.376,-2.194l0,-5.186c0,-1.622 -0.222,-1.89 -1.376,-2.195l0,-0.199l5.651,0c3.277,0 6.175,2.129 6.175,4.987c-0,2.858 -2.898,4.987 -6.175,4.987l-5.651,-0Zm3.474,-0.878l2.111,0c2.269,0 3.882,-1.262 3.882,-4.109c-0,-2.847 -1.613,-4.109 -3.882,-4.109l-2.111,-0l-0,8.218Zm19.141,-9.099l0.328,3.445l-0.197,0c-1.296,-2.328 -1.98,-2.567 -3.251,-2.567l-3.212,-0l-0,3.536l2.086,0c0.604,0 0.903,-0.159 1.861,-1.889l0.197,-0l-0,4.656l-0.197,0c-0.958,-1.729 -1.26,-1.889 -1.861,-1.889l-2.086,0l-0,3.804l3.146,0c1.391,0 2.137,-0.373 3.474,-2.832l0.197,-0l-0.354,3.71l-9.939,0l-0,-0.199c1.154,-0.305 1.376,-0.573 1.376,-2.195l-0,-5.186c-0,-1.622 -0.222,-1.889 -1.376,-2.194l-0,-0.2l9.808,0Zm7.238,9.775l-0,0.199l-4.984,0l-0,-0.199c1.154,-0.305 1.377,-0.573 1.377,-2.195l-0,-5.186c-0,-1.622 -0.223,-1.889 -1.377,-2.194l-0,-0.2l5.677,0c3.303,0 4.93,0.943 4.93,2.568c-0,1.171 -1.194,2.02 -3.252,2.248c1.377,0.214 1.992,0.878 2.556,2.154l0.736,1.676c0.313,0.718 0.458,0.878 1.074,1.131l-0,0.2l-1.493,-0c-1.18,-0 -1.562,-0.319 -1.941,-1.357l-0.667,-1.809c-0.473,-1.277 -0.866,-1.542 -2.046,-1.542l-2.097,0l-0,2.314c-0,1.636 0.228,1.889 1.51,2.194l-0.003,-0.002Zm3.332,-7.139c-0,-1.251 -0.892,-1.755 -2.767,-1.755l-2.072,-0l-0,3.511l2.072,-0c1.875,-0 2.767,-0.505 2.767,-1.756Zm9.663,7.341l-5.531,-0l-0,-0.2c1.125,-0.305 1.31,-0.572 1.31,-2.194l-0,-5.186c-0,-1.622 -0.222,-1.89 -1.376,-2.195l-0,-0.199l5.4,0c3.277,0 4.905,0.958 4.905,2.408c-0,1.262 -1.194,2.075 -3.332,2.248c2.425,0.16 3.816,1.223 3.816,2.568c-0,1.676 -1.733,2.753 -5.195,2.753l0.003,-0.003Zm-0.316,-5.64c1.809,0 2.727,-0.504 2.727,-1.729c-0,-1.226 -0.918,-1.73 -2.727,-1.73l-1.81,-0l-0,3.457l1.81,-0l-0,0.002Zm0.225,4.762c1.992,0 2.923,-0.573 2.923,-1.94c-0,-1.368 -0.931,-1.941 -2.923,-1.941l-2.035,-0l-0,3.884l2.035,0l-0,-0.003Zm11.313,0.878l-4.85,-0l-0,-0.2c1.154,-0.305 1.376,-0.572 1.376,-2.194l-0,-5.186c-0,-1.622 -0.222,-1.89 -1.376,-2.195l-0,-0.199l4.85,0l-0,0.199c-1.154,0.305 -1.376,0.573 -1.376,2.195l-0,5.186c-0,1.622 0.222,1.889 1.376,2.194l-0,0.2Zm1.442,-0l-0,-0.2c1.154,-0.305 1.376,-0.572 1.376,-2.194l-0,-5.186c-0,-1.622 -0.222,-1.89 -1.376,-2.195l-0,-0.199l4.978,0l-0,0.199c-1.288,0.305 -1.507,0.573 -1.507,2.195l-0,6.702l2.621,0c1.508,0 2.283,-0.504 3.631,-3.097l0.197,-0l-0.382,3.978l-9.541,-0l0.003,-0.003Zm10.293,-9.974l10.042,0l0.342,3.576l-0.197,0c-1.299,-2.325 -1.991,-2.698 -3.265,-2.698l-0.852,-0l-0,6.702c-0,1.636 0.222,1.889 1.507,2.194l-0,0.2l-5.109,-0l-0,-0.2c1.288,-0.305 1.507,-0.558 1.507,-2.194l-0,-6.702l-0.852,-0c-1.271,-0 -1.966,0.373 -3.266,2.698l-0.196,0l0.339,-3.576Zm-94.06,14.713l4.104,-0l0,0.197c-1.049,0.572 -1.18,0.971 -1.18,2.593l0,3.257c0,2.619 -1.627,4.055 -4.613,4.055c-2.987,0 -4.603,-1.211 -4.603,-3.725l0,-3.989c0,-1.622 -0.222,-1.889 -1.376,-2.194l-0,-0.2l4.981,0l0,0.197c-1.285,0.305 -1.507,0.573 -1.507,2.194l-0,3.99c-0,2.088 1.168,2.767 3.095,2.767c1.926,-0 3.094,-0.958 3.094,-3.098l0,-3.257c0,-1.622 -0.248,-1.981 -1.992,-2.593l0,-0.2l-0.003,0.006Zm16.335,9.974l-1.365,-0l-7.184,-8.019l-0,5.223c-0,1.622 0.248,1.984 1.992,2.593l-0,0.2l-4.3,-0l-0,-0.197c1.139,-0.572 1.376,-0.971 1.376,-2.593l-0,-4.787c-0,-1.622 -0.197,-1.89 -1.311,-2.195l0,-0.199l3.357,-0l6.503,7.261l-0,-4.468c-0,-1.622 -0.248,-1.981 -1.992,-2.594l0,-0.199l4.169,-0l0,0.197c-1.074,0.572 -1.245,0.971 -1.245,2.593l-0,7.184Zm7.54,-0l-4.85,-0l-0,-0.2c1.154,-0.305 1.376,-0.572 1.376,-2.194l0,-5.186c0,-1.622 -0.222,-1.89 -1.376,-2.195l-0,-0.199l4.785,-0l-0,0.197c-1.115,0.304 -1.311,0.572 -1.311,2.194l-0,5.186c-0,1.622 0.222,1.89 1.376,2.194l0,0.203Zm5.731,-0l-3.856,-8.338c-0.404,-0.878 -0.615,-1.117 -1.222,-1.439l-0,-0.2l4.457,0l-0,0.2c-1.1,0.344 -1.271,0.638 -0.907,1.45l3.03,6.702l2.844,-6.343c0.367,-0.823 0.145,-1.316 -1.599,-1.809l-0,-0.2l4.038,0l-0,0.2c-0.656,0.319 -0.878,0.558 -1.288,1.436l-3.85,8.341l-1.653,-0l0.006,-0Zm7.38,-9.974l9.806,-0l0.328,3.445l-0.197,0c-1.296,-2.328 -1.98,-2.567 -3.251,-2.567l-3.209,-0l-0,3.536l2.086,0c0.604,0 0.903,-0.16 1.861,-1.889l0.197,-0l-0,4.653l-0.197,0c-0.958,-1.73 -1.26,-1.889 -1.861,-1.889l-2.086,-0l-0,3.804l3.146,0c1.391,0 2.137,-0.373 3.474,-2.829l0.197,-0l-0.354,3.71l-9.94,-0l0,-0.203c1.155,-0.304 1.377,-0.572 1.377,-2.194l-0,-5.186c-0,-1.622 -0.222,-1.89 -1.377,-2.194l0,-0.2l0,0.003Zm17.044,9.774l-0,0.2l-4.984,-0l-0,-0.2c1.154,-0.305 1.377,-0.572 1.377,-2.194l-0,-5.186c-0,-1.622 -0.223,-1.89 -1.377,-2.195l-0,-0.199l5.677,-0c3.303,-0 4.93,0.943 4.93,2.567c-0,1.172 -1.206,2.021 -3.252,2.249c1.391,0.214 2.018,0.892 2.596,2.154l0.773,1.676c0.316,0.678 0.59,0.903 1.325,1.131l-0,0.2l-1.744,-0c-1.18,-0 -1.533,-0.32 -1.941,-1.357l-0.707,-1.809c-0.498,-1.277 -0.866,-1.542 -2.046,-1.542l-2.134,-0l-0,2.314c-0,1.636 0.225,1.889 1.507,2.194l-0,-0.003Zm3.332,-7.141c-0,-1.251 -0.892,-1.755 -2.767,-1.755l-2.072,-0l-0,3.51l2.072,0c1.875,0 2.767,-0.504 2.767,-1.755Zm14.71,4.309c-0,1.795 -1.85,3.166 -4.956,3.166c-1.336,-0 -2.778,-0.28 -3.895,-0.798l-0.747,0.732l-0.197,0l-0.393,-4.044l0.197,0c1.573,2.209 3.513,3.377 5.349,3.377c2.111,0 3.054,-0.783 3.054,-1.595c-0,-0.613 -0.418,-1.172 -1.769,-1.422l-3.121,-0.599c-2.413,-0.464 -3.379,-1.476 -3.379,-2.818c-0,-1.622 1.521,-3.072 4.602,-3.072c1.14,-0 2.345,0.253 3.542,0.732l0.67,-0.664l0.196,0l0.342,3.645l-0.202,-0c-1.639,-2.169 -3.266,-2.981 -4.722,-2.981c-2.072,0 -2.924,0.784 -2.924,1.53c-0,0.664 0.482,1.197 1.759,1.437l3.211,0.598c2.414,0.45 3.383,1.448 3.383,2.779l-0,-0.003Zm6.098,3.032l-4.85,-0l-0,-0.2c1.154,-0.305 1.376,-0.572 1.376,-2.194l-0,-5.186c-0,-1.622 -0.222,-1.89 -1.376,-2.195l-0,-0.199l4.85,-0l-0,0.197c-1.154,0.304 -1.376,0.572 -1.376,2.194l-0,5.186c-0,1.622 0.222,1.89 1.376,2.194l-0,0.203Zm1.716,-9.974l10.042,-0l0.342,3.579l-0.197,0c-1.296,-2.328 -1.992,-2.699 -3.266,-2.699l-0.849,0l-0,6.703c-0,1.636 0.223,1.889 1.508,2.194l-0,0.2l-5.113,-0l-0,-0.2c1.288,-0.305 1.508,-0.558 1.508,-2.194l-0,-6.703l-0.852,0c-1.271,0 -1.966,0.374 -3.266,2.699l-0.197,0l0.342,-3.576l-0.002,-0.003Zm14.484,9.974l-0,-0.2c1.289,-0.305 1.508,-0.558 1.508,-2.194l-0,-1.411l-3.303,-4.536c-0.55,-0.744 -0.983,-1.103 -1.678,-1.436l-0,-0.2l4.628,0l-0,0.197c-1.038,0.305 -1.063,0.718 -0.513,1.45l2.647,3.565l2.351,-3.149c0.564,-0.772 0.433,-1.382 -1.166,-1.861l-0,-0.199l4.118,-0l-0,0.197c-0.721,0.344 -1.194,0.758 -1.678,1.436l-3.306,4.534l-0,1.41c-0,1.636 0.222,1.89 1.508,2.194l-0,0.2l-5.118,-0l0.002,0.003Z" style="fill:#808080;fill-rule:nonzero;"/><path d="M9.366,0.037l-9.261,-0l-0,0.424c2.773,1.895 4.104,3.368 5.83,7.076l13.331,28.5l5.976,-0l-15.876,-36Z" style="fill:#808080;fill-rule:nonzero;"/><path d="M25.242,36.037l-0,-12.582l-7.358,-15.776c-1.727,-3.679 -1.274,-5.548 1.642,-7.218l-0,-0.424l-10.16,-0l15.876,36Z" style="fill:#808080;fill-rule:nonzero;"/><path d="M41.118,0.037l9.258,-0l0,0.424c-2.773,1.895 -4.103,3.368 -5.83,7.076l-13.331,28.5l-5.976,-0l15.879,-36Z" style="fill:#808080;fill-rule:nonzero;"/><path d="M25.242,36.037l-0,-12.582l7.358,-15.776c1.727,-3.679 1.274,-5.548 -1.642,-7.218l0,-0.424l10.16,-0l-15.876,36Z" style="fill:#808080;fill-rule:nonzero;"/></g></svg>