<?xml version="1.0" encoding="UTF-8" standalone="no"?><!DOCTYPE svg PUBLIC "-//W3C//DTD SVG 1.1//EN" "http://www.w3.org/Graphics/SVG/1.1/DTD/svg11.dtd"><svg width="100%" height="100%" viewBox="0 0 95 21" version="1.1" xmlns="http://www.w3.org/2000/svg" xmlns:xlink="http://www.w3.org/1999/xlink" xml:space="preserve" xmlns:serif="http://www.serif.com/" style="fill-rule:evenodd;clip-rule:evenodd;stroke-linejoin:round;stroke-miterlimit:2;"><g id="Vanderbilt-University" serif:id="Vanderbilt University"><path d="M33.254,10.019l-2.2,-4.759c-0.233,-0.501 -0.36,-0.638 -0.809,-0.82l0,-0.114l2.656,0l0,0.114c-0.629,0.197 -0.725,0.364 -0.517,0.828l1.729,3.825l1.623,-3.62c0.21,-0.47 0.083,-0.752 -0.912,-1.031l-0,-0.114l2.304,-0l0,0.114c-0.374,0.182 -0.501,0.318 -0.735,0.819l-2.199,4.759l-0.941,0l0.001,-0.001Zm5.694,-4.667c0.21,-0.463 0.113,-0.697 -0.546,-0.91l-0,-0.114l1.968,-0l2.201,4.759c0.232,0.501 0.336,0.637 0.658,0.82l0,0.113l-2.506,0l-0,-0.113c0.629,-0.197 0.725,-0.365 0.515,-0.828l-0.374,-0.828l-2.701,-0l-0.277,0.621c-0.209,0.472 -0.083,0.752 0.913,1.033l-0,0.114l-2.305,-0l0,-0.114c0.382,-0.228 0.553,-0.425 0.794,-0.948l1.662,-3.605l-0.002,0Zm-0.561,2.398l2.253,-0l-1.13,-2.497l-1.123,2.497Zm11.376,2.27l-0.779,0l-4.101,-4.576l0,2.984c0,0.926 0.142,1.13 1.137,1.48l0,0.114l-2.379,0l-0,-0.114c0.613,-0.327 0.711,-0.554 0.711,-1.48l-0,-2.732c-0,-0.926 -0.127,-1.079 -0.786,-1.253l-0,-0.114l1.953,0l3.712,4.145l-0,-2.551c-0,-0.925 -0.142,-1.13 -1.137,-1.48l0,-0.114l2.38,0l-0,0.114c-0.614,0.327 -0.711,0.555 -0.711,1.48l-0,4.099l-0,-0.002Zm1.534,0l-0,-0.113c0.658,-0.175 0.785,-0.327 0.785,-1.253l0,-2.96c0,-0.925 -0.127,-1.078 -0.785,-1.252l-0,-0.114l3.225,-0c1.87,-0 3.524,1.215 3.524,2.846c0,1.631 -1.654,2.846 -3.524,2.846l-3.225,0Zm1.982,-0.501l1.205,0c1.295,0 2.216,-0.72 2.216,-2.345c-0,-1.625 -0.921,-2.345 -2.216,-2.345l-1.205,-0l0,4.69Zm10.925,-5.193l0.187,1.967l-0.112,-0c-0.74,-1.329 -1.13,-1.466 -1.856,-1.466l-1.833,0l0,2.019l1.191,-0c0.344,-0 0.515,-0.092 1.062,-1.079l0.112,0l0,2.658l-0.112,-0c-0.547,-0.987 -0.719,-1.078 -1.062,-1.078l-1.191,-0l0,2.171l1.796,-0c0.794,-0 1.219,-0.213 1.982,-1.617l0.113,0l-0.202,2.118l-5.673,-0l0,-0.114c0.659,-0.174 0.785,-0.327 0.785,-1.252l0,-2.961c0,-0.925 -0.126,-1.078 -0.785,-1.252l0,-0.114l5.598,0Zm4.131,5.579l0,0.114l-2.845,-0l0,-0.114c0.659,-0.174 0.786,-0.327 0.786,-1.252l0,-2.961c0,-0.925 -0.127,-1.078 -0.786,-1.252l0,-0.114l3.241,0c1.885,0 2.813,0.539 2.813,1.466c0,0.668 -0.681,1.153 -1.856,1.283c0.786,0.122 1.137,0.501 1.459,1.229l0.42,0.957c0.179,0.41 0.262,0.501 0.613,0.646l0,0.113l-0.852,0c-0.673,0 -0.891,-0.182 -1.108,-0.774l-0.38,-1.033c-0.27,-0.728 -0.495,-0.879 -1.168,-0.879l-1.197,-0l-0,1.32c-0,0.934 0.13,1.078 0.862,1.253l-0.002,-0.002Zm1.902,-4.074c-0,-0.714 -0.509,-1.002 -1.579,-1.002l-1.183,-0l-0,2.004l1.183,-0c1.07,-0 1.579,-0.288 1.579,-1.002Zm5.515,4.189l-3.157,0l0,-0.113c0.642,-0.175 0.748,-0.327 0.748,-1.253l-0,-2.96c-0,-0.925 -0.127,-1.078 -0.785,-1.252l-0,-0.114l3.082,-0c1.87,-0 2.799,0.546 2.799,1.374c0,0.721 -0.681,1.184 -1.902,1.283c1.384,0.092 2.178,0.698 2.178,1.466c0,0.956 -0.989,1.571 -2.965,1.571l0.002,-0.002Zm-0.18,-3.218c1.032,-0 1.556,-0.288 1.556,-0.988c0,-0.699 -0.524,-0.987 -1.556,-0.987l-1.033,0l-0,1.973l1.033,0l-0,0.002Zm0.128,2.717c1.137,0 1.668,-0.326 1.668,-1.107c0,-0.781 -0.531,-1.108 -1.668,-1.108l-1.161,0l-0,2.217l1.161,0l0,-0.002Zm6.457,0.501l-2.768,0l-0,-0.113c0.659,-0.175 0.785,-0.327 0.785,-1.253l0,-2.96c0,-0.925 -0.126,-1.078 -0.785,-1.252l-0,-0.114l2.768,-0l0,0.114c-0.659,0.174 -0.785,0.327 -0.785,1.252l-0,2.96c-0,0.926 0.126,1.078 0.785,1.253l0,0.113Zm0.823,0l0,-0.113c0.659,-0.175 0.785,-0.327 0.785,-1.253l0,-2.96c0,-0.925 -0.126,-1.078 -0.785,-1.252l0,-0.114l2.841,-0l0,0.114c-0.735,0.174 -0.86,0.327 -0.86,1.252l0,3.825l1.496,0c0.861,0 1.303,-0.287 2.072,-1.768l0.113,0l-0.218,2.271l-5.446,0l0.002,-0.002Zm5.875,-5.692l5.731,-0l0.196,2.041l-0.113,-0c-0.741,-1.327 -1.136,-1.54 -1.863,-1.54l-0.487,-0l0,3.825c0,0.934 0.127,1.078 0.86,1.253l0,0.113l-2.916,0l0,-0.113c0.736,-0.175 0.861,-0.319 0.861,-1.253l-0,-3.825l-0.487,-0c-0.725,-0 -1.122,0.213 -1.864,1.54l-0.112,-0l0.194,-2.041Zm-53.685,8.397l2.342,0l0,0.112c-0.598,0.327 -0.673,0.555 -0.673,1.481l-0,1.859c-0,1.494 -0.929,2.314 -2.633,2.314c-1.705,0 -2.627,-0.691 -2.627,-2.126l-0,-2.277c-0,-0.925 -0.127,-1.078 -0.786,-1.252l0,-0.114l2.843,-0l0,0.112c-0.733,0.174 -0.86,0.327 -0.86,1.253l-0,2.277c-0,1.192 0.667,1.579 1.766,1.579c1.1,-0 1.767,-0.547 1.767,-1.768l-0,-1.859c-0,-0.926 -0.142,-1.131 -1.137,-1.48l-0,-0.114l-0.002,0.003Zm9.323,5.693l-0.779,-0l-4.1,-4.577l-0,2.981c-0,0.926 0.141,1.132 1.137,1.48l-0,0.114l-2.455,0l0,-0.112c0.651,-0.327 0.786,-0.555 0.786,-1.48l-0,-2.733c-0,-0.925 -0.112,-1.078 -0.748,-1.252l-0,-0.114l1.916,0l3.711,4.144l0,-2.55c0,-0.925 -0.141,-1.13 -1.137,-1.48l0,-0.114l2.38,0l-0,0.112c-0.613,0.327 -0.711,0.555 -0.711,1.481l0,4.1Zm4.304,-0l-2.769,-0l0,-0.114c0.659,-0.174 0.786,-0.327 0.786,-1.252l-0,-2.961c-0,-0.925 -0.127,-1.078 -0.786,-1.252l0,-0.114l2.731,0l0,0.112c-0.636,0.174 -0.748,0.327 -0.748,1.253l0,2.96c0,0.925 0.127,1.078 0.786,1.252l-0,0.116Zm3.27,-0l-2.2,-4.759c-0.231,-0.501 -0.351,-0.638 -0.698,-0.822l0,-0.113l2.544,-0l-0,0.113c-0.628,0.197 -0.726,0.365 -0.517,0.828l1.729,3.826l1.623,-3.621c0.21,-0.47 0.083,-0.751 -0.913,-1.033l0,-0.113l2.305,-0l0,0.113c-0.374,0.183 -0.501,0.319 -0.735,0.82l-2.197,4.761l-0.944,-0l0.003,-0Zm4.213,-5.693l5.596,0l0.188,1.967l-0.113,-0c-0.739,-1.329 -1.13,-1.466 -1.855,-1.466l-1.832,0l0,2.019l1.191,-0c0.345,-0 0.515,-0.091 1.062,-1.079l0.112,0l0,2.656l-0.112,0c-0.547,-0.987 -0.719,-1.078 -1.062,-1.078l-1.191,-0l0,2.171l1.796,0c0.794,0 1.219,-0.213 1.983,-1.615l0.112,0l-0.202,2.118l-5.673,-0l-0,-0.116c0.659,-0.174 0.786,-0.327 0.786,-1.252l-0,-2.96c-0,-0.926 -0.127,-1.079 -0.786,-1.253l-0,-0.113l-0,0.001Zm9.728,5.579l-0,0.114l-2.845,-0l-0,-0.114c0.659,-0.174 0.786,-0.327 0.786,-1.252l-0,-2.961c-0,-0.925 -0.127,-1.078 -0.786,-1.252l-0,-0.114l3.24,0c1.885,0 2.814,0.539 2.814,1.466c-0,0.668 -0.688,1.153 -1.856,1.283c0.794,0.122 1.152,0.509 1.482,1.23l0.441,0.956c0.18,0.387 0.336,0.515 0.756,0.646l-0,0.113l-0.995,0c-0.674,0 -0.875,-0.182 -1.108,-0.774l-0.404,-1.033c-0.284,-0.728 -0.494,-0.879 -1.168,-0.879l-1.218,-0l0,1.32c0,0.934 0.129,1.079 0.861,1.253l-0,-0.002Zm1.901,-4.076c0,-0.714 -0.509,-1.002 -1.579,-1.002l-1.183,0l0,2.004l1.183,-0c1.07,-0 1.579,-0.288 1.579,-1.002Zm8.396,2.459c0,1.025 -1.056,1.807 -2.829,1.807c-0.762,0 -1.585,-0.159 -2.223,-0.455l-0.426,0.418l-0.112,-0l-0.225,-2.308l0.113,-0c0.898,1.26 2.005,1.927 3.053,1.927c1.205,0 1.743,-0.447 1.743,-0.911c-0,-0.349 -0.239,-0.668 -1.01,-0.811l-1.781,-0.342c-1.377,-0.265 -1.929,-0.842 -1.929,-1.608c0,-0.926 0.868,-1.754 2.627,-1.754c0.65,0 1.338,0.145 2.021,0.418l0.383,-0.379l0.112,0l0.195,2.081l-0.115,-0c-0.936,-1.238 -1.864,-1.702 -2.696,-1.702c-1.182,0 -1.668,0.448 -1.668,0.874c-0,0.379 0.275,0.683 1.004,0.82l1.832,0.341c1.378,0.257 1.931,0.826 1.931,1.586l0,-0.002Zm3.481,1.731l-2.769,-0l0,-0.114c0.659,-0.174 0.786,-0.327 0.786,-1.252l-0,-2.961c-0,-0.925 -0.127,-1.078 -0.786,-1.252l0,-0.114l2.769,0l-0,0.112c-0.659,0.174 -0.786,0.327 -0.786,1.253l0,2.96c0,0.925 0.127,1.078 0.786,1.252l-0,0.116Zm0.979,-5.693l5.731,0l0.196,2.043l-0.113,0c-0.739,-1.329 -1.137,-1.54 -1.864,-1.54l-0.484,-0l-0,3.825c-0,0.934 0.127,1.079 0.86,1.253l0,0.113l-2.918,0l0,-0.113c0.735,-0.174 0.861,-0.319 0.861,-1.253l-0,-3.825l-0.487,-0c-0.725,-0 -1.122,0.213 -1.864,1.54l-0.112,0l0.195,-2.041l-0.001,-0.002Zm8.267,5.693l-0,-0.114c0.735,-0.174 0.86,-0.319 0.86,-1.252l0,-0.806l-1.885,-2.589c-0.314,-0.424 -0.561,-0.629 -0.957,-0.82l-0,-0.113l2.641,-0l-0,0.112c-0.592,0.174 -0.607,0.41 -0.293,0.828l1.511,2.034l1.342,-1.797c0.322,-0.441 0.247,-0.789 -0.666,-1.062l0,-0.114l2.351,0l-0,0.112c-0.412,0.197 -0.682,0.433 -0.958,0.82l-1.887,2.588l0,0.805c0,0.934 0.127,1.078 0.861,1.252l-0,0.114l-2.921,0l0.001,0.002Z" style="fill:#808080;fill-rule:nonzero;"/><path d="M5.395,0.07l-5.286,-0l-0,0.242c1.582,1.082 2.342,1.923 3.327,4.039l7.609,16.266l3.411,-0l-9.061,-20.547Z" style="fill:#808080;fill-rule:nonzero;"/><path d="M14.456,20.617l-0,-7.181l-4.2,-9.004c-0.986,-2.1 -0.727,-3.167 0.937,-4.12l-0,-0.242l-5.798,-0l9.061,20.547Z" style="fill:#808080;fill-rule:nonzero;"/><path d="M23.517,0.07l5.284,-0l-0,0.242c-1.583,1.082 -2.342,1.923 -3.328,4.039l-7.608,16.266l-3.411,-0l9.063,-20.547Z" style="fill:#808080;fill-rule:nonzero;"/><path d="M14.456,20.617l-0,-7.181l4.199,-9.004c0.986,-2.1 0.727,-3.167 -0.937,-4.12l0,-0.242l5.799,-0l-9.061,20.547Z" style="fill:#808080;fill-rule:nonzero;"/></g></svg>