<?xml version="1.0" encoding="UTF-8" standalone="no"?><!DOCTYPE svg PUBLIC "-//W3C//DTD SVG 1.1//EN" "http://www.w3.org/Graphics/SVG/1.1/DTD/svg11.dtd"><svg width="100%" height="100%" viewBox="0 0 126 13" version="1.1" xmlns="http://www.w3.org/2000/svg" xmlns:xlink="http://www.w3.org/1999/xlink" xml:space="preserve" xmlns:serif="http://www.serif.com/" style="fill-rule:evenodd;clip-rule:evenodd;stroke-linejoin:round;stroke-miterlimit:2;"><path id="Vessev" d="M117.346,12.485l-4.714,-12.098l2.706,-0l2.656,6.742c0.295,0.749 1.355,0.751 1.653,-0l2.689,-6.745l2.664,-0l-4.736,12.101l-2.918,0Zm-0,0l0.001,0.004l-0.004,-0.004l0.003,0Zm-84.705,-12.122l6.208,-0l-11.103,9.316c-2.221,1.864 -5.156,2.889 -8.256,2.889c-3.101,0 -6.036,-1.025 -8.257,-2.889l-11.103,-9.316l6.209,-0l7.455,6.257c2.384,1.999 6.039,2.452 9.001,1.362c-2.353,-0.34 -4.532,-1.282 -6.275,-2.745l-5.809,-4.874l6.208,0l2.169,1.819c3.087,2.588 8.297,2.588 11.384,-0l2.169,-1.819Zm14.89,12.126l-4.713,-12.102l2.706,-0l2.657,6.742c0.295,0.749 1.354,0.751 1.653,-0l2.689,-6.745l2.664,-0l-4.736,12.101l-2.921,0l0.001,0.004Zm52.213,-3.122l-0,-8.98l9.638,-0l-0,2.248l-7.241,0l0,1.306c0,0.666 0.537,1.206 1.206,1.206l5.127,-0l-0,2.249l-6.333,-0l0,1.451c0,0.769 0.624,1.393 1.393,1.393l6.056,0l-0,2.248l-6.721,-0c-1.712,-0 -3.121,-1.409 -3.122,-3.121l-0.003,-0Zm-41.311,-0l-0,-8.98l9.638,-0l0,2.248l-7.241,0l0,1.306c0,0.666 0.538,1.206 1.206,1.206l5.128,-0l-0,2.249l-6.334,-0l0,1.451c0,0.769 0.624,1.393 1.393,1.393l6.056,0l0,2.248l-6.721,-0c-1.712,-0.001 -3.121,-1.409 -3.121,-3.121l-0.004,-0Zm18.695,3.412c-2.287,0 -4.422,-0.734 -5.713,-1.967l-0.094,-0.091l1.417,-2.033l0.128,0.125c1.119,1.077 2.671,1.694 4.262,1.694c1.198,-0 2.602,-0.385 2.602,-1.462c-0,-0.676 -0.392,-1.046 -1.355,-1.283l-2.796,-0.681c-1.133,-0.274 -1.919,-0.621 -2.477,-1.088c-0.669,-0.565 -0.994,-1.3 -0.994,-2.245c-0,-1.036 0.481,-1.969 1.358,-2.63c0.883,-0.665 2.081,-1.019 3.471,-1.019c1.794,0 3.472,0.596 4.978,1.771l0.122,0.093l-1.518,1.899l-0.118,-0.101c-1.06,-0.911 -2.349,-1.413 -3.627,-1.413c-1.41,-0 -2.248,0.478 -2.248,1.275c-0,0.623 0.526,0.873 1.562,1.136l2.796,0.724c2.131,0.547 3.26,1.722 3.26,3.399c-0,1.112 -0.509,2.117 -1.434,2.824c-0.908,0.692 -2.179,1.073 -3.579,1.073l-0.003,0Zm13.951,0c-2.287,0 -4.421,-0.734 -5.713,-1.967l-0.094,-0.091l1.417,-2.033l0.128,0.125c1.12,1.077 2.672,1.694 4.262,1.694c1.199,-0 2.602,-0.385 2.602,-1.462c-0,-0.676 -0.392,-1.046 -1.354,-1.283l-2.797,-0.681c-1.132,-0.274 -1.919,-0.621 -2.477,-1.088c-0.668,-0.565 -0.994,-1.3 -0.994,-2.245c-0,-1.036 0.482,-1.969 1.358,-2.63c0.883,-0.665 2.082,-1.019 3.471,-1.019c1.795,0 3.472,0.596 4.979,1.771l0.121,0.093l-1.517,1.899l-0.118,-0.104c-1.06,-0.911 -2.349,-1.41 -3.628,-1.41c-1.41,-0 -2.248,0.478 -2.248,1.275c0,0.623 0.527,0.873 1.563,1.136l2.795,0.724c2.135,0.547 3.261,1.722 3.261,3.399c-0,1.112 -0.51,2.117 -1.438,2.824c-0.908,0.692 -2.18,1.073 -3.579,1.073Z" style="fill:#808080;"/></svg>