<?xml version="1.0" encoding="UTF-8" standalone="no"?>
<!DOCTYPE svg PUBLIC "-//W3C//DTD SVG 1.1//EN" "http://www.w3.org/Graphics/SVG/1.1/DTD/svg11.dtd">
<svg width="100%" height="100%" viewBox="0 0 640 640" version="1.1" xmlns="http://www.w3.org/2000/svg" xmlns:xlink="http://www.w3.org/1999/xlink" xml:space="preserve" xmlns:serif="http://www.serif.com/" style="fill-rule:evenodd;clip-rule:evenodd;stroke-linejoin:round;stroke-miterlimit:2;">
    <g transform="matrix(1,0,0,1,-3009,-680)">
        <g transform="matrix(1,0,0,1,2328.86,0)">
            <g id="Flattened-Logo" serif:id="Flattened Logo">
                <g transform="matrix(0.943126,0,0,0.943126,-2143.68,61.4871)">
                    <circle cx="3333.26" cy="995.109" r="338.578" style="fill:white;"/>
                </g>
                <g transform="matrix(0.780422,-7.88861e-31,-3.9443e-31,0.740881,-955.4,2938.67)">
                    <path d="M2469.97,-2965.68L2541.16,-2965.68L2541.16,-2793.69L2469.97,-2793.69L2469.97,-2965.68ZM2246.14,-2836.96L2296.48,-2889.98L2411.93,-2768.37L2361.6,-2715.35L2246.14,-2836.96ZM2174.28,-2579.22L2174.28,-2654.21L2337.56,-2654.21L2337.56,-2579.22L2174.28,-2579.22ZM2296.48,-2343.45L2246.14,-2396.47L2419.43,-2579.01C2467,-2629.12 2544.13,-2629.12 2591.7,-2579.01L2764.99,-2396.47L2714.65,-2343.45L2541.36,-2525.98C2521.59,-2546.81 2489.54,-2546.81 2469.77,-2525.98L2296.48,-2343.45ZM2836.85,-2654.21L2836.85,-2579.22L2673.58,-2579.22L2673.58,-2654.21L2836.85,-2654.21ZM2714.65,-2889.98L2764.99,-2836.96L2649.54,-2715.35L2599.2,-2768.37L2714.65,-2889.98Z" style="fill:rgb(38,38,38);stroke:rgb(38,38,38);stroke-width:1.31px;"/>
                </g>
            </g>
        </g>
    </g>
</svg>
