<?xml version="1.0" encoding="UTF-8" standalone="no"?><!DOCTYPE svg PUBLIC "-//W3C//DTD SVG 1.1//EN" "http://www.w3.org/Graphics/SVG/1.1/DTD/svg11.dtd"><svg width="100%" height="100%" viewBox="0 0 247 37" version="1.1" xmlns="http://www.w3.org/2000/svg" xmlns:xlink="http://www.w3.org/1999/xlink" xml:space="preserve" xmlns:serif="http://www.serif.com/" style="fill-rule:evenodd;clip-rule:evenodd;stroke-linejoin:round;stroke-miterlimit:2;"><g><g id="Flattened-Logo" serif:id="Flattened Logo"><path d="M18.297,0.092l4.389,0l0,10.068l-4.389,0l0,-10.068Zm-13.802,7.535l3.104,-3.103l7.119,7.119l-3.104,3.103l-7.119,-7.119Zm-4.431,15.088l0,-4.39l10.068,0l-0,4.39l-10.068,-0Zm7.535,13.801l-3.104,-3.103l10.686,-10.686c2.933,-2.933 7.689,-2.933 10.622,0l10.685,10.686l-3.104,3.103l-10.685,-10.685c-1.219,-1.219 -3.195,-1.219 -4.415,0l-10.685,10.685Zm33.32,-18.191l0,4.39l-10.067,-0l-0,-4.39l10.067,0Zm-7.535,-13.801l3.104,3.103l-7.119,7.119l-3.104,-3.103l7.119,-7.119Z" style="fill:#262626;"/></g><g transform="matrix(27.4995,0,0,27.4995,229.913,29.5124)"><path d="M0.28,0.015c-0.048,0 -0.092,-0.011 -0.13,-0.034c-0.038,-0.022 -0.068,-0.054 -0.09,-0.094c-0.022,-0.041 -0.033,-0.088 -0.033,-0.142c0,-0.041 0.007,-0.078 0.019,-0.111c0.013,-0.033 0.031,-0.061 0.053,-0.085c0.023,-0.024 0.05,-0.042 0.08,-0.055c0.031,-0.013 0.064,-0.019 0.1,-0.019c0.048,0 0.088,0.01 0.122,0.031c0.033,0.02 0.057,0.047 0.071,0.081l-0.023,0.036l0.001,-0.133l0.141,0l-0,0.51l-0.141,-0l-0,-0.133l0.022,0.035c-0.014,0.034 -0.038,0.061 -0.071,0.082c-0.034,0.021 -0.074,0.031 -0.121,0.031Zm0.028,-0.141c0.022,0 0.043,-0.005 0.061,-0.016c0.018,-0.01 0.032,-0.025 0.043,-0.044c0.011,-0.02 0.016,-0.043 0.016,-0.069c0,-0.027 -0.005,-0.05 -0.016,-0.069c-0.011,-0.019 -0.025,-0.034 -0.043,-0.044c-0.018,-0.011 -0.039,-0.016 -0.062,-0.016c-0.022,-0 -0.042,0.005 -0.061,0.016c-0.017,0.01 -0.032,0.025 -0.042,0.044c-0.011,0.019 -0.016,0.042 -0.016,0.069c-0.001,0.026 0.005,0.049 0.016,0.069c0.01,0.019 0.024,0.034 0.042,0.044c0.018,0.011 0.039,0.016 0.061,0.016Z" style="fill:#262626;fill-rule:nonzero;"/></g><g transform="matrix(27.4995,0,0,27.4995,229.913,29.5124)"></g><g transform="matrix(27.4995,0,0,27.4995,248.022,29.5124)"></g><text x="53.312px" y="29.512px" style="font-family:'Geologica-Bold', 'Geologica';font-weight:700;font-size:27.499px;fill:#262626;">The Onsherp</text></g></svg>