<?xml version="1.0" encoding="UTF-8" standalone="no"?><!DOCTYPE svg PUBLIC "-//W3C//DTD SVG 1.1//EN" "http://www.w3.org/Graphics/SVG/1.1/DTD/svg11.dtd"><svg width="100%" height="100%" viewBox="0 0 247 37" version="1.1" xmlns="http://www.w3.org/2000/svg" xmlns:xlink="http://www.w3.org/1999/xlink" xml:space="preserve" xmlns:serif="http://www.serif.com/" style="fill-rule:evenodd;clip-rule:evenodd;stroke-linejoin:round;stroke-miterlimit:2;"><g><g><path d="M18.297,0.092l4.389,0l0,10.068l-4.389,0l0,-10.068Zm-13.802,7.535l3.104,-3.103l7.119,7.119l-3.104,3.103l-7.119,-7.119Zm-4.431,15.088l0,-4.39l10.068,0l-0,4.39l-10.068,-0Zm7.535,13.801l-3.104,-3.103l10.686,-10.686c2.933,-2.933 7.689,-2.933 10.622,0l10.685,10.686l-3.104,3.103l-10.685,-10.685c-1.219,-1.219 -3.195,-1.219 -4.415,0l-10.685,10.685Zm33.32,-18.191l0,4.39l-10.067,-0l-0,-4.39l10.067,0Zm-7.535,-13.801l3.104,3.103l-7.119,7.119l-3.104,-3.103l7.119,-7.119Z" style="fill:#262626;"/></g><g><path d="M58.963,29.512l-0,-15.083l-5.129,-0l0,-4.166l14.85,-0l-0,4.166l-5.129,-0l0,15.083l-4.592,0Z" style="fill:#262626;fill-rule:nonzero;"/><path d="M71.076,29.512l0,-19.799l4.51,-0l0,8.91l-0.935,-1.114c0.605,-0.743 1.325,-1.334 2.159,-1.774c0.834,-0.44 1.755,-0.66 2.764,-0.66c1.31,0 2.403,0.261 3.279,0.784c0.875,0.522 1.528,1.205 1.959,2.049c0.431,0.843 0.646,1.75 0.646,2.722l0,8.882l-4.509,0l-0,-7.617c-0,-0.807 -0.234,-1.462 -0.702,-1.966c-0.467,-0.504 -1.123,-0.761 -1.966,-0.77c-0.568,-0.009 -1.052,0.103 -1.451,0.337c-0.398,0.233 -0.705,0.568 -0.921,1.003c-0.215,0.436 -0.323,0.951 -0.323,1.547l0,7.466l-4.51,0Z" style="fill:#262626;fill-rule:nonzero;"/><path d="M95.716,29.925c-1.54,-0 -2.892,-0.31 -4.056,-0.928c-1.165,-0.619 -2.072,-1.485 -2.723,-2.599c-0.651,-1.114 -0.976,-2.418 -0.976,-3.912c-0,-1.081 0.19,-2.076 0.571,-2.983c0.38,-0.908 0.912,-1.692 1.594,-2.352c0.683,-0.66 1.49,-1.171 2.42,-1.533c0.931,-0.362 1.955,-0.543 3.073,-0.543c1.229,0 2.324,0.218 3.287,0.653c0.962,0.436 1.757,1.041 2.385,1.815c0.628,0.775 1.061,1.687 1.3,2.736c0.238,1.05 0.247,2.189 0.027,3.417l-10.532,0c0.009,0.55 0.174,1.031 0.495,1.444c0.321,0.412 0.761,0.736 1.32,0.969c0.559,0.234 1.21,0.351 1.952,0.351c0.825,-0 1.609,-0.108 2.351,-0.323c0.743,-0.216 1.453,-0.548 2.132,-0.997l1.416,3.052c-0.431,0.33 -0.988,0.626 -1.671,0.887c-0.683,0.261 -1.407,0.468 -2.172,0.619c-0.766,0.151 -1.497,0.227 -2.193,0.227Zm-3.355,-9.267l5.967,-0c-0.018,-0.706 -0.279,-1.27 -0.784,-1.692c-0.504,-0.421 -1.187,-0.632 -2.048,-0.632c-0.871,-0 -1.593,0.211 -2.166,0.632c-0.573,0.422 -0.896,0.986 -0.969,1.692Z" style="fill:#262626;fill-rule:nonzero;"/><path d="M121.208,29.925c-1.476,-0 -2.84,-0.255 -4.091,-0.763c-1.251,-0.509 -2.34,-1.217 -3.265,-2.125c-0.926,-0.907 -1.643,-1.97 -2.152,-3.19c-0.509,-1.219 -0.763,-2.539 -0.763,-3.959c-0,-1.43 0.254,-2.755 0.763,-3.974c0.509,-1.219 1.226,-2.283 2.152,-3.19c0.925,-0.908 2.014,-1.613 3.265,-2.118c1.251,-0.504 2.615,-0.756 4.091,-0.756c1.485,0 2.851,0.257 4.097,0.77c1.247,0.514 2.333,1.229 3.259,2.145c0.926,0.917 1.643,1.982 2.152,3.197c0.508,1.215 0.763,2.523 0.763,3.926c-0,1.42 -0.255,2.74 -0.763,3.959c-0.509,1.22 -1.226,2.283 -2.152,3.19c-0.926,0.908 -2.012,1.616 -3.259,2.125c-1.246,0.508 -2.612,0.763 -4.097,0.763Zm-0,-4.29c0.797,-0 1.528,-0.133 2.193,-0.399c0.664,-0.266 1.244,-0.651 1.739,-1.155c0.495,-0.504 0.878,-1.111 1.148,-1.822c0.271,-0.71 0.406,-1.501 0.406,-2.371c-0,-1.174 -0.236,-2.191 -0.708,-3.053c-0.472,-0.862 -1.123,-1.528 -1.953,-2c-0.829,-0.473 -1.771,-0.709 -2.825,-0.709c-0.789,0 -1.517,0.136 -2.186,0.406c-0.67,0.27 -1.249,0.658 -1.74,1.162c-0.49,0.504 -0.873,1.109 -1.148,1.815c-0.275,0.706 -0.412,1.499 -0.412,2.379c-0,1.164 0.238,2.177 0.715,3.038c0.476,0.862 1.129,1.529 1.959,2.001c0.829,0.472 1.767,0.708 2.812,0.708Z" style="fill:#262626;fill-rule:nonzero;"/><path d="M134.435,29.512l-0,-14.024l4.51,-0l-0,1.485c0.522,-0.66 1.141,-1.142 1.856,-1.444c0.715,-0.303 1.467,-0.454 2.255,-0.454c1.32,0 2.406,0.259 3.259,0.777c0.852,0.518 1.482,1.187 1.89,2.007c0.408,0.821 0.612,1.689 0.612,2.606l0,9.047l-4.51,0l0,-7.631c0,-0.843 -0.222,-1.508 -0.667,-1.993c-0.444,-0.486 -1.097,-0.729 -1.959,-0.729c-0.55,-0 -1.029,0.119 -1.437,0.357c-0.408,0.239 -0.726,0.576 -0.955,1.011c-0.23,0.435 -0.344,0.933 -0.344,1.492l-0,7.493l-4.51,0Z" style="fill:#262626;fill-rule:nonzero;"/><path d="M157.7,29.897c-1.302,0 -2.491,-0.16 -3.569,-0.481c-1.077,-0.321 -2.005,-0.774 -2.784,-1.361l1.403,-3.094c0.76,0.486 1.576,0.869 2.447,1.148c0.871,0.28 1.696,0.42 2.475,0.42c0.715,-0 1.26,-0.099 1.636,-0.296c0.376,-0.197 0.564,-0.483 0.564,-0.859c-0,-0.33 -0.172,-0.573 -0.516,-0.729c-0.343,-0.156 -1.015,-0.325 -2.014,-0.509c-1.888,-0.321 -3.27,-0.85 -4.146,-1.588c-0.875,-0.738 -1.313,-1.748 -1.313,-3.032c0,-0.916 0.252,-1.718 0.757,-2.406c0.504,-0.687 1.203,-1.221 2.096,-1.602c0.894,-0.38 1.923,-0.57 3.087,-0.57c1.137,-0 2.212,0.151 3.225,0.453c1.012,0.303 1.881,0.725 2.605,1.265l-1.361,3.094c-0.376,-0.284 -0.809,-0.536 -1.299,-0.756c-0.491,-0.22 -0.997,-0.39 -1.52,-0.509c-0.522,-0.119 -1.031,-0.179 -1.526,-0.179c-0.614,0 -1.111,0.094 -1.492,0.282c-0.38,0.188 -0.57,0.447 -0.57,0.777c-0,0.339 0.165,0.591 0.495,0.756c0.33,0.165 0.99,0.353 1.98,0.564c1.998,0.403 3.414,0.946 4.248,1.629c0.834,0.683 1.251,1.639 1.251,2.867c0,0.954 -0.259,1.783 -0.776,2.489c-0.518,0.706 -1.238,1.253 -2.159,1.643c-0.921,0.39 -1.996,0.584 -3.224,0.584Z" style="fill:#262626;fill-rule:nonzero;"/><path d="M166.802,29.512l-0,-19.799l4.51,-0l-0,8.91l-0.935,-1.114c0.605,-0.743 1.324,-1.334 2.158,-1.774c0.835,-0.44 1.756,-0.66 2.764,-0.66c1.311,0 2.404,0.261 3.279,0.784c0.876,0.522 1.529,1.205 1.96,2.049c0.431,0.843 0.646,1.75 0.646,2.722l0,8.882l-4.51,0l0,-7.617c0,-0.807 -0.234,-1.462 -0.701,-1.966c-0.468,-0.504 -1.123,-0.761 -1.966,-0.77c-0.569,-0.009 -1.052,0.103 -1.451,0.337c-0.399,0.233 -0.706,0.568 -0.921,1.003c-0.216,0.436 -0.323,0.951 -0.323,1.547l-0,7.466l-4.51,0Z" style="fill:#262626;fill-rule:nonzero;"/><path d="M191.441,29.925c-1.54,-0 -2.892,-0.31 -4.056,-0.928c-1.164,-0.619 -2.071,-1.485 -2.722,-2.599c-0.651,-1.114 -0.976,-2.418 -0.976,-3.912c-0,-1.081 0.19,-2.076 0.57,-2.983c0.381,-0.908 0.912,-1.692 1.595,-2.352c0.683,-0.66 1.49,-1.171 2.42,-1.533c0.93,-0.362 1.955,-0.543 3.073,-0.543c1.228,0 2.324,0.218 3.286,0.653c0.963,0.436 1.758,1.041 2.386,1.815c0.628,0.775 1.061,1.687 1.299,2.736c0.239,1.05 0.248,2.189 0.028,3.417l-10.533,0c0.01,0.55 0.175,1.031 0.495,1.444c0.321,0.412 0.761,0.736 1.32,0.969c0.56,0.234 1.21,0.351 1.953,0.351c0.825,-0 1.609,-0.108 2.351,-0.323c0.743,-0.216 1.453,-0.548 2.131,-0.997l1.417,3.052c-0.431,0.33 -0.988,0.626 -1.671,0.887c-0.683,0.261 -1.407,0.468 -2.173,0.619c-0.765,0.151 -1.496,0.227 -2.193,0.227Zm-3.355,-9.267l5.968,-0c-0.019,-0.706 -0.28,-1.27 -0.784,-1.692c-0.504,-0.421 -1.187,-0.632 -2.049,-0.632c-0.87,-0 -1.592,0.211 -2.165,0.632c-0.573,0.422 -0.896,0.986 -0.97,1.692Z" style="fill:#262626;fill-rule:nonzero;"/><path d="M201.135,29.512l-0,-14.024l4.51,-0l-0,1.636c0.421,-0.724 0.981,-1.251 1.677,-1.581c0.697,-0.33 1.453,-0.495 2.269,-0.495c0.312,-0 0.591,0.018 0.839,0.055c0.247,0.036 0.49,0.078 0.728,0.123l-0.536,4.634c-0.311,-0.11 -0.641,-0.199 -0.99,-0.268c-0.348,-0.069 -0.696,-0.103 -1.045,-0.103c-0.852,-0 -1.556,0.245 -2.11,0.735c-0.555,0.491 -0.832,1.208 -0.832,2.152l-0,7.136l-4.51,0Z" style="fill:#262626;fill-rule:nonzero;"/><path d="M213.331,35.287l-0,-19.799l3.891,-0l0,1.608c0.523,-0.614 1.189,-1.104 2.001,-1.471c0.811,-0.367 1.753,-0.55 2.825,-0.55c1.339,0 2.533,0.307 3.582,0.921c1.05,0.615 1.877,1.481 2.482,2.599c0.605,1.118 0.907,2.42 0.907,3.905c0,1.045 -0.171,2.019 -0.515,2.922c-0.344,0.903 -0.832,1.691 -1.465,2.365c-0.632,0.674 -1.377,1.198 -2.234,1.574c-0.857,0.376 -1.803,0.564 -2.839,0.564c-0.825,-0 -1.584,-0.133 -2.276,-0.399c-0.692,-0.266 -1.313,-0.642 -1.863,-1.127l0,6.888l-4.496,0Zm7.879,-9.24c0.65,0 1.232,-0.144 1.746,-0.433c0.513,-0.288 0.916,-0.699 1.21,-1.23c0.293,-0.532 0.44,-1.16 0.44,-1.884c-0,-0.733 -0.149,-1.364 -0.447,-1.891c-0.298,-0.527 -0.701,-0.935 -1.21,-1.223c-0.509,-0.289 -1.089,-0.433 -1.739,-0.433c-0.642,-0 -1.22,0.144 -1.733,0.433c-0.513,0.288 -0.917,0.696 -1.21,1.223c-0.293,0.527 -0.44,1.158 -0.44,1.891c0,0.724 0.147,1.352 0.44,1.884c0.293,0.531 0.694,0.942 1.203,1.23c0.509,0.289 1.089,0.433 1.74,0.433Z" style="fill:#262626;fill-rule:nonzero;"/><path d="M237.599,29.925c-1.32,-0 -2.502,-0.31 -3.547,-0.928c-1.045,-0.619 -1.87,-1.485 -2.475,-2.599c-0.605,-1.114 -0.908,-2.413 -0.908,-3.898c0,-1.118 0.175,-2.133 0.523,-3.046c0.348,-0.912 0.834,-1.693 1.457,-2.344c0.624,-0.651 1.357,-1.153 2.2,-1.505c0.844,-0.353 1.76,-0.53 2.75,-0.53c1.302,0 2.411,0.282 3.328,0.846c0.916,0.563 1.572,1.313 1.966,2.248l-0.619,0.976l0,-3.657l3.878,-0l-0,14.024l-3.878,0l0,-3.657l0.619,0.962c-0.394,0.935 -1.05,1.687 -1.966,2.255c-0.917,0.569 -2.026,0.853 -3.328,0.853Zm0.77,-3.878c0.624,0 1.185,-0.144 1.685,-0.433c0.499,-0.288 0.896,-0.699 1.189,-1.23c0.293,-0.532 0.44,-1.16 0.44,-1.884c-0,-0.733 -0.147,-1.364 -0.44,-1.891c-0.293,-0.527 -0.69,-0.935 -1.189,-1.223c-0.5,-0.289 -1.061,-0.433 -1.685,-0.433c-0.623,-0 -1.182,0.144 -1.677,0.433c-0.495,0.288 -0.889,0.696 -1.183,1.223c-0.293,0.527 -0.44,1.158 -0.44,1.891c0,0.724 0.147,1.352 0.44,1.884c0.294,0.531 0.688,0.942 1.183,1.23c0.495,0.289 1.054,0.433 1.677,0.433Z" style="fill:#262626;fill-rule:nonzero;"/></g></g></svg>