<?xml version="1.0" encoding="UTF-8" standalone="no"?><!DOCTYPE svg PUBLIC "-//W3C//DTD SVG 1.1//EN" "http://www.w3.org/Graphics/SVG/1.1/DTD/svg11.dtd"><svg width="100%" height="100%" viewBox="0 0 286 72" version="1.1" xmlns="http://www.w3.org/2000/svg" xmlns:xlink="http://www.w3.org/1999/xlink" xml:space="preserve" xmlns:serif="http://www.serif.com/" style="fill-rule:evenodd;clip-rule:evenodd;stroke-linecap:round;stroke-linejoin:round;stroke-miterlimit:1.5;"><rect id="LinkedIn-Banner" serif:id="LinkedIn Banner" x="0" y="0" width="285.12" height="71.28" style="fill:#609865;"/><g><g id="Flattened-Logo" serif:id="Flattened Logo"><path d="M193.521,28.088l1.82,0l-0,4.175l-1.82,0l-0,-4.175Zm-5.723,3.125l1.287,-1.287l2.952,2.952l-1.287,1.287l-2.952,-2.952Zm-1.838,6.256l-0,-1.82l4.175,0l-0,1.82l-4.175,0Zm3.125,5.723l-1.287,-1.287l4.43,-4.431c1.217,-1.216 3.189,-1.216 4.405,0l4.431,4.431l-1.287,1.287l-4.431,-4.431c-0.506,-0.506 -1.325,-0.506 -1.831,0l-4.43,4.431Zm13.816,-7.543l-0,1.82l-4.175,0l-0,-1.82l4.175,0Zm-3.124,-5.723l1.287,1.287l-2.952,2.952l-1.287,-1.287l2.952,-2.952Z" style="fill:#fff;"/></g><path d="M209.43,33.114l0,-4.24l-1.442,0l0,-1.171l4.174,0l0,1.171l-1.441,0l0,4.24l-1.291,0Zm4.672,-3.642c0.106,-0.088 0.22,-0.165 0.344,-0.231c0.234,-0.123 0.493,-0.185 0.777,-0.185c0.368,0 0.675,0.073 0.921,0.22c0.246,0.147 0.43,0.339 0.551,0.576c0.121,0.237 0.182,0.492 0.182,0.765l0,2.497l-1.268,0l0,-2.141c0,-0.227 -0.066,-0.411 -0.197,-0.553c-0.131,-0.142 -0.316,-0.214 -0.553,-0.216c-0.159,-0.003 -0.295,0.029 -0.407,0.094c-0.112,0.066 -0.199,0.16 -0.259,0.282c-0.061,0.123 -0.091,0.268 -0.091,0.435l0,2.099l-1.268,0l0,-5.565l1.268,0l0,1.923Zm5.658,3.757c-0.433,0 -0.813,-0.087 -1.14,-0.26c-0.328,-0.174 -0.583,-0.418 -0.766,-0.731c-0.183,-0.313 -0.274,-0.679 -0.274,-1.099c0,-0.304 0.053,-0.584 0.16,-0.839c0.107,-0.255 0.257,-0.475 0.449,-0.661c0.192,-0.185 0.418,-0.329 0.68,-0.431c0.261,-0.101 0.549,-0.152 0.863,-0.152c0.346,0 0.654,0.061 0.924,0.183c0.271,0.123 0.494,0.293 0.671,0.51c0.176,0.218 0.298,0.475 0.365,0.77c0.067,0.295 0.069,0.615 0.008,0.96l-2.961,0c0.003,0.154 0.049,0.29 0.139,0.406c0.091,0.116 0.214,0.206 0.371,0.272c0.158,0.066 0.341,0.099 0.549,0.099c0.232,0 0.452,-0.031 0.661,-0.091c0.209,-0.061 0.408,-0.154 0.599,-0.28l0.398,0.858c-0.121,0.092 -0.278,0.175 -0.469,0.249c-0.192,0.073 -0.396,0.131 -0.611,0.174c-0.215,0.042 -0.421,0.063 -0.616,0.063Zm-0.943,-2.604l1.677,0c-0.005,-0.199 -0.079,-0.357 -0.22,-0.476c-0.142,-0.118 -0.334,-0.177 -0.576,-0.177c-0.245,0 -0.448,0.059 -0.609,0.177c-0.161,0.119 -0.252,0.277 -0.272,0.476Zm8.107,2.604c-0.415,0 -0.798,-0.071 -1.149,-0.214c-0.352,-0.143 -0.658,-0.342 -0.918,-0.597c-0.26,-0.255 -0.462,-0.554 -0.605,-0.897c-0.143,-0.342 -0.214,-0.713 -0.214,-1.113c0,-0.402 0.071,-0.774 0.214,-1.116c0.143,-0.343 0.345,-0.642 0.605,-0.897c0.26,-0.255 0.566,-0.453 0.918,-0.595c0.351,-0.142 0.734,-0.213 1.149,-0.213c0.418,0 0.801,0.072 1.152,0.217c0.35,0.144 0.656,0.345 0.916,0.603c0.26,0.257 0.462,0.557 0.605,0.898c0.143,0.341 0.214,0.709 0.214,1.103c0,0.4 -0.071,0.771 -0.214,1.113c-0.143,0.343 -0.345,0.642 -0.605,0.897c-0.26,0.255 -0.566,0.454 -0.916,0.597c-0.351,0.143 -0.734,0.214 -1.152,0.214Zm0,-1.205c0.224,0 0.43,-0.038 0.617,-0.112c0.186,-0.075 0.349,-0.183 0.488,-0.325c0.14,-0.142 0.247,-0.312 0.323,-0.512c0.076,-0.2 0.114,-0.422 0.114,-0.667c0,-0.329 -0.066,-0.615 -0.199,-0.858c-0.133,-0.242 -0.315,-0.429 -0.549,-0.562c-0.233,-0.132 -0.497,-0.199 -0.794,-0.199c-0.221,0 -0.426,0.038 -0.614,0.114c-0.188,0.076 -0.351,0.185 -0.489,0.327c-0.138,0.141 -0.245,0.311 -0.323,0.51c-0.077,0.198 -0.116,0.421 -0.116,0.668c0,0.328 0.067,0.612 0.201,0.854c0.134,0.243 0.318,0.43 0.551,0.563c0.233,0.132 0.497,0.199 0.79,0.199Zm3.718,1.09l0,-3.942l1.267,0l0,0.417c0.147,-0.185 0.321,-0.321 0.522,-0.406c0.201,-0.085 0.412,-0.127 0.634,-0.127c0.371,0 0.676,0.073 0.916,0.218c0.239,0.146 0.416,0.334 0.531,0.564c0.115,0.231 0.172,0.475 0.172,0.733l0,2.543l-1.267,0l0,-2.145c0,-0.237 -0.063,-0.424 -0.188,-0.561c-0.125,-0.136 -0.308,-0.204 -0.551,-0.204c-0.154,0 -0.289,0.033 -0.403,0.1c-0.115,0.067 -0.205,0.162 -0.269,0.284c-0.064,0.122 -0.097,0.262 -0.097,0.419l0,2.107l-1.267,0Zm6.539,0.108c-0.366,0 -0.701,-0.045 -1.003,-0.136c-0.303,-0.09 -0.564,-0.217 -0.783,-0.382l0.394,-0.87c0.214,0.137 0.443,0.244 0.688,0.323c0.245,0.079 0.477,0.118 0.696,0.118c0.201,0 0.354,-0.028 0.46,-0.083c0.105,-0.056 0.158,-0.136 0.158,-0.242c0,-0.092 -0.048,-0.161 -0.145,-0.205c-0.096,-0.043 -0.285,-0.091 -0.566,-0.142c-0.531,-0.091 -0.919,-0.239 -1.165,-0.447c-0.246,-0.207 -0.369,-0.491 -0.369,-0.852c0,-0.258 0.071,-0.483 0.212,-0.676c0.142,-0.193 0.339,-0.344 0.59,-0.45c0.251,-0.107 0.54,-0.161 0.867,-0.161c0.32,0 0.622,0.043 0.907,0.128c0.284,0.085 0.528,0.203 0.732,0.355l-0.383,0.87c-0.105,-0.08 -0.227,-0.151 -0.365,-0.213c-0.138,-0.062 -0.28,-0.109 -0.427,-0.143c-0.147,-0.033 -0.29,-0.05 -0.429,-0.05c-0.173,0 -0.312,0.026 -0.419,0.079c-0.107,0.053 -0.161,0.126 -0.161,0.219c0,0.095 0.047,0.166 0.14,0.212c0.092,0.046 0.278,0.099 0.556,0.159c0.562,0.113 0.96,0.266 1.194,0.457c0.235,0.192 0.352,0.461 0.352,0.806c0,0.268 -0.073,0.501 -0.219,0.7c-0.145,0.198 -0.347,0.352 -0.606,0.461c-0.259,0.11 -0.561,0.165 -0.906,0.165Zm3.825,-3.75c0.106,-0.088 0.221,-0.165 0.344,-0.231c0.235,-0.123 0.494,-0.185 0.777,-0.185c0.368,0 0.676,0.073 0.922,0.22c0.246,0.147 0.429,0.339 0.55,0.576c0.122,0.237 0.182,0.492 0.182,0.765l0,2.497l-1.267,0l0,-2.141c0,-0.227 -0.066,-0.411 -0.198,-0.553c-0.131,-0.142 -0.315,-0.214 -0.552,-0.216c-0.16,-0.003 -0.296,0.029 -0.408,0.094c-0.112,0.066 -0.198,0.16 -0.259,0.282c-0.06,0.123 -0.091,0.268 -0.091,0.435l0,2.099l-1.267,0l0,-5.565l1.267,0l0,1.923Zm5.658,3.757c-0.433,0 -0.813,-0.087 -1.14,-0.26c-0.327,-0.174 -0.582,-0.418 -0.765,-0.731c-0.183,-0.313 -0.275,-0.679 -0.275,-1.099c0,-0.304 0.054,-0.584 0.161,-0.839c0.107,-0.255 0.256,-0.475 0.448,-0.661c0.192,-0.185 0.419,-0.329 0.68,-0.431c0.262,-0.101 0.55,-0.152 0.864,-0.152c0.345,0 0.653,0.061 0.923,0.183c0.271,0.123 0.494,0.293 0.671,0.51c0.176,0.218 0.298,0.475 0.365,0.77c0.067,0.295 0.07,0.615 0.008,0.96l-2.96,0c0.002,0.154 0.049,0.29 0.139,0.406c0.09,0.116 0.214,0.206 0.371,0.272c0.157,0.066 0.34,0.099 0.549,0.099c0.231,0 0.452,-0.031 0.66,-0.091c0.209,-0.061 0.409,-0.154 0.599,-0.28l0.398,0.858c-0.121,0.092 -0.277,0.175 -0.469,0.249c-0.192,0.073 -0.396,0.131 -0.611,0.174c-0.215,0.042 -0.42,0.063 -0.616,0.063Zm-0.943,-2.604l1.677,0c-0.005,-0.199 -0.078,-0.357 -0.22,-0.476c-0.142,-0.118 -0.334,-0.177 -0.576,-0.177c-0.245,0 -0.448,0.059 -0.609,0.177c-0.161,0.119 -0.251,0.277 -0.272,0.476Zm3.667,2.489l0,-3.942l1.268,0l0,0.46c0.118,-0.204 0.276,-0.352 0.471,-0.445c0.196,-0.093 0.409,-0.139 0.638,-0.139c0.088,0 0.166,0.005 0.236,0.016c0.069,0.01 0.138,0.021 0.205,0.034l-0.151,1.303c-0.088,-0.031 -0.18,-0.056 -0.278,-0.076c-0.098,-0.019 -0.196,-0.029 -0.294,-0.029c-0.24,0 -0.437,0.069 -0.593,0.207c-0.156,0.138 -0.234,0.339 -0.234,0.605l0,2.006l-1.268,0Zm3.428,1.623l0,-5.565l1.094,0l0,0.452c0.147,-0.173 0.334,-0.311 0.562,-0.414c0.228,-0.103 0.493,-0.154 0.794,-0.154c0.376,0 0.712,0.086 1.007,0.259c0.295,0.172 0.527,0.416 0.697,0.73c0.17,0.314 0.256,0.68 0.256,1.098c0,0.293 -0.049,0.567 -0.145,0.821c-0.097,0.254 -0.234,0.475 -0.412,0.665c-0.178,0.189 -0.387,0.336 -0.628,0.442c-0.241,0.106 -0.507,0.158 -0.798,0.158c-0.232,0 -0.445,-0.037 -0.64,-0.112c-0.194,-0.074 -0.369,-0.18 -0.523,-0.317l0,1.937l-1.264,0Zm2.214,-2.597c0.183,0 0.347,-0.041 0.491,-0.122c0.145,-0.081 0.258,-0.197 0.34,-0.346c0.083,-0.149 0.124,-0.326 0.124,-0.529c0,-0.206 -0.042,-0.384 -0.126,-0.532c-0.083,-0.148 -0.197,-0.263 -0.34,-0.344c-0.143,-0.081 -0.306,-0.121 -0.489,-0.121c-0.18,0 -0.342,0.04 -0.486,0.121c-0.145,0.081 -0.258,0.196 -0.341,0.344c-0.082,0.148 -0.123,0.326 -0.123,0.532c0,0.203 0.041,0.38 0.123,0.529c0.083,0.149 0.196,0.265 0.339,0.346c0.143,0.081 0.306,0.122 0.488,0.122Zm5.921,0.514c-0.101,0.13 -0.227,0.242 -0.379,0.336c-0.257,0.16 -0.569,0.239 -0.935,0.239c-0.371,0 -0.703,-0.087 -0.997,-0.26c-0.294,-0.174 -0.526,-0.418 -0.696,-0.731c-0.17,-0.313 -0.255,-0.678 -0.255,-1.095c0,-0.315 0.049,-0.6 0.147,-0.856c0.098,-0.257 0.235,-0.476 0.41,-0.659c0.175,-0.183 0.381,-0.324 0.618,-0.423c0.237,-0.1 0.495,-0.149 0.773,-0.149c0.366,0 0.678,0.079 0.935,0.237c0.152,0.094 0.278,0.205 0.379,0.335l0,-0.456l1.09,0l0,3.942l-1.09,0l0,-0.46Zm-1.098,-0.514c0.176,0 0.333,-0.041 0.474,-0.122c0.14,-0.081 0.252,-0.197 0.334,-0.346c0.082,-0.149 0.124,-0.326 0.124,-0.529c0,-0.206 -0.042,-0.384 -0.124,-0.532c-0.082,-0.148 -0.194,-0.263 -0.334,-0.344c-0.141,-0.081 -0.298,-0.121 -0.474,-0.121c-0.175,0 -0.332,0.04 -0.471,0.121c-0.139,0.081 -0.25,0.196 -0.332,0.344c-0.083,0.148 -0.124,0.326 -0.124,0.532c0,0.203 0.041,0.38 0.124,0.529c0.082,0.149 0.193,0.265 0.332,0.346c0.139,0.081 0.296,0.122 0.471,0.122Z" style="fill:#fff;"/><g><path d="M213.48,43.051c-0.159,0 -0.302,-0.035 -0.426,-0.11c-0.123,-0.075 -0.218,-0.176 -0.289,-0.306c-0.069,-0.127 -0.104,-0.273 -0.104,-0.439c-0,-0.12 0.019,-0.234 0.058,-0.338c0.042,-0.104 0.098,-0.195 0.169,-0.274c0.075,-0.074 0.16,-0.136 0.261,-0.175c0.1,-0.043 0.211,-0.065 0.331,-0.065c0.16,-0 0.29,0.032 0.397,0.101c0.108,0.068 0.189,0.152 0.244,0.26l-0.049,0.075l0,-0.387l0.319,-0l0,1.61l-0.319,-0l0,-0.391l0.049,0.078c-0.055,0.108 -0.136,0.192 -0.244,0.261c-0.107,0.068 -0.237,0.1 -0.397,0.1Zm0.046,-0.318c0.097,-0 0.185,-0.02 0.263,-0.065c0.078,-0.043 0.137,-0.104 0.183,-0.186c0.042,-0.081 0.065,-0.175 0.065,-0.286c-0,-0.107 -0.023,-0.202 -0.065,-0.283c-0.046,-0.081 -0.105,-0.143 -0.183,-0.189c-0.078,-0.042 -0.166,-0.065 -0.263,-0.065c-0.098,0 -0.186,0.023 -0.26,0.065c-0.078,0.046 -0.137,0.108 -0.183,0.189c-0.045,0.081 -0.068,0.176 -0.068,0.283c0,0.111 0.023,0.205 0.068,0.286c0.046,0.082 0.105,0.143 0.183,0.186c0.074,0.045 0.162,0.065 0.26,0.065Z" style="fill:#fff;"/></g><g><path d="M224.045,43.051c-0.159,0 -0.302,-0.035 -0.426,-0.11c-0.123,-0.075 -0.218,-0.176 -0.289,-0.306c-0.069,-0.127 -0.104,-0.273 -0.104,-0.439c-0,-0.12 0.019,-0.234 0.058,-0.338c0.042,-0.104 0.098,-0.195 0.169,-0.274c0.075,-0.074 0.16,-0.136 0.261,-0.175c0.1,-0.043 0.211,-0.065 0.331,-0.065c0.16,-0 0.29,0.032 0.397,0.101c0.108,0.068 0.189,0.152 0.244,0.26l-0.049,0.075l0,-0.387l0.319,-0l0,1.61l-0.319,-0l0,-0.391l0.049,0.078c-0.055,0.108 -0.136,0.192 -0.244,0.261c-0.107,0.068 -0.237,0.1 -0.397,0.1Zm0.046,-0.318c0.097,-0 0.185,-0.02 0.263,-0.065c0.078,-0.043 0.137,-0.104 0.183,-0.186c0.042,-0.081 0.065,-0.175 0.065,-0.286c-0,-0.107 -0.023,-0.202 -0.065,-0.283c-0.046,-0.081 -0.105,-0.143 -0.183,-0.189c-0.078,-0.042 -0.166,-0.065 -0.263,-0.065c-0.098,0 -0.186,0.023 -0.26,0.065c-0.078,0.046 -0.137,0.108 -0.183,0.189c-0.045,0.081 -0.068,0.176 -0.068,0.283c0,0.111 0.023,0.205 0.068,0.286c0.046,0.082 0.105,0.143 0.183,0.186c0.074,0.045 0.162,0.065 0.26,0.065Z" style="fill:#fff;"/></g><g><path d="M237.065,43.051c-0.159,0 -0.302,-0.035 -0.426,-0.11c-0.123,-0.075 -0.218,-0.176 -0.289,-0.306c-0.069,-0.127 -0.104,-0.273 -0.104,-0.439c-0,-0.12 0.019,-0.234 0.058,-0.338c0.042,-0.104 0.098,-0.195 0.169,-0.274c0.075,-0.074 0.16,-0.136 0.261,-0.175c0.1,-0.043 0.211,-0.065 0.331,-0.065c0.16,-0 0.29,0.032 0.397,0.101c0.108,0.068 0.189,0.152 0.244,0.26l-0.049,0.075l0,-0.387l0.319,-0l0,1.61l-0.319,-0l0,-0.391l0.049,0.078c-0.055,0.108 -0.136,0.192 -0.244,0.261c-0.107,0.068 -0.237,0.1 -0.397,0.1Zm0.046,-0.318c0.097,-0 0.185,-0.02 0.263,-0.065c0.078,-0.043 0.137,-0.104 0.183,-0.186c0.042,-0.081 0.065,-0.175 0.065,-0.286c-0,-0.107 -0.023,-0.202 -0.065,-0.283c-0.046,-0.081 -0.105,-0.143 -0.183,-0.189c-0.078,-0.042 -0.166,-0.065 -0.263,-0.065c-0.098,0 -0.186,0.023 -0.26,0.065c-0.078,0.046 -0.137,0.108 -0.183,0.189c-0.045,0.081 -0.068,0.176 -0.068,0.283c0,0.111 0.023,0.205 0.068,0.286c0.046,0.082 0.105,0.143 0.183,0.186c0.074,0.045 0.162,0.065 0.26,0.065Z" style="fill:#fff;"/></g><g><g><path d="M208.806,43.003l0,-2.277l0.86,-0c0.159,-0 0.296,0.027 0.411,0.082c0.116,0.055 0.205,0.133 0.269,0.233c0.063,0.101 0.095,0.221 0.095,0.36c-0,0.113 -0.024,0.212 -0.073,0.299c-0.048,0.087 -0.115,0.158 -0.202,0.214c-0.087,0.056 -0.187,0.094 -0.301,0.113l0.686,0.976l-0.441,0l-0.629,-0.919l-0.311,0l0,0.919l-0.364,0Zm0.364,-1.222l0.436,0c0.148,0 0.262,-0.031 0.344,-0.094c0.082,-0.063 0.123,-0.153 0.123,-0.27c0,-0.12 -0.037,-0.214 -0.11,-0.281c-0.073,-0.067 -0.183,-0.101 -0.331,-0.101l-0.462,-0l0,0.746Z" style="fill:#fff;fill-rule:nonzero;"/><path d="M211.656,43.052c-0.174,-0 -0.326,-0.036 -0.457,-0.107c-0.132,-0.071 -0.234,-0.17 -0.307,-0.298c-0.073,-0.128 -0.11,-0.277 -0.11,-0.446c0,-0.123 0.021,-0.238 0.064,-0.342c0.042,-0.105 0.102,-0.196 0.179,-0.273c0.077,-0.077 0.167,-0.136 0.27,-0.179c0.104,-0.042 0.217,-0.063 0.34,-0.063c0.133,-0 0.252,0.024 0.356,0.071c0.104,0.047 0.19,0.113 0.259,0.197c0.069,0.085 0.118,0.184 0.147,0.297c0.028,0.113 0.033,0.236 0.013,0.369l-1.285,-0c-0.002,0.096 0.019,0.18 0.064,0.253c0.044,0.072 0.108,0.128 0.191,0.168c0.083,0.04 0.181,0.06 0.294,0.06c0.091,0 0.179,-0.014 0.264,-0.041c0.085,-0.028 0.162,-0.069 0.232,-0.123l0.138,0.257c-0.052,0.042 -0.115,0.078 -0.189,0.108c-0.074,0.03 -0.151,0.052 -0.231,0.068c-0.08,0.016 -0.158,0.024 -0.232,0.024Zm-0.509,-1.038l0.912,0c-0.003,-0.121 -0.042,-0.217 -0.116,-0.286c-0.075,-0.07 -0.18,-0.104 -0.317,-0.104c-0.132,-0 -0.242,0.034 -0.329,0.104c-0.087,0.069 -0.137,0.165 -0.15,0.286Z" style="fill:#fff;fill-rule:nonzero;"/></g><g><path d="M215.628,43.052c-0.169,-0 -0.32,-0.037 -0.452,-0.112c-0.132,-0.074 -0.236,-0.175 -0.311,-0.304c-0.076,-0.128 -0.113,-0.274 -0.113,-0.438c-0,-0.124 0.022,-0.237 0.066,-0.341c0.045,-0.103 0.108,-0.194 0.189,-0.271c0.081,-0.077 0.177,-0.136 0.287,-0.179c0.11,-0.042 0.23,-0.063 0.359,-0.063c0.108,-0 0.209,0.014 0.301,0.043c0.093,0.029 0.179,0.073 0.257,0.133l-0.173,0.273c-0.05,-0.045 -0.107,-0.078 -0.171,-0.099c-0.065,-0.022 -0.134,-0.033 -0.206,-0.033c-0.113,0 -0.21,0.021 -0.291,0.064c-0.082,0.042 -0.145,0.103 -0.19,0.183c-0.045,0.079 -0.067,0.175 -0.067,0.288c-0,0.168 0.049,0.3 0.147,0.395c0.098,0.096 0.232,0.144 0.401,0.144c0.08,-0 0.156,-0.015 0.228,-0.045c0.071,-0.03 0.131,-0.069 0.178,-0.118l0.171,0.272c-0.085,0.065 -0.181,0.116 -0.286,0.152c-0.105,0.037 -0.213,0.056 -0.324,0.056Z" style="fill:#fff;fill-rule:nonzero;"/><path d="M216.567,43.003l-0,-2.342l0.358,-0l-0,1.06l-0.074,-0.079c0.072,-0.1 0.158,-0.175 0.259,-0.224c0.101,-0.049 0.207,-0.074 0.319,-0.074c0.146,-0 0.268,0.03 0.366,0.089c0.097,0.059 0.171,0.135 0.219,0.228c0.049,0.093 0.074,0.19 0.074,0.291l-0,1.051l-0.358,-0l-0,-0.948c-0,-0.113 -0.036,-0.205 -0.106,-0.275c-0.07,-0.071 -0.166,-0.106 -0.288,-0.107c-0.08,-0 -0.151,0.017 -0.213,0.052c-0.062,0.036 -0.11,0.085 -0.146,0.149c-0.035,0.064 -0.052,0.138 -0.052,0.223l-0,0.906l-0.358,-0Z" style="fill:#fff;fill-rule:nonzero;"/><path d="M219.366,43.686l-0,-2.293l0.322,-0l0,0.226c0.064,-0.081 0.146,-0.148 0.246,-0.199c0.099,-0.051 0.222,-0.076 0.369,-0.076c0.157,-0 0.297,0.037 0.419,0.111c0.122,0.075 0.217,0.176 0.285,0.305c0.068,0.128 0.103,0.274 0.103,0.438c-0,0.118 -0.02,0.229 -0.059,0.333c-0.039,0.103 -0.095,0.194 -0.167,0.272c-0.072,0.078 -0.157,0.139 -0.257,0.183c-0.099,0.044 -0.209,0.066 -0.329,0.066c-0.126,-0 -0.236,-0.023 -0.332,-0.069c-0.095,-0.045 -0.177,-0.106 -0.244,-0.183l0,0.886l-0.356,0Zm0.872,-0.951c0.1,-0 0.188,-0.022 0.266,-0.066c0.077,-0.044 0.138,-0.106 0.182,-0.186c0.044,-0.081 0.066,-0.176 0.066,-0.285c-0,-0.11 -0.022,-0.205 -0.067,-0.286c-0.044,-0.08 -0.105,-0.142 -0.183,-0.186c-0.077,-0.043 -0.166,-0.065 -0.264,-0.065c-0.1,0 -0.189,0.022 -0.266,0.065c-0.078,0.044 -0.139,0.106 -0.183,0.186c-0.045,0.081 -0.067,0.176 -0.067,0.286c0,0.109 0.022,0.204 0.067,0.285c0.044,0.08 0.105,0.142 0.183,0.186c0.077,0.044 0.166,0.066 0.266,0.066Z" style="fill:#fff;fill-rule:nonzero;"/><path d="M222.22,43.052c-0.173,-0 -0.325,-0.036 -0.457,-0.107c-0.131,-0.071 -0.233,-0.17 -0.306,-0.298c-0.073,-0.128 -0.11,-0.277 -0.11,-0.446c0,-0.123 0.021,-0.238 0.063,-0.342c0.043,-0.105 0.102,-0.196 0.179,-0.273c0.077,-0.077 0.168,-0.136 0.271,-0.179c0.104,-0.042 0.217,-0.063 0.339,-0.063c0.134,-0 0.252,0.024 0.357,0.071c0.104,0.047 0.19,0.113 0.259,0.197c0.069,0.085 0.118,0.184 0.146,0.297c0.029,0.113 0.034,0.236 0.014,0.369l-1.285,-0c-0.002,0.096 0.019,0.18 0.064,0.253c0.044,0.072 0.108,0.128 0.191,0.168c0.083,0.04 0.181,0.06 0.293,0.06c0.091,0 0.18,-0.014 0.265,-0.041c0.085,-0.028 0.162,-0.069 0.231,-0.123l0.139,0.257c-0.052,0.042 -0.115,0.078 -0.189,0.108c-0.074,0.03 -0.151,0.052 -0.231,0.068c-0.08,0.016 -0.158,0.024 -0.233,0.024Zm-0.509,-1.038l0.913,0c-0.003,-0.121 -0.042,-0.217 -0.116,-0.286c-0.075,-0.07 -0.18,-0.104 -0.317,-0.104c-0.132,-0 -0.242,0.034 -0.329,0.104c-0.087,0.069 -0.138,0.165 -0.151,0.286Z" style="fill:#fff;fill-rule:nonzero;"/></g><g><path d="M225.456,43.003l-0,-2.342l0.358,-0l-0,1.386l0.634,-0.654l0.423,-0l-0.569,0.616l0.652,0.994l-0.428,0l-0.485,-0.761l-0.227,0.231l-0,0.53l-0.358,0Z" style="fill:#fff;fill-rule:nonzero;"/><path d="M229.172,43.052c-0.171,-0 -0.33,-0.03 -0.475,-0.09c-0.146,-0.061 -0.273,-0.144 -0.381,-0.252c-0.108,-0.107 -0.192,-0.233 -0.252,-0.377c-0.06,-0.144 -0.09,-0.3 -0.09,-0.469c-0,-0.169 0.03,-0.325 0.09,-0.47c0.06,-0.144 0.144,-0.27 0.252,-0.377c0.108,-0.107 0.235,-0.191 0.381,-0.25c0.145,-0.06 0.304,-0.09 0.475,-0.09c0.171,0 0.328,0.03 0.474,0.091c0.145,0.061 0.272,0.145 0.38,0.254c0.109,0.108 0.193,0.234 0.253,0.378c0.06,0.144 0.091,0.299 0.091,0.464c-0,0.169 -0.031,0.325 -0.091,0.469c-0.06,0.144 -0.144,0.27 -0.253,0.377c-0.108,0.108 -0.235,0.191 -0.38,0.252c-0.146,0.06 -0.303,0.09 -0.474,0.09Zm0,-0.345c0.115,-0 0.222,-0.02 0.322,-0.059c0.099,-0.04 0.185,-0.097 0.259,-0.171c0.074,-0.074 0.132,-0.163 0.173,-0.267c0.042,-0.103 0.063,-0.219 0.063,-0.346c-0,-0.17 -0.036,-0.318 -0.108,-0.444c-0.072,-0.127 -0.17,-0.225 -0.294,-0.294c-0.123,-0.069 -0.262,-0.104 -0.415,-0.104c-0.115,-0 -0.222,0.02 -0.321,0.059c-0.099,0.04 -0.186,0.097 -0.26,0.17c-0.074,0.074 -0.132,0.163 -0.174,0.266c-0.042,0.104 -0.063,0.219 -0.063,0.347c0,0.171 0.037,0.319 0.109,0.445c0.073,0.127 0.171,0.224 0.294,0.294c0.123,0.069 0.261,0.104 0.415,0.104Z" style="fill:#fff;fill-rule:nonzero;"/><path d="M230.773,43.003l-0,-1.61l0.358,-0l-0,0.205c0.067,-0.09 0.145,-0.155 0.234,-0.195c0.089,-0.039 0.181,-0.059 0.276,-0.059c0.148,-0 0.27,0.029 0.366,0.088c0.097,0.058 0.169,0.134 0.216,0.226c0.047,0.092 0.071,0.187 0.071,0.285l-0,1.06l-0.358,0l-0,-0.95c-0,-0.115 -0.035,-0.207 -0.103,-0.276c-0.069,-0.07 -0.165,-0.104 -0.288,-0.104c-0.08,-0 -0.151,0.017 -0.213,0.053c-0.063,0.036 -0.112,0.086 -0.148,0.149c-0.035,0.063 -0.053,0.137 -0.053,0.222l-0,0.906l-0.358,0Z" style="fill:#fff;fill-rule:nonzero;"/><path d="M233.318,43.05c-0.133,0 -0.258,-0.019 -0.374,-0.057c-0.116,-0.038 -0.213,-0.089 -0.293,-0.153l0.135,-0.262c0.075,0.059 0.16,0.105 0.253,0.139c0.094,0.033 0.187,0.05 0.278,0.05c0.105,0 0.187,-0.018 0.245,-0.055c0.059,-0.037 0.088,-0.089 0.088,-0.155c0,-0.063 -0.025,-0.109 -0.075,-0.139c-0.051,-0.03 -0.147,-0.061 -0.288,-0.093c-0.202,-0.043 -0.35,-0.102 -0.441,-0.18c-0.092,-0.078 -0.138,-0.185 -0.138,-0.323c0,-0.096 0.027,-0.182 0.081,-0.256c0.054,-0.074 0.128,-0.133 0.222,-0.175c0.094,-0.042 0.203,-0.063 0.327,-0.063c0.12,-0 0.234,0.017 0.34,0.051c0.106,0.034 0.198,0.082 0.276,0.144l-0.127,0.263c-0.04,-0.035 -0.086,-0.066 -0.139,-0.092c-0.054,-0.026 -0.11,-0.047 -0.169,-0.061c-0.059,-0.015 -0.118,-0.022 -0.176,-0.022c-0.091,-0 -0.165,0.017 -0.222,0.053c-0.057,0.035 -0.086,0.083 -0.086,0.145c0,0.064 0.027,0.111 0.082,0.142c0.054,0.03 0.147,0.06 0.279,0.091c0.209,0.045 0.358,0.106 0.448,0.182c0.09,0.076 0.135,0.181 0.135,0.315c-0,0.103 -0.028,0.193 -0.083,0.27c-0.056,0.076 -0.133,0.135 -0.232,0.178c-0.099,0.042 -0.214,0.063 -0.346,0.063Z" style="fill:#fff;fill-rule:nonzero;"/><path d="M234.382,43.003l0,-2.342l0.358,-0l-0,1.06l-0.073,-0.079c0.071,-0.1 0.157,-0.175 0.258,-0.224c0.101,-0.049 0.207,-0.074 0.319,-0.074c0.147,-0 0.269,0.03 0.366,0.089c0.098,0.059 0.171,0.135 0.22,0.228c0.048,0.093 0.073,0.19 0.073,0.291l-0,1.051l-0.358,-0l0,-0.948c0,-0.113 -0.035,-0.205 -0.106,-0.275c-0.07,-0.071 -0.166,-0.106 -0.288,-0.107c-0.08,-0 -0.151,0.017 -0.213,0.052c-0.061,0.036 -0.11,0.085 -0.145,0.149c-0.035,0.064 -0.053,0.138 -0.053,0.223l-0,0.906l-0.358,-0Z" style="fill:#fff;fill-rule:nonzero;"/></g><g><path d="M238.475,43.686l-0,-2.293l0.322,-0l-0,0.226c0.064,-0.081 0.146,-0.148 0.246,-0.199c0.099,-0.051 0.222,-0.076 0.369,-0.076c0.157,-0 0.297,0.037 0.419,0.111c0.122,0.075 0.217,0.176 0.285,0.305c0.068,0.128 0.102,0.274 0.102,0.438c0,0.118 -0.019,0.229 -0.058,0.333c-0.039,0.103 -0.095,0.194 -0.167,0.272c-0.072,0.078 -0.158,0.139 -0.257,0.183c-0.099,0.044 -0.209,0.066 -0.329,0.066c-0.126,-0 -0.237,-0.023 -0.332,-0.069c-0.095,-0.045 -0.177,-0.106 -0.244,-0.183l0,0.886l-0.356,0Zm0.872,-0.951c0.099,-0 0.188,-0.022 0.266,-0.066c0.077,-0.044 0.138,-0.106 0.182,-0.186c0.044,-0.081 0.066,-0.176 0.066,-0.285c-0,-0.11 -0.023,-0.205 -0.067,-0.286c-0.045,-0.08 -0.106,-0.142 -0.183,-0.186c-0.078,-0.043 -0.166,-0.065 -0.264,-0.065c-0.1,0 -0.189,0.022 -0.266,0.065c-0.078,0.044 -0.139,0.106 -0.183,0.186c-0.045,0.081 -0.067,0.176 -0.067,0.286c0,0.109 0.022,0.204 0.067,0.285c0.044,0.08 0.105,0.142 0.183,0.186c0.077,0.044 0.166,0.066 0.266,0.066Z" style="fill:#fff;fill-rule:nonzero;"/><path d="M241.329,43.052c-0.173,-0 -0.325,-0.036 -0.457,-0.107c-0.131,-0.071 -0.233,-0.17 -0.306,-0.298c-0.073,-0.128 -0.11,-0.277 -0.11,-0.446c-0,-0.123 0.021,-0.238 0.063,-0.342c0.043,-0.105 0.102,-0.196 0.179,-0.273c0.077,-0.077 0.168,-0.136 0.271,-0.179c0.104,-0.042 0.217,-0.063 0.339,-0.063c0.134,-0 0.252,0.024 0.356,0.071c0.105,0.047 0.191,0.113 0.26,0.197c0.069,0.085 0.117,0.184 0.146,0.297c0.029,0.113 0.034,0.236 0.014,0.369l-1.285,-0c-0.002,0.096 0.019,0.18 0.064,0.253c0.044,0.072 0.108,0.128 0.191,0.168c0.083,0.04 0.18,0.06 0.293,0.06c0.091,0 0.179,-0.014 0.265,-0.041c0.085,-0.028 0.162,-0.069 0.231,-0.123l0.139,0.257c-0.052,0.042 -0.115,0.078 -0.189,0.108c-0.074,0.03 -0.151,0.052 -0.231,0.068c-0.08,0.016 -0.158,0.024 -0.233,0.024Zm-0.509,-1.038l0.913,0c-0.004,-0.121 -0.042,-0.217 -0.117,-0.286c-0.074,-0.07 -0.179,-0.104 -0.316,-0.104c-0.132,-0 -0.242,0.034 -0.329,0.104c-0.088,0.069 -0.138,0.165 -0.151,0.286Z" style="fill:#fff;fill-rule:nonzero;"/><path d="M243.254,43.686l-0,-2.293l0.322,-0l-0,0.226c0.064,-0.081 0.145,-0.148 0.245,-0.199c0.1,-0.051 0.223,-0.076 0.369,-0.076c0.158,-0 0.297,0.037 0.419,0.111c0.122,0.075 0.217,0.176 0.286,0.305c0.068,0.128 0.102,0.274 0.102,0.438c0,0.118 -0.019,0.229 -0.058,0.333c-0.039,0.103 -0.095,0.194 -0.167,0.272c-0.072,0.078 -0.158,0.139 -0.257,0.183c-0.099,0.044 -0.209,0.066 -0.33,0.066c-0.125,-0 -0.236,-0.023 -0.331,-0.069c-0.096,-0.045 -0.177,-0.106 -0.244,-0.183l-0,0.886l-0.356,0Zm0.871,-0.951c0.1,-0 0.189,-0.022 0.266,-0.066c0.078,-0.044 0.139,-0.106 0.182,-0.186c0.044,-0.081 0.066,-0.176 0.066,-0.285c0,-0.11 -0.022,-0.205 -0.066,-0.286c-0.045,-0.08 -0.106,-0.142 -0.183,-0.186c-0.078,-0.043 -0.166,-0.065 -0.265,-0.065c-0.099,0 -0.188,0.022 -0.266,0.065c-0.077,0.044 -0.138,0.106 -0.183,0.186c-0.044,0.081 -0.066,0.176 -0.066,0.286c-0,0.109 0.022,0.204 0.066,0.285c0.045,0.08 0.106,0.142 0.183,0.186c0.078,0.044 0.167,0.066 0.266,0.066Z" style="fill:#fff;fill-rule:nonzero;"/><path d="M245.357,43.003l-0,-1.61l0.357,-0l0,0.223c0.061,-0.101 0.135,-0.172 0.222,-0.213c0.086,-0.04 0.18,-0.061 0.279,-0.061c0.033,0 0.064,0.002 0.093,0.005c0.029,0.003 0.058,0.008 0.085,0.015l-0.048,0.369c-0.032,-0.01 -0.065,-0.017 -0.099,-0.023c-0.033,-0.005 -0.067,-0.008 -0.101,-0.008c-0.124,0 -0.227,0.038 -0.309,0.115c-0.081,0.076 -0.122,0.18 -0.122,0.311l0,0.877l-0.357,0Z" style="fill:#fff;fill-rule:nonzero;"/><path d="M247.393,43.052c-0.168,-0 -0.318,-0.039 -0.45,-0.116c-0.132,-0.078 -0.235,-0.182 -0.31,-0.311c-0.074,-0.13 -0.112,-0.272 -0.112,-0.427c0,-0.115 0.022,-0.224 0.064,-0.326c0.043,-0.103 0.104,-0.194 0.183,-0.273c0.078,-0.079 0.171,-0.141 0.277,-0.187c0.106,-0.045 0.223,-0.068 0.35,-0.068c0.168,-0 0.318,0.039 0.449,0.116c0.132,0.078 0.235,0.181 0.31,0.311c0.075,0.13 0.112,0.272 0.112,0.427c0,0.114 -0.021,0.222 -0.064,0.325c-0.043,0.103 -0.103,0.194 -0.181,0.273c-0.078,0.08 -0.17,0.142 -0.277,0.187c-0.106,0.046 -0.223,0.069 -0.351,0.069Zm-0,-0.317c0.1,-0 0.188,-0.022 0.266,-0.066c0.077,-0.044 0.138,-0.106 0.183,-0.186c0.044,-0.081 0.067,-0.176 0.067,-0.285c-0,-0.11 -0.023,-0.205 -0.067,-0.286c-0.045,-0.08 -0.106,-0.142 -0.183,-0.186c-0.078,-0.043 -0.166,-0.065 -0.266,-0.065c-0.1,0 -0.188,0.022 -0.266,0.065c-0.078,0.044 -0.138,0.106 -0.182,0.186c-0.044,0.081 -0.066,0.176 -0.066,0.286c-0,0.109 0.022,0.204 0.067,0.285c0.044,0.08 0.105,0.142 0.183,0.186c0.077,0.044 0.165,0.066 0.264,0.066Z" style="fill:#fff;fill-rule:nonzero;"/><path d="M249.311,43.052c-0.158,-0 -0.297,-0.037 -0.418,-0.112c-0.122,-0.074 -0.217,-0.175 -0.286,-0.304c-0.069,-0.128 -0.103,-0.274 -0.103,-0.438c-0,-0.118 0.019,-0.229 0.058,-0.333c0.039,-0.103 0.095,-0.194 0.167,-0.272c0.072,-0.078 0.158,-0.139 0.257,-0.183c0.099,-0.044 0.209,-0.066 0.329,-0.066c0.147,-0 0.274,0.029 0.381,0.088c0.107,0.058 0.197,0.14 0.268,0.244l-0.074,0.079l-0,-1.094l0.357,-0l0,2.342l-0.322,0l0,-0.387l0.052,0.081c-0.058,0.102 -0.142,0.187 -0.251,0.254c-0.109,0.067 -0.247,0.101 -0.415,0.101Zm0.065,-0.317c0.099,-0 0.188,-0.022 0.266,-0.066c0.077,-0.044 0.138,-0.106 0.183,-0.186c0.044,-0.081 0.066,-0.176 0.066,-0.285c0,-0.11 -0.022,-0.205 -0.066,-0.286c-0.045,-0.08 -0.106,-0.142 -0.183,-0.186c-0.078,-0.043 -0.167,-0.065 -0.266,-0.065c-0.1,0 -0.188,0.022 -0.265,0.065c-0.077,0.044 -0.138,0.106 -0.183,0.186c-0.044,0.081 -0.066,0.176 -0.066,0.286c-0,0.109 0.022,0.204 0.066,0.285c0.045,0.08 0.106,0.142 0.183,0.186c0.078,0.044 0.166,0.066 0.265,0.066Z" style="fill:#fff;fill-rule:nonzero;"/><path d="M251.366,43.052c-0.144,-0 -0.263,-0.029 -0.357,-0.087c-0.093,-0.058 -0.164,-0.135 -0.21,-0.23c-0.047,-0.096 -0.07,-0.2 -0.07,-0.313l-0,-1.029l0.358,-0l-0,0.963c-0,0.11 0.033,0.199 0.098,0.266c0.066,0.066 0.157,0.1 0.273,0.1c0.075,-0 0.143,-0.017 0.203,-0.052c0.06,-0.034 0.107,-0.082 0.142,-0.144c0.035,-0.061 0.053,-0.133 0.053,-0.214l0,-0.919l0.358,-0l-0,1.61l-0.322,-0l-0,-0.19c-0.063,0.076 -0.138,0.134 -0.224,0.176c-0.086,0.042 -0.187,0.063 -0.302,0.063Z" style="fill:#fff;fill-rule:nonzero;"/><path d="M253.45,43.052c-0.169,-0 -0.32,-0.037 -0.452,-0.112c-0.132,-0.074 -0.236,-0.175 -0.312,-0.304c-0.075,-0.128 -0.113,-0.274 -0.113,-0.438c0,-0.124 0.023,-0.237 0.067,-0.341c0.045,-0.103 0.107,-0.194 0.189,-0.271c0.081,-0.077 0.177,-0.136 0.287,-0.179c0.11,-0.042 0.229,-0.063 0.358,-0.063c0.109,-0 0.209,0.014 0.302,0.043c0.093,0.029 0.178,0.073 0.256,0.133l-0.172,0.273c-0.05,-0.045 -0.107,-0.078 -0.172,-0.099c-0.064,-0.022 -0.133,-0.033 -0.205,-0.033c-0.113,0 -0.21,0.021 -0.292,0.064c-0.081,0.042 -0.144,0.103 -0.189,0.183c-0.045,0.079 -0.068,0.175 -0.068,0.288c0,0.168 0.05,0.3 0.148,0.395c0.098,0.096 0.231,0.144 0.401,0.144c0.08,-0 0.156,-0.015 0.227,-0.045c0.072,-0.03 0.131,-0.069 0.179,-0.118l0.171,0.272c-0.086,0.065 -0.181,0.116 -0.286,0.152c-0.105,0.037 -0.213,0.056 -0.324,0.056Z" style="fill:#fff;fill-rule:nonzero;"/><path d="M255.065,43.052c-0.157,-0 -0.283,-0.046 -0.377,-0.137c-0.095,-0.091 -0.142,-0.23 -0.142,-0.418l0,-1.574l0.358,-0l0,0.47l0.447,-0l0,0.296l-0.447,-0l0,0.73c0,0.113 0.022,0.192 0.064,0.238c0.043,0.046 0.104,0.069 0.182,0.069c0.038,0 0.073,-0.004 0.107,-0.013c0.034,-0.008 0.064,-0.02 0.091,-0.034l0.064,0.29c-0.047,0.024 -0.1,0.043 -0.161,0.059c-0.06,0.016 -0.122,0.024 -0.186,0.024Zm-0.872,-1.363l0,-0.296l0.4,-0l0,0.296l-0.4,-0Z" style="fill:#fff;fill-rule:nonzero;"/><path d="M255.786,43.003l-0,-1.61l0.358,-0l-0,1.61l-0.358,0Zm0.179,-1.898c-0.064,-0 -0.12,-0.021 -0.166,-0.062c-0.047,-0.041 -0.07,-0.095 -0.07,-0.163c-0,-0.066 0.023,-0.12 0.07,-0.161c0.046,-0.042 0.102,-0.063 0.166,-0.063c0.064,-0 0.119,0.021 0.166,0.063c0.046,0.041 0.069,0.095 0.069,0.161c0,0.068 -0.023,0.122 -0.069,0.163c-0.047,0.041 -0.102,0.062 -0.166,0.062Z" style="fill:#fff;fill-rule:nonzero;"/><path d="M257.041,43.003l-0.601,-1.61l0.392,-0l0.445,1.303l-0.053,-0l0.437,-1.303l0.381,-0l-0.591,1.61l-0.41,0Z" style="fill:#fff;fill-rule:nonzero;"/><path d="M258.338,43.003l-0,-1.61l0.358,-0l-0,1.61l-0.358,0Zm0.179,-1.898c-0.064,-0 -0.12,-0.021 -0.166,-0.062c-0.047,-0.041 -0.07,-0.095 -0.07,-0.163c-0,-0.066 0.023,-0.12 0.07,-0.161c0.046,-0.042 0.102,-0.063 0.166,-0.063c0.064,-0 0.119,0.021 0.165,0.063c0.047,0.041 0.07,0.095 0.07,0.161c0,0.068 -0.023,0.122 -0.07,0.163c-0.046,0.041 -0.101,0.062 -0.165,0.062Z" style="fill:#fff;fill-rule:nonzero;"/><path d="M259.87,43.052c-0.157,-0 -0.283,-0.046 -0.378,-0.137c-0.094,-0.091 -0.141,-0.23 -0.141,-0.418l-0,-1.574l0.358,-0l-0,0.47l0.447,-0l0,0.296l-0.447,-0l-0,0.73c-0,0.113 0.021,0.192 0.064,0.238c0.043,0.046 0.103,0.069 0.181,0.069c0.038,0 0.074,-0.004 0.108,-0.013c0.033,-0.008 0.064,-0.02 0.091,-0.034l0.063,0.29c-0.046,0.024 -0.1,0.043 -0.16,0.059c-0.06,0.016 -0.122,0.024 -0.186,0.024Zm-0.872,-1.363l0,-0.296l0.4,-0l0,0.296l-0.4,-0Z" style="fill:#fff;fill-rule:nonzero;"/><path d="M260.729,43.732c-0.059,-0 -0.116,-0.007 -0.173,-0.02c-0.056,-0.013 -0.111,-0.035 -0.166,-0.067l0.082,-0.305c0.033,0.021 0.07,0.038 0.11,0.048c0.04,0.011 0.076,0.017 0.108,0.017c0.075,-0 0.135,-0.018 0.179,-0.054c0.043,-0.036 0.077,-0.091 0.102,-0.166l0.054,-0.156l-0.635,-1.636l0.392,-0l0.446,1.249l0.434,-1.249l0.379,-0l-0.696,1.843c-0.05,0.129 -0.106,0.229 -0.167,0.301c-0.062,0.072 -0.131,0.123 -0.205,0.152c-0.075,0.028 -0.157,0.043 -0.244,0.043Z" style="fill:#fff;fill-rule:nonzero;"/></g></g><path d="M208.806,37.072l53.235,0" style="fill:none;stroke:#fff;stroke-width:0.18px;"/></g></svg>