<?xml version="1.0" encoding="UTF-8" standalone="no"?><!DOCTYPE svg PUBLIC "-//W3C//DTD SVG 1.1//EN" "http://www.w3.org/Graphics/SVG/1.1/DTD/svg11.dtd"><svg width="100%" height="100%" viewBox="0 0 286 72" version="1.1" xmlns="http://www.w3.org/2000/svg" xmlns:xlink="http://www.w3.org/1999/xlink" xml:space="preserve" xmlns:serif="http://www.serif.com/" style="fill-rule:evenodd;clip-rule:evenodd;stroke-linecap:round;stroke-linejoin:round;stroke-miterlimit:1.5;"><rect id="LinkedIn-Banner" serif:id="LinkedIn Banner" x="0" y="-0" width="285.12" height="71.28" style="fill:#609865;"/><g><g id="Flattened-Logo" serif:id="Flattened Logo"><path d="M193.521,28.088l1.82,0l-0,4.175l-1.82,-0l-0,-4.175Zm-5.723,3.125l1.287,-1.287l2.952,2.952l-1.287,1.287l-2.952,-2.952Zm-1.838,6.256l0,-1.82l4.175,-0l0,1.82l-4.175,-0Zm3.125,5.723l-1.287,-1.287l4.43,-4.431c1.217,-1.216 3.189,-1.216 4.405,-0l4.431,4.431l-1.287,1.287l-4.431,-4.431c-0.506,-0.506 -1.325,-0.506 -1.831,-0l-4.43,4.431Zm13.816,-7.543l0,1.82l-4.175,-0l0,-1.82l4.175,-0Zm-3.124,-5.723l1.287,1.287l-2.952,2.952l-1.287,-1.287l2.952,-2.952Z" style="fill:#fff;"/></g><path d="M209.43,33.114l-0,-4.24l-1.442,0l0,-1.171l4.174,0l0,1.171l-1.441,0l-0,4.24l-1.291,-0Zm4.672,-3.642c0.106,-0.088 0.22,-0.165 0.344,-0.231c0.234,-0.123 0.493,-0.185 0.777,-0.185c0.368,-0 0.675,0.073 0.921,0.22c0.246,0.147 0.43,0.339 0.551,0.576c0.121,0.237 0.182,0.492 0.182,0.765l-0,2.497l-1.268,-0l0,-2.141c0,-0.227 -0.066,-0.411 -0.197,-0.553c-0.131,-0.142 -0.316,-0.214 -0.553,-0.216c-0.159,-0.003 -0.295,0.029 -0.407,0.094c-0.112,0.066 -0.199,0.16 -0.259,0.282c-0.061,0.123 -0.091,0.268 -0.091,0.435l-0,2.099l-1.268,-0l0,-5.565l1.268,-0l-0,1.923Zm5.658,3.757c-0.433,0 -0.813,-0.087 -1.14,-0.26c-0.328,-0.174 -0.583,-0.418 -0.766,-0.731c-0.183,-0.313 -0.274,-0.679 -0.274,-1.099c-0,-0.304 0.053,-0.584 0.16,-0.839c0.107,-0.255 0.257,-0.475 0.449,-0.661c0.192,-0.185 0.418,-0.329 0.68,-0.431c0.261,-0.101 0.549,-0.152 0.863,-0.152c0.346,-0 0.654,0.061 0.924,0.183c0.271,0.123 0.494,0.293 0.671,0.51c0.176,0.218 0.298,0.475 0.365,0.77c0.067,0.295 0.069,0.615 0.008,0.96l-2.961,-0c0.003,0.154 0.049,0.29 0.139,0.406c0.091,0.116 0.214,0.206 0.371,0.272c0.158,0.066 0.341,0.099 0.549,0.099c0.232,-0 0.452,-0.031 0.661,-0.091c0.209,-0.061 0.408,-0.154 0.599,-0.28l0.398,0.858c-0.121,0.092 -0.278,0.175 -0.469,0.249c-0.192,0.073 -0.396,0.131 -0.611,0.174c-0.215,0.042 -0.421,0.063 -0.616,0.063Zm-0.943,-2.604l1.677,-0c-0.005,-0.199 -0.079,-0.357 -0.22,-0.476c-0.142,-0.118 -0.334,-0.177 -0.576,-0.177c-0.245,-0 -0.448,0.059 -0.609,0.177c-0.161,0.119 -0.252,0.277 -0.272,0.476Zm8.107,2.604c-0.415,0 -0.798,-0.071 -1.149,-0.214c-0.352,-0.143 -0.658,-0.342 -0.918,-0.597c-0.26,-0.255 -0.462,-0.554 -0.605,-0.897c-0.143,-0.342 -0.214,-0.713 -0.214,-1.113c-0,-0.402 0.071,-0.774 0.214,-1.116c0.143,-0.343 0.345,-0.642 0.605,-0.897c0.26,-0.255 0.566,-0.453 0.918,-0.595c0.351,-0.142 0.734,-0.213 1.149,-0.213c0.418,0 0.801,0.072 1.152,0.217c0.35,0.144 0.656,0.345 0.916,0.603c0.26,0.257 0.462,0.557 0.605,0.898c0.143,0.341 0.214,0.709 0.214,1.103c0,0.4 -0.071,0.771 -0.214,1.113c-0.143,0.343 -0.345,0.642 -0.605,0.897c-0.26,0.255 -0.566,0.454 -0.916,0.597c-0.351,0.143 -0.734,0.214 -1.152,0.214Zm0,-1.205c0.224,-0 0.43,-0.038 0.617,-0.112c0.186,-0.075 0.349,-0.183 0.488,-0.325c0.14,-0.142 0.247,-0.312 0.323,-0.512c0.076,-0.2 0.114,-0.422 0.114,-0.667c0,-0.329 -0.066,-0.615 -0.199,-0.858c-0.133,-0.242 -0.315,-0.429 -0.549,-0.562c-0.233,-0.132 -0.497,-0.199 -0.794,-0.199c-0.221,0 -0.426,0.038 -0.614,0.114c-0.188,0.076 -0.351,0.185 -0.489,0.327c-0.138,0.141 -0.245,0.311 -0.323,0.51c-0.077,0.198 -0.116,0.421 -0.116,0.668c0,0.328 0.067,0.612 0.201,0.854c0.134,0.243 0.318,0.43 0.551,0.563c0.233,0.132 0.497,0.199 0.79,0.199Zm3.718,1.09l-0,-3.942l1.267,-0l0,0.417c0.147,-0.185 0.321,-0.321 0.522,-0.406c0.201,-0.085 0.412,-0.127 0.634,-0.127c0.371,-0 0.676,0.073 0.916,0.218c0.239,0.146 0.416,0.334 0.531,0.564c0.115,0.231 0.172,0.475 0.172,0.733l0,2.543l-1.267,-0l-0,-2.145c-0,-0.237 -0.063,-0.424 -0.188,-0.561c-0.125,-0.136 -0.308,-0.204 -0.551,-0.204c-0.154,-0 -0.289,0.033 -0.403,0.1c-0.115,0.067 -0.205,0.162 -0.269,0.284c-0.064,0.122 -0.097,0.262 -0.097,0.419l0,2.107l-1.267,-0Zm6.539,0.108c-0.366,-0 -0.701,-0.045 -1.003,-0.136c-0.303,-0.09 -0.564,-0.217 -0.783,-0.382l0.394,-0.87c0.214,0.137 0.443,0.244 0.688,0.323c0.245,0.079 0.477,0.118 0.696,0.118c0.201,-0 0.354,-0.028 0.46,-0.083c0.105,-0.056 0.158,-0.136 0.158,-0.242c0,-0.092 -0.048,-0.161 -0.145,-0.205c-0.096,-0.043 -0.285,-0.091 -0.566,-0.142c-0.531,-0.091 -0.919,-0.239 -1.165,-0.447c-0.246,-0.207 -0.369,-0.491 -0.369,-0.852c-0,-0.258 0.071,-0.483 0.212,-0.676c0.142,-0.193 0.339,-0.344 0.59,-0.45c0.251,-0.107 0.54,-0.161 0.867,-0.161c0.32,0 0.622,0.043 0.907,0.128c0.284,0.085 0.528,0.203 0.732,0.355l-0.383,0.87c-0.105,-0.08 -0.227,-0.151 -0.365,-0.213c-0.138,-0.062 -0.28,-0.109 -0.427,-0.143c-0.147,-0.033 -0.29,-0.05 -0.429,-0.05c-0.173,-0 -0.312,0.026 -0.419,0.079c-0.107,0.053 -0.161,0.126 -0.161,0.219c0,0.095 0.047,0.166 0.14,0.212c0.092,0.046 0.278,0.099 0.556,0.159c0.562,0.113 0.96,0.266 1.194,0.457c0.235,0.192 0.352,0.461 0.352,0.806c-0,0.268 -0.073,0.501 -0.219,0.7c-0.145,0.198 -0.347,0.352 -0.606,0.461c-0.259,0.11 -0.561,0.165 -0.906,0.165Zm3.825,-3.75c0.106,-0.088 0.221,-0.165 0.344,-0.231c0.235,-0.123 0.494,-0.185 0.777,-0.185c0.368,-0 0.676,0.073 0.922,0.22c0.246,0.147 0.429,0.339 0.55,0.576c0.122,0.237 0.182,0.492 0.182,0.765l0,2.497l-1.267,-0l-0,-2.141c-0,-0.227 -0.066,-0.411 -0.198,-0.553c-0.131,-0.142 -0.315,-0.214 -0.552,-0.216c-0.16,-0.003 -0.296,0.029 -0.408,0.094c-0.112,0.066 -0.198,0.16 -0.259,0.282c-0.06,0.123 -0.091,0.268 -0.091,0.435l0,2.099l-1.267,-0l-0,-5.565l1.267,-0l0,1.923Zm5.658,3.757c-0.433,0 -0.813,-0.087 -1.14,-0.26c-0.327,-0.174 -0.582,-0.418 -0.765,-0.731c-0.183,-0.313 -0.275,-0.679 -0.275,-1.099c0,-0.304 0.054,-0.584 0.161,-0.839c0.107,-0.255 0.256,-0.475 0.448,-0.661c0.192,-0.185 0.419,-0.329 0.68,-0.431c0.262,-0.101 0.55,-0.152 0.864,-0.152c0.345,-0 0.653,0.061 0.923,0.183c0.271,0.123 0.494,0.293 0.671,0.51c0.176,0.218 0.298,0.475 0.365,0.77c0.067,0.295 0.07,0.615 0.008,0.96l-2.96,-0c0.002,0.154 0.049,0.29 0.139,0.406c0.09,0.116 0.214,0.206 0.371,0.272c0.157,0.066 0.34,0.099 0.549,0.099c0.231,-0 0.452,-0.031 0.66,-0.091c0.209,-0.061 0.409,-0.154 0.599,-0.28l0.398,0.858c-0.121,0.092 -0.277,0.175 -0.469,0.249c-0.192,0.073 -0.396,0.131 -0.611,0.174c-0.215,0.042 -0.42,0.063 -0.616,0.063Zm-0.943,-2.604l1.677,-0c-0.005,-0.199 -0.078,-0.357 -0.22,-0.476c-0.142,-0.118 -0.334,-0.177 -0.576,-0.177c-0.245,-0 -0.448,0.059 -0.609,0.177c-0.161,0.119 -0.251,0.277 -0.272,0.476Zm3.667,2.489l0,-3.942l1.268,-0l-0,0.46c0.118,-0.204 0.276,-0.352 0.471,-0.445c0.196,-0.093 0.409,-0.139 0.638,-0.139c0.088,0 0.166,0.005 0.236,0.016c0.069,0.01 0.138,0.021 0.205,0.034l-0.151,1.303c-0.088,-0.031 -0.18,-0.056 -0.278,-0.076c-0.098,-0.019 -0.196,-0.029 -0.294,-0.029c-0.24,0 -0.437,0.069 -0.593,0.207c-0.156,0.138 -0.234,0.339 -0.234,0.605l-0,2.006l-1.268,-0Zm3.428,1.623l0,-5.565l1.094,-0l-0,0.452c0.147,-0.173 0.334,-0.311 0.562,-0.414c0.228,-0.103 0.493,-0.154 0.794,-0.154c0.376,-0 0.712,0.086 1.007,0.259c0.295,0.172 0.527,0.416 0.697,0.73c0.17,0.314 0.256,0.68 0.256,1.098c-0,0.293 -0.049,0.567 -0.145,0.821c-0.097,0.254 -0.234,0.475 -0.412,0.665c-0.178,0.189 -0.387,0.336 -0.628,0.442c-0.241,0.106 -0.507,0.158 -0.798,0.158c-0.232,0 -0.445,-0.037 -0.64,-0.112c-0.194,-0.074 -0.369,-0.18 -0.523,-0.317l-0,1.937l-1.264,-0Zm2.214,-2.597c0.183,-0 0.347,-0.041 0.491,-0.122c0.145,-0.081 0.258,-0.197 0.34,-0.346c0.083,-0.149 0.124,-0.326 0.124,-0.529c0,-0.206 -0.042,-0.384 -0.126,-0.532c-0.083,-0.148 -0.197,-0.263 -0.34,-0.344c-0.143,-0.081 -0.306,-0.121 -0.489,-0.121c-0.18,-0 -0.342,0.04 -0.486,0.121c-0.145,0.081 -0.258,0.196 -0.341,0.344c-0.082,0.148 -0.123,0.326 -0.123,0.532c-0,0.203 0.041,0.38 0.123,0.529c0.083,0.149 0.196,0.265 0.339,0.346c0.143,0.081 0.306,0.122 0.488,0.122Zm5.921,0.514c-0.101,0.13 -0.227,0.242 -0.379,0.336c-0.257,0.16 -0.569,0.239 -0.935,0.239c-0.371,0 -0.703,-0.087 -0.997,-0.26c-0.294,-0.174 -0.526,-0.418 -0.696,-0.731c-0.17,-0.313 -0.255,-0.678 -0.255,-1.095c0,-0.315 0.049,-0.6 0.147,-0.856c0.098,-0.257 0.235,-0.476 0.41,-0.659c0.175,-0.183 0.381,-0.324 0.618,-0.423c0.237,-0.1 0.495,-0.149 0.773,-0.149c0.366,-0 0.678,0.079 0.935,0.237c0.152,0.094 0.278,0.205 0.379,0.335l-0,-0.456l1.09,-0l-0,3.942l-1.09,-0l-0,-0.46Zm-1.098,-0.514c0.176,-0 0.333,-0.041 0.474,-0.122c0.14,-0.081 0.252,-0.197 0.334,-0.346c0.082,-0.149 0.124,-0.326 0.124,-0.529c-0,-0.206 -0.042,-0.384 -0.124,-0.532c-0.082,-0.148 -0.194,-0.263 -0.334,-0.344c-0.141,-0.081 -0.298,-0.121 -0.474,-0.121c-0.175,-0 -0.332,0.04 -0.471,0.121c-0.139,0.081 -0.25,0.196 -0.332,0.344c-0.083,0.148 -0.124,0.326 -0.124,0.532c-0,0.203 0.041,0.38 0.124,0.529c0.082,0.149 0.193,0.265 0.332,0.346c0.139,0.081 0.296,0.122 0.471,0.122Z" style="fill:#fff;"/><g transform="matrix(3.25289,0,0,3.25289,212.55,43.0027)"><path d="M0.286,0.015c-0.049,0 -0.093,-0.011 -0.131,-0.034c-0.038,-0.023 -0.067,-0.054 -0.089,-0.094c-0.021,-0.039 -0.032,-0.084 -0.032,-0.135c-0,-0.037 0.006,-0.072 0.018,-0.104c0.013,-0.032 0.03,-0.06 0.052,-0.084c0.023,-0.023 0.049,-0.042 0.08,-0.054c0.031,-0.013 0.065,-0.02 0.102,-0.02c0.049,0 0.089,0.01 0.122,0.031c0.033,0.021 0.058,0.047 0.075,0.08l-0.015,0.023l0,-0.119l0.098,-0l0,0.495l-0.098,-0l-0,-0.12l0.015,0.024c-0.017,0.033 -0.042,0.059 -0.075,0.08c-0.033,0.021 -0.073,0.031 -0.122,0.031Zm0.014,-0.098c0.03,0 0.057,-0.006 0.081,-0.02c0.024,-0.013 0.042,-0.032 0.056,-0.057c0.013,-0.025 0.02,-0.054 0.02,-0.088c-0,-0.033 -0.007,-0.062 -0.02,-0.087c-0.014,-0.025 -0.032,-0.044 -0.056,-0.058c-0.024,-0.013 -0.051,-0.02 -0.081,-0.02c-0.03,0 -0.057,0.007 -0.08,0.02c-0.024,0.014 -0.042,0.033 -0.056,0.058c-0.014,0.025 -0.021,0.054 -0.021,0.087c0,0.034 0.007,0.063 0.021,0.088c0.014,0.025 0.032,0.044 0.056,0.057c0.023,0.014 0.05,0.02 0.08,0.02Z" style="fill:#fff;fill-rule:nonzero;"/></g><g transform="matrix(3.25289,0,0,3.25289,212.55,43.0027)"></g><g transform="matrix(3.25289,0,0,3.25289,223.115,43.0027)"><path d="M0.286,0.015c-0.049,0 -0.093,-0.011 -0.131,-0.034c-0.038,-0.023 -0.067,-0.054 -0.089,-0.094c-0.021,-0.039 -0.032,-0.084 -0.032,-0.135c-0,-0.037 0.006,-0.072 0.018,-0.104c0.013,-0.032 0.03,-0.06 0.052,-0.084c0.023,-0.023 0.049,-0.042 0.08,-0.054c0.031,-0.013 0.065,-0.02 0.102,-0.02c0.049,0 0.089,0.01 0.122,0.031c0.033,0.021 0.058,0.047 0.075,0.08l-0.015,0.023l0,-0.119l0.098,-0l0,0.495l-0.098,-0l-0,-0.12l0.015,0.024c-0.017,0.033 -0.042,0.059 -0.075,0.08c-0.033,0.021 -0.073,0.031 -0.122,0.031Zm0.014,-0.098c0.03,0 0.057,-0.006 0.081,-0.02c0.024,-0.013 0.042,-0.032 0.056,-0.057c0.013,-0.025 0.02,-0.054 0.02,-0.088c-0,-0.033 -0.007,-0.062 -0.02,-0.087c-0.014,-0.025 -0.032,-0.044 -0.056,-0.058c-0.024,-0.013 -0.051,-0.02 -0.081,-0.02c-0.03,0 -0.057,0.007 -0.08,0.02c-0.024,0.014 -0.042,0.033 -0.056,0.058c-0.014,0.025 -0.021,0.054 -0.021,0.087c0,0.034 0.007,0.063 0.021,0.088c0.014,0.025 0.032,0.044 0.056,0.057c0.023,0.014 0.05,0.02 0.08,0.02Z" style="fill:#fff;fill-rule:nonzero;"/></g><g transform="matrix(3.25289,0,0,3.25289,223.115,43.0027)"></g><g transform="matrix(3.25289,0,0,3.25289,236.135,43.0027)"><path d="M0.286,0.015c-0.049,0 -0.093,-0.011 -0.131,-0.034c-0.038,-0.023 -0.067,-0.054 -0.089,-0.094c-0.021,-0.039 -0.032,-0.084 -0.032,-0.135c-0,-0.037 0.006,-0.072 0.018,-0.104c0.013,-0.032 0.03,-0.06 0.052,-0.084c0.023,-0.023 0.049,-0.042 0.08,-0.054c0.031,-0.013 0.065,-0.02 0.102,-0.02c0.049,0 0.089,0.01 0.122,0.031c0.033,0.021 0.058,0.047 0.075,0.08l-0.015,0.023l0,-0.119l0.098,-0l0,0.495l-0.098,-0l-0,-0.12l0.015,0.024c-0.017,0.033 -0.042,0.059 -0.075,0.08c-0.033,0.021 -0.073,0.031 -0.122,0.031Zm0.014,-0.098c0.03,0 0.057,-0.006 0.081,-0.02c0.024,-0.013 0.042,-0.032 0.056,-0.057c0.013,-0.025 0.02,-0.054 0.02,-0.088c-0,-0.033 -0.007,-0.062 -0.02,-0.087c-0.014,-0.025 -0.032,-0.044 -0.056,-0.058c-0.024,-0.013 -0.051,-0.02 -0.081,-0.02c-0.03,0 -0.057,0.007 -0.08,0.02c-0.024,0.014 -0.042,0.033 -0.056,0.058c-0.014,0.025 -0.021,0.054 -0.021,0.087c0,0.034 0.007,0.063 0.021,0.088c0.014,0.025 0.032,0.044 0.056,0.057c0.023,0.014 0.05,0.02 0.08,0.02Z" style="fill:#fff;fill-rule:nonzero;"/></g><g transform="matrix(3.25289,0,0,3.25289,236.135,43.0027)"></g><g transform="matrix(3.25289,0,0,3.25289,262.072,43.0027)"></g><text x="208.51px" y="43.003px" style="font-family:'Geologica-Regular', 'Geologica';font-size:3.253px;fill:#fff;">Re<tspan x="214.641px " y="43.003px ">c</tspan>h pe<tspan x="225.207px " y="43.003px ">k</tspan> Onsh<tspan x="238.226px " y="43.003px ">p</tspan>e productivity</text><path d="M208.806,37.072l53.235,-0" style="fill:none;stroke:#fff;stroke-width:0.18px;"/></g></svg>