<?xml version="1.0" encoding="UTF-8" standalone="no"?>
<!DOCTYPE svg PUBLIC "-//W3C//DTD SVG 1.1//EN" "http://www.w3.org/Graphics/SVG/1.1/DTD/svg11.dtd">
<svg width="100%" height="100%" viewBox="0 0 374 392" version="1.1" xmlns="http://www.w3.org/2000/svg" xmlns:xlink="http://www.w3.org/1999/xlink" xml:space="preserve" xmlns:serif="http://www.serif.com/" style="fill-rule:evenodd;clip-rule:evenodd;stroke-linejoin:round;stroke-miterlimit:2;">
    <g transform="matrix(1,0,0,1,-813,-804)">
        <g transform="matrix(0.597608,0,0,0.597608,402.392,361.148)">
            <g transform="matrix(0.780422,-7.88861e-31,-3.9443e-31,0.740881,-955.4,2938.67)">
                <g id="Flattened-Logo" serif:id="Flattened Logo">
                    <path d="M2469.97,-2965.68L2541.16,-2965.68L2541.16,-2793.69L2469.97,-2793.69L2469.97,-2965.68ZM2246.14,-2836.96L2296.48,-2889.98L2411.93,-2768.37L2361.6,-2715.35L2246.14,-2836.96ZM2174.28,-2579.22L2174.28,-2654.21L2337.56,-2654.21L2337.56,-2579.22L2174.28,-2579.22ZM2296.48,-2343.45L2246.14,-2396.47L2419.43,-2579.01C2467,-2629.12 2544.13,-2629.12 2591.7,-2579.01L2764.99,-2396.47L2714.65,-2343.45L2541.36,-2525.98C2521.59,-2546.81 2489.54,-2546.81 2469.77,-2525.98L2296.48,-2343.45ZM2836.85,-2654.21L2836.85,-2579.22L2673.58,-2579.22L2673.58,-2654.21L2836.85,-2654.21ZM2714.65,-2889.98L2764.99,-2836.96L2649.54,-2715.35L2599.2,-2768.37L2714.65,-2889.98Z" style="fill:white;fill-opacity:0.85;"/>
                </g>
            </g>
            <g transform="matrix(1.33615,0,0,1.33615,-6273.33,-473.039)">
                <g transform="matrix(66.6667,0,0,66.6667,5637.23,1385.25)">
                    <path d="M0.28,0.015C0.232,0.015 0.189,0.004 0.151,-0.019C0.113,-0.041 0.083,-0.073 0.061,-0.113C0.039,-0.154 0.028,-0.201 0.028,-0.255C0.028,-0.296 0.034,-0.333 0.047,-0.366C0.059,-0.399 0.077,-0.427 0.1,-0.451C0.122,-0.475 0.149,-0.493 0.18,-0.506C0.21,-0.519 0.244,-0.525 0.28,-0.525C0.327,-0.525 0.367,-0.515 0.401,-0.494C0.434,-0.474 0.458,-0.447 0.472,-0.413L0.45,-0.377L0.45,-0.51L0.591,-0.51L0.591,-0L0.45,-0L0.45,-0.133L0.472,-0.098C0.458,-0.064 0.434,-0.037 0.401,-0.016C0.367,0.005 0.327,0.015 0.28,0.015ZM0.308,-0.126C0.33,-0.126 0.351,-0.131 0.369,-0.142C0.387,-0.152 0.401,-0.167 0.412,-0.187C0.423,-0.206 0.428,-0.229 0.428,-0.255C0.428,-0.282 0.423,-0.305 0.412,-0.324C0.401,-0.343 0.387,-0.358 0.369,-0.368C0.351,-0.379 0.33,-0.384 0.308,-0.384C0.285,-0.384 0.265,-0.379 0.247,-0.368C0.229,-0.358 0.214,-0.343 0.204,-0.324C0.193,-0.305 0.188,-0.282 0.188,-0.255C0.188,-0.229 0.193,-0.206 0.204,-0.187C0.214,-0.167 0.229,-0.152 0.247,-0.142C0.265,-0.131 0.285,-0.126 0.308,-0.126Z" style="fill:white;fill-opacity:0.85;fill-rule:nonzero;"/>
                </g>
                <g transform="matrix(66.6667,0,0,66.6667,5637.23,1385.25)">
                </g>
                <g transform="matrix(66.6667,0,0,66.6667,5681.13,1385.25)">
                </g>
                <text x="5209.1px" y="1385.25px" style="font-family:'Geologica-Bold', 'Geologica';font-weight:700;font-size:66.667px;fill:white;fill-opacity:0.85;">The Onsherp</text>
            </g>
        </g>
    </g>
</svg>
