<?xml version="1.0" encoding="UTF-8" standalone="no"?><!DOCTYPE svg PUBLIC "-//W3C//DTD SVG 1.1//EN" "http://www.w3.org/Graphics/SVG/1.1/DTD/svg11.dtd"><svg width="100%" height="100%" viewBox="0 0 64 64" version="1.1" xmlns="http://www.w3.org/2000/svg" xmlns:xlink="http://www.w3.org/1999/xlink" xml:space="preserve" xmlns:serif="http://www.serif.com/" style="fill-rule:evenodd;clip-rule:evenodd;stroke-linejoin:round;stroke-miterlimit:2;"><rect id="Favicon" x="0" y="-0" width="63.9" height="63.9" style="fill:none;"/><g id="Favicon-White-on-Pop" serif:id="Favicon White on Pop"><circle cx="31.95" cy="31.95" r="31.95" style="fill:#609865;"/><path d="M29.171,6.081l5.558,0l0,12.75l-5.558,-0l-0,-12.75Zm-17.478,9.542l3.93,-3.93l9.016,9.015l-3.931,3.931l-9.015,-9.016Zm-5.612,19.106l0,-5.558l12.75,-0l-0,5.558l-12.75,0Zm9.542,17.478l-3.93,-3.93l13.531,-13.532c3.715,-3.714 9.737,-3.714 13.452,0l13.531,13.532l-3.93,3.93l-13.532,-13.531c-1.544,-1.544 -4.046,-1.544 -5.59,-0l-13.532,13.531Zm42.196,-23.036l-0,5.558l-12.75,0l0,-5.558l12.75,-0Zm-9.542,-17.478l3.93,3.93l-9.015,9.016l-3.931,-3.931l9.016,-9.015Z" style="fill:#fff;"/></g></svg>